{"glyphs":{"0":{"ha":856,"x_min":97,"x_max":853,"o":"m 372 -15 q 248 15 300 -15 q 163 97 196 46 q 113 214 129 149 q 97 347 97 279 q 125 533 97 440 q 201 706 153 625 q 311 849 249 788 q 444 945 374 910 q 585 981 514 981 q 705 949 654 981 q 788 863 756 917 q 837 745 821 810 q 853 617 853 681 q 829 447 853 535 q 762 278 806 360 q 658 129 718 196 q 526 24 599 63 q 372 -15 454 -15 m 363 24 q 459 65 415 24 q 538 176 503 107 q 600 328 574 244 q 644 497 626 411 q 672 658 663 583 q 681 782 681 732 q 656 904 681 867 q 589 942 632 942 q 494 899 538 942 q 416 786 451 857 q 353 630 381 715 q 307 458 325 544 q 279 297 289 372 q 269 174 269 222 q 283 80 269 113 q 317 35 296 47 q 363 24 339 24 z "},"1":{"ha":550,"x_min":-7,"x_max":531,"o":"m 142 0 l 347 981 l 531 981 l 319 0 l 142 0 m -7 0 l -7 42 l 506 42 l 506 0 l -7 0 m 161 939 l 161 981 l 507 981 l 507 939 l 161 939 z "},"2":{"ha":769,"x_min":7,"x_max":776,"o":"m 7 0 l 31 106 l 338 354 q 476 490 425 424 q 551 623 528 557 q 575 756 575 689 q 538 894 575 849 q 435 939 501 939 q 337 915 381 939 q 267 860 293 892 q 240 807 240 829 q 260 780 240 788 q 304 766 279 772 q 349 743 329 760 q 368 690 368 726 q 342 626 368 650 q 279 603 315 603 q 232 614 258 603 q 185 652 206 625 q 165 729 165 679 q 201 848 165 790 q 305 943 236 906 q 475 981 374 981 q 629 952 561 981 q 737 871 697 924 q 776 746 776 818 q 728 603 776 675 q 558 444 679 531 l 174 158 l 174 153 l 553 153 q 598 162 581 153 q 628 198 615 171 q 656 282 642 225 l 696 282 l 625 0 l 7 0 z "},"3":{"ha":771,"x_min":38,"x_max":753,"o":"m 299 -18 q 149 8 207 -18 q 65 73 92 33 q 38 157 38 113 q 61 232 38 201 q 129 263 85 263 q 188 242 164 263 q 211 186 211 221 q 198 146 211 160 q 168 124 185 132 q 138 108 151 115 q 125 88 125 101 q 149 54 125 69 q 208 30 172 39 q 282 21 244 21 q 382 44 339 21 q 453 109 425 68 q 497 204 482 150 q 511 318 511 258 q 469 460 511 418 q 344 501 428 501 q 319 498 329 501 q 300 492 310 494 q 276 489 290 489 q 244 498 254 489 q 235 521 235 507 q 247 545 235 536 q 272 554 258 554 q 306 550 283 554 q 353 546 328 546 q 451 574 410 546 q 522 645 493 601 q 564 738 550 689 q 578 828 578 788 q 546 920 578 890 q 451 950 514 950 q 367 933 400 950 q 333 889 333 915 q 344 864 333 874 q 365 844 354 854 q 375 810 375 833 q 353 756 375 778 q 296 733 331 733 q 242 753 267 733 q 218 814 218 772 q 253 903 218 864 q 351 965 289 942 q 489 988 414 988 q 635 960 576 988 q 723 887 693 932 q 753 790 753 842 q 680 639 753 710 q 469 529 607 568 l 469 522 q 586 492 531 522 q 678 408 642 461 q 714 289 714 356 q 683 176 714 231 q 597 77 653 121 q 465 8 540 33 q 299 -18 389 -18 z "},"4":{"ha":781,"x_min":22,"x_max":789,"o":"m 46 276 l 22 311 l 642 981 l 665 946 l 503 765 l 497 765 l 83 311 l 83 306 l 46 276 m 231 0 l 231 39 l 647 39 l 647 0 l 231 0 m 22 269 l 22 311 l 736 311 l 736 269 l 22 269 m 689 150 l 751 401 l 789 401 l 726 150 l 689 150 m 342 0 l 515 826 l 642 981 l 731 981 l 519 0 l 342 0 z "},"5":{"ha":821,"x_min":60,"x_max":846,"o":"m 319 -12 q 167 17 224 -12 q 85 90 110 47 q 60 171 60 132 q 72 226 60 199 q 106 269 83 253 q 161 286 129 286 q 226 263 200 286 q 251 201 251 240 q 240 158 251 175 q 211 129 228 140 q 183 109 194 118 q 171 90 171 100 q 206 50 171 75 q 304 25 240 25 q 422 60 375 25 q 497 147 469 94 q 538 257 525 200 q 550 358 550 314 q 526 470 550 431 q 461 526 501 510 q 372 542 421 542 q 285 531 332 542 q 194 501 239 521 l 174 522 l 304 981 l 656 981 q 730 985 704 981 q 771 1003 756 989 q 804 1047 786 1017 l 846 1047 l 743 828 l 310 828 l 235 571 l 240 565 q 333 588 292 581 q 418 594 375 594 q 599 561 522 594 q 718 471 676 528 q 760 339 760 414 q 726 209 760 272 q 631 96 692 146 q 492 17 571 46 q 319 -12 413 -12 z "},"6":{"ha":840,"x_min":89,"x_max":825,"o":"m 390 -18 q 228 24 296 -18 q 125 141 161 67 q 89 313 89 215 q 133 526 89 422 q 253 719 178 631 q 425 875 329 808 q 624 978 521 942 q 825 1015 726 1015 l 825 974 q 653 926 732 964 q 514 833 575 889 q 413 712 453 778 q 357 579 372 646 l 361 575 q 453 626 411 611 q 543 642 496 642 q 685 607 624 642 q 780 513 746 572 q 814 378 814 453 q 781 235 814 306 q 688 108 747 165 q 553 16 629 50 q 390 -18 476 -18 m 381 21 q 480 53 439 21 q 549 137 521 85 q 593 249 576 189 q 617 366 610 310 q 624 463 624 422 q 603 565 624 529 q 525 600 582 600 q 428 573 479 600 q 328 489 378 546 q 303 408 315 458 q 281 301 290 358 q 272 185 272 243 q 297 60 272 99 q 381 21 322 21 z "},"7":{"ha":711,"x_min":124,"x_max":856,"o":"m 322 -14 q 251 11 279 -14 q 224 96 224 36 q 231 142 224 118 q 259 203 238 165 q 324 304 281 242 q 439 464 367 367 l 703 824 l 703 829 l 339 829 q 267 820 296 829 q 217 785 239 811 q 172 706 194 760 l 124 706 l 257 981 l 856 981 l 851 939 l 549 525 q 476 410 500 461 q 442 319 451 358 q 433 249 433 279 q 439 178 433 211 q 444 117 444 146 q 412 22 444 57 q 322 -14 379 -14 z "},"8":{"ha":861,"x_min":67,"x_max":865,"o":"m 392 -18 q 221 14 294 -18 q 107 100 147 46 q 67 221 67 154 q 97 333 67 281 q 183 427 128 386 q 310 491 238 468 q 467 514 383 514 q 641 481 567 514 q 757 392 715 447 q 799 274 799 338 q 767 166 799 218 q 681 72 736 114 q 552 6 626 31 q 392 -18 478 -18 m 386 24 q 492 55 450 24 q 560 133 535 86 q 595 232 585 181 q 606 325 606 283 q 575 441 606 400 q 486 482 544 482 q 374 440 425 482 q 292 327 322 397 q 263 175 263 257 q 294 60 263 96 q 386 24 325 24 m 575 499 l 396 507 l 396 513 q 256 593 307 536 q 204 719 204 650 q 235 822 204 774 q 317 906 265 869 q 438 964 369 943 q 578 985 506 985 q 731 956 667 985 q 831 878 796 926 q 865 774 865 831 q 828 658 865 715 q 725 560 790 601 q 575 504 660 518 l 575 499 m 493 524 q 587 557 550 524 q 646 640 624 590 q 677 740 668 689 q 686 826 686 792 q 660 924 686 894 q 588 953 635 953 q 503 927 540 953 q 440 858 465 901 q 401 764 414 815 q 388 661 388 713 q 415 557 388 590 q 493 524 442 524 z "},"9":{"ha":840,"x_min":131,"x_max":867,"o":"m 131 -18 l 131 24 q 302 72 224 35 q 442 165 381 108 q 543 286 503 221 q 599 418 583 351 l 594 422 q 502 371 544 386 q 413 356 460 356 q 271 391 332 356 q 176 486 210 426 q 142 619 142 546 q 175 763 142 693 q 267 891 208 833 q 403 982 326 949 q 565 1015 479 1015 q 727 974 660 1015 q 831 858 794 932 q 867 686 867 783 q 822 472 867 575 q 702 279 778 368 q 531 124 626 190 q 332 19 435 57 q 131 -18 229 -18 m 431 397 q 528 425 478 397 q 628 508 578 453 q 653 590 640 540 q 675 697 667 639 q 683 814 683 756 q 658 938 683 899 q 575 978 633 978 q 476 945 517 978 q 407 861 435 913 q 363 749 379 810 q 339 633 346 689 q 332 535 332 576 q 353 433 332 469 q 431 397 375 397 z "},"A":{"ha":838,"x_min":-108,"x_max":769,"o":"m -26 28 l 692 1064 l 535 765 l 31 28 l -26 28 m -108 0 l -108 39 l 172 39 l 172 0 l -108 0 m 361 0 l 361 39 l 769 39 l 769 0 l 361 0 m 217 319 l 217 361 l 590 361 l 590 319 l 217 319 m 468 14 l 536 760 l 531 760 l 686 1064 l 736 1064 l 660 14 l 468 14 z "},"Á":{"ha":838,"x_min":-108,"x_max":971,"o":"m -26 28 l 692 1064 l 535 765 l 31 28 l -26 28 m -108 0 l -108 39 l 172 39 l 172 0 l -108 0 m 361 0 l 361 39 l 769 39 l 769 0 l 361 0 m 217 319 l 217 361 l 590 361 l 590 319 l 217 319 m 468 14 l 536 760 l 531 760 l 686 1064 l 736 1064 l 660 14 l 468 14 m 544 1172 l 786 1319 q 853 1356 828 1346 q 904 1367 879 1367 q 953 1349 936 1367 q 971 1306 971 1332 q 951 1257 971 1279 q 886 1226 931 1235 l 628 1172 l 544 1172 z "},"Ă":{"ha":838,"x_min":-108,"x_max":988,"o":"m -26 28 l 692 1064 l 535 765 l 31 28 l -26 28 m -108 0 l -108 39 l 172 39 l 172 0 l -108 0 m 361 0 l 361 39 l 769 39 l 769 0 l 361 0 m 217 319 l 217 361 l 590 361 l 590 319 l 217 319 m 468 14 l 536 760 l 531 760 l 686 1064 l 736 1064 l 660 14 l 468 14 m 738 1172 q 594 1221 643 1172 q 567 1360 546 1269 l 618 1360 q 631 1308 614 1326 q 681 1282 649 1289 q 753 1275 714 1275 q 838 1283 800 1275 q 903 1309 876 1290 q 938 1360 931 1328 l 989 1360 q 903 1222 971 1272 q 738 1172 835 1172 z "},"Ắ":{"ha":838,"x_min":-108,"x_max":1131,"o":"m -26 28 l 692 1064 l 535 765 l 31 28 l -26 28 m -108 0 l -108 39 l 172 39 l 172 0 l -108 0 m 361 0 l 361 39 l 769 39 l 769 0 l 361 0 m 217 319 l 217 361 l 590 361 l 590 319 l 217 319 m 468 14 l 536 760 l 531 760 l 686 1064 l 736 1064 l 660 14 l 468 14 m 744 1153 q 611 1196 654 1153 q 589 1326 568 1239 l 638 1326 q 649 1277 633 1293 q 694 1256 664 1261 q 760 1251 724 1251 q 840 1257 804 1251 q 899 1279 875 1263 q 929 1326 922 1296 l 978 1326 q 899 1197 961 1242 q 744 1153 838 1153 m 704 1367 l 946 1515 q 1015 1551 989 1540 q 1065 1563 1040 1563 q 1114 1545 1096 1563 q 1132 1501 1132 1528 q 1112 1453 1132 1475 q 1047 1421 1092 1431 l 789 1367 l 704 1367 z "},"Ặ":{"ha":838,"x_min":-108,"x_max":988,"o":"m -26 28 l 692 1064 l 535 765 l 31 28 l -26 28 m -108 0 l -108 39 l 172 39 l 172 0 l -108 0 m 361 0 l 361 39 l 769 39 l 769 0 l 361 0 m 217 319 l 217 361 l 590 361 l 590 319 l 217 319 m 468 14 l 536 760 l 531 760 l 686 1064 l 736 1064 l 660 14 l 468 14 m 300 -303 q 229 -272 260 -303 q 199 -201 199 -242 q 229 -127 199 -157 q 300 -97 260 -97 q 374 -127 344 -97 q 404 -201 404 -157 q 374 -272 404 -242 q 300 -303 344 -303 m 738 1172 q 594 1221 643 1172 q 567 1360 546 1269 l 618 1360 q 631 1308 614 1326 q 681 1282 649 1289 q 753 1275 714 1275 q 838 1283 800 1275 q 903 1309 876 1290 q 938 1360 931 1328 l 989 1360 q 903 1222 971 1272 q 738 1172 835 1172 z "},"Ằ":{"ha":838,"x_min":-108,"x_max":968,"o":"m -26 28 l 692 1064 l 535 765 l 31 28 l -26 28 m -108 0 l -108 39 l 172 39 l 172 0 l -108 0 m 361 0 l 361 39 l 769 39 l 769 0 l 361 0 m 217 319 l 217 361 l 590 361 l 590 319 l 217 319 m 468 14 l 536 760 l 531 760 l 686 1064 l 736 1064 l 660 14 l 468 14 m 736 1153 q 603 1196 646 1153 q 581 1326 560 1239 l 629 1326 q 640 1277 625 1293 q 685 1256 656 1261 q 751 1251 715 1251 q 831 1257 796 1251 q 890 1279 867 1263 q 921 1326 914 1296 l 969 1326 q 891 1197 953 1242 q 736 1153 829 1153 m 796 1371 l 543 1429 q 494 1455 510 1436 q 479 1496 479 1474 q 500 1545 479 1524 q 557 1567 521 1567 q 602 1556 581 1567 q 663 1519 624 1546 l 881 1371 l 796 1371 z "},"Ẳ":{"ha":838,"x_min":-108,"x_max":979,"o":"m -26 28 l 692 1064 l 535 765 l 31 28 l -26 28 m -108 0 l -108 39 l 172 39 l 172 0 l -108 0 m 361 0 l 361 39 l 769 39 l 769 0 l 361 0 m 217 319 l 217 361 l 590 361 l 590 319 l 217 319 m 468 14 l 536 760 l 531 760 l 686 1064 l 736 1064 l 660 14 l 468 14 m 747 1153 q 614 1196 657 1153 q 592 1326 571 1239 l 640 1326 q 651 1277 636 1293 q 697 1256 667 1261 q 763 1251 726 1251 q 842 1257 807 1251 q 901 1279 878 1263 q 932 1326 925 1296 l 981 1326 q 902 1197 964 1242 q 747 1153 840 1153 m 761 1332 q 788 1390 768 1369 q 825 1424 807 1410 q 846 1454 843 1438 q 839 1506 853 1492 q 799 1519 825 1519 q 756 1507 774 1519 q 735 1479 738 1494 q 738 1463 733 1467 q 747 1454 743 1460 q 749 1432 751 1449 q 731 1407 747 1415 q 693 1399 714 1399 q 656 1415 669 1399 q 647 1457 643 1432 q 708 1549 660 1522 q 810 1576 756 1576 q 910 1547 879 1576 q 929 1450 942 1517 q 907 1409 924 1424 q 869 1385 890 1394 q 831 1364 849 1375 q 807 1332 814 1353 l 761 1332 z "},"Ẵ":{"ha":838,"x_min":-108,"x_max":1092,"o":"m -26 28 l 692 1064 l 535 765 l 31 28 l -26 28 m -108 0 l -108 39 l 172 39 l 172 0 l -108 0 m 361 0 l 361 39 l 769 39 l 769 0 l 361 0 m 217 319 l 217 361 l 590 361 l 590 319 l 217 319 m 468 14 l 536 760 l 531 760 l 686 1064 l 736 1064 l 660 14 l 468 14 m 742 1153 q 608 1196 651 1153 q 585 1326 565 1239 l 633 1326 q 644 1277 629 1293 q 690 1256 660 1261 q 757 1251 719 1251 q 835 1257 800 1251 q 894 1279 871 1263 q 926 1326 918 1296 l 974 1326 q 897 1197 958 1242 q 742 1153 835 1153 m 565 1371 q 607 1461 581 1421 q 672 1526 633 1501 q 757 1550 710 1550 q 826 1534 799 1550 q 878 1502 853 1518 q 936 1486 903 1486 q 1004 1509 976 1486 q 1043 1553 1032 1532 l 1092 1553 q 1015 1419 1064 1467 q 899 1372 965 1372 q 828 1388 856 1372 q 777 1420 801 1404 q 717 1436 753 1436 q 653 1417 681 1436 q 611 1371 625 1399 l 565 1371 z "},"Â":{"ha":838,"x_min":-108,"x_max":983,"o":"m -26 28 l 692 1064 l 535 765 l 31 28 l -26 28 m -108 0 l -108 39 l 172 39 l 172 0 l -108 0 m 361 0 l 361 39 l 769 39 l 769 0 l 361 0 m 217 319 l 217 361 l 590 361 l 590 319 l 217 319 m 468 14 l 536 760 l 531 760 l 686 1064 l 736 1064 l 660 14 l 468 14 m 511 1171 l 746 1360 l 828 1360 l 983 1171 l 921 1171 l 763 1244 l 572 1171 l 511 1171 z "},"Ấ":{"ha":838,"x_min":-108,"x_max":986,"o":"m -26 28 l 692 1064 l 535 765 l 31 28 l -26 28 m -108 0 l -108 39 l 172 39 l 172 0 l -108 0 m 361 0 l 361 39 l 769 39 l 769 0 l 361 0 m 217 319 l 217 361 l 590 361 l 590 319 l 217 319 m 468 14 l 536 760 l 531 760 l 686 1064 l 736 1064 l 660 14 l 468 14 m 518 1150 l 717 1297 l 799 1297 l 949 1150 l 886 1150 l 749 1210 l 579 1150 l 518 1150 m 560 1343 l 801 1492 q 870 1528 844 1517 q 921 1539 896 1539 q 969 1522 951 1539 q 988 1478 988 1504 q 967 1429 988 1451 q 903 1397 947 1407 l 644 1343 l 560 1343 z "},"Ậ":{"ha":838,"x_min":-108,"x_max":983,"o":"m -26 28 l 692 1064 l 535 765 l 31 28 l -26 28 m -108 0 l -108 39 l 172 39 l 172 0 l -108 0 m 361 0 l 361 39 l 769 39 l 769 0 l 361 0 m 217 319 l 217 361 l 590 361 l 590 319 l 217 319 m 468 14 l 536 760 l 531 760 l 686 1064 l 736 1064 l 660 14 l 468 14 m 300 -303 q 229 -272 260 -303 q 199 -201 199 -242 q 229 -127 199 -157 q 300 -97 260 -97 q 374 -127 344 -97 q 404 -201 404 -157 q 374 -272 404 -242 q 300 -303 344 -303 m 511 1171 l 746 1360 l 828 1360 l 983 1171 l 921 1171 l 763 1244 l 572 1171 l 511 1171 z "},"Ầ":{"ha":838,"x_min":-108,"x_max":1003,"o":"m -26 28 l 692 1064 l 535 765 l 31 28 l -26 28 m -108 0 l -108 39 l 172 39 l 172 0 l -108 0 m 361 0 l 361 39 l 769 39 l 769 0 l 361 0 m 217 319 l 217 361 l 590 361 l 590 319 l 217 319 m 468 14 l 536 760 l 531 760 l 686 1064 l 736 1064 l 660 14 l 468 14 m 524 1150 l 722 1297 l 804 1297 l 954 1150 l 892 1150 l 754 1210 l 585 1150 l 524 1150 m 918 1347 l 665 1406 q 617 1431 632 1413 q 601 1472 601 1450 q 622 1522 601 1500 q 679 1543 643 1543 q 724 1533 703 1543 q 785 1496 746 1522 l 1003 1347 l 918 1347 z "},"Ẩ":{"ha":838,"x_min":-108,"x_max":1078,"o":"m -26 28 l 692 1064 l 535 765 l 31 28 l -26 28 m -108 0 l -108 39 l 172 39 l 172 0 l -108 0 m 361 0 l 361 39 l 769 39 l 769 0 l 361 0 m 217 319 l 217 361 l 590 361 l 590 319 l 217 319 m 468 14 l 536 760 l 531 760 l 686 1064 l 736 1064 l 660 14 l 468 14 m 517 1150 l 715 1297 l 797 1297 l 947 1150 l 885 1150 l 747 1210 l 578 1150 l 517 1150 m 896 1274 q 923 1331 904 1310 q 960 1365 942 1351 q 982 1396 979 1379 q 975 1446 989 1432 q 935 1460 961 1460 q 892 1448 910 1460 q 871 1421 874 1436 q 874 1404 869 1408 q 883 1394 878 1400 q 885 1374 888 1389 q 865 1349 882 1357 q 829 1340 849 1340 q 791 1356 804 1340 q 783 1399 778 1372 q 843 1490 796 1463 q 944 1518 890 1518 q 1046 1488 1014 1518 q 1064 1390 1078 1457 q 1043 1349 1060 1364 q 1006 1325 1026 1335 q 967 1304 985 1315 q 942 1274 949 1293 l 896 1274 z "},"Ẫ":{"ha":838,"x_min":-108,"x_max":1067,"o":"m -26 28 l 692 1064 l 535 765 l 31 28 l -26 28 m -108 0 l -108 39 l 172 39 l 172 0 l -108 0 m 361 0 l 361 39 l 769 39 l 769 0 l 361 0 m 217 319 l 217 361 l 590 361 l 590 319 l 217 319 m 468 14 l 536 760 l 531 760 l 686 1064 l 736 1064 l 660 14 l 468 14 m 517 1150 l 715 1297 l 797 1297 l 947 1150 l 885 1150 l 747 1210 l 578 1150 l 517 1150 m 540 1329 q 582 1419 556 1379 q 647 1484 608 1460 q 732 1508 685 1508 q 801 1492 774 1508 q 853 1460 828 1476 q 911 1444 878 1444 q 979 1467 951 1444 q 1018 1511 1007 1490 l 1067 1511 q 990 1378 1039 1425 q 874 1331 940 1331 q 803 1347 831 1331 q 752 1378 776 1363 q 692 1394 728 1394 q 628 1376 656 1394 q 586 1329 600 1357 l 540 1329 z "},"Ȁ":{"ha":838,"x_min":-108,"x_max":1049,"o":"m -26 28 l 692 1064 l 535 765 l 31 28 l -26 28 m -108 0 l -108 39 l 172 39 l 172 0 l -108 0 m 361 0 l 361 39 l 769 39 l 769 0 l 361 0 m 217 319 l 217 361 l 590 361 l 590 319 l 217 319 m 468 14 l 536 760 l 531 760 l 686 1064 l 736 1064 l 660 14 l 468 14 m 969 1171 l 749 1226 q 703 1252 718 1235 q 688 1290 688 1269 q 707 1338 688 1317 q 761 1358 726 1358 q 805 1349 783 1358 q 863 1314 826 1340 l 1050 1171 l 969 1171 m 667 1171 l 447 1226 q 400 1252 415 1235 q 385 1290 385 1269 q 405 1338 385 1317 q 458 1358 425 1358 q 503 1349 482 1358 q 560 1314 524 1340 l 747 1171 l 667 1171 z "},"Ä":{"ha":838,"x_min":-108,"x_max":996,"o":"m -26 28 l 692 1064 l 535 765 l 31 28 l -26 28 m -108 0 l -108 39 l 172 39 l 172 0 l -108 0 m 361 0 l 361 39 l 769 39 l 769 0 l 361 0 m 217 319 l 217 361 l 590 361 l 590 319 l 217 319 m 468 14 l 536 760 l 531 760 l 686 1064 l 736 1064 l 660 14 l 468 14 m 901 1183 q 835 1210 864 1183 q 807 1276 807 1238 q 835 1342 807 1315 q 901 1369 864 1369 q 969 1342 942 1369 q 996 1276 996 1315 q 969 1210 996 1238 q 901 1183 942 1183 m 606 1183 q 538 1210 565 1183 q 511 1276 511 1238 q 538 1342 511 1315 q 606 1369 565 1369 q 672 1342 644 1369 q 700 1276 700 1315 q 672 1210 700 1238 q 606 1183 644 1183 z "},"Ạ":{"ha":838,"x_min":-108,"x_max":769,"o":"m -26 28 l 692 1064 l 535 765 l 31 28 l -26 28 m -108 0 l -108 39 l 172 39 l 172 0 l -108 0 m 361 0 l 361 39 l 769 39 l 769 0 l 361 0 m 217 319 l 217 361 l 590 361 l 590 319 l 217 319 m 468 14 l 536 760 l 531 760 l 686 1064 l 736 1064 l 660 14 l 468 14 m 300 -303 q 229 -272 260 -303 q 199 -201 199 -242 q 229 -127 199 -157 q 300 -97 260 -97 q 374 -127 344 -97 q 404 -201 404 -157 q 374 -272 404 -242 q 300 -303 344 -303 z "},"À":{"ha":838,"x_min":-108,"x_max":944,"o":"m -26 28 l 692 1064 l 535 765 l 31 28 l -26 28 m -108 0 l -108 39 l 172 39 l 172 0 l -108 0 m 361 0 l 361 39 l 769 39 l 769 0 l 361 0 m 217 319 l 217 361 l 590 361 l 590 319 l 217 319 m 468 14 l 536 760 l 531 760 l 686 1064 l 736 1064 l 660 14 l 468 14 m 860 1171 l 607 1229 q 558 1255 574 1236 q 542 1296 542 1274 q 563 1345 542 1324 q 619 1367 583 1367 q 665 1356 643 1367 q 725 1319 686 1346 l 944 1171 l 860 1171 z "},"Ả":{"ha":838,"x_min":-108,"x_max":913,"o":"m -26 28 l 692 1064 l 535 765 l 31 28 l -26 28 m -108 0 l -108 39 l 172 39 l 172 0 l -108 0 m 361 0 l 361 39 l 769 39 l 769 0 l 361 0 m 217 319 l 217 361 l 590 361 l 590 319 l 217 319 m 468 14 l 536 760 l 531 760 l 686 1064 l 736 1064 l 660 14 l 468 14 m 740 1143 q 759 1188 746 1171 q 787 1219 772 1206 q 813 1245 801 1233 q 825 1272 824 1257 q 817 1317 829 1304 q 778 1329 804 1329 q 735 1317 753 1329 q 714 1290 717 1306 q 717 1274 713 1278 q 726 1264 722 1269 q 728 1243 731 1258 q 710 1218 726 1226 q 672 1210 693 1210 q 637 1225 649 1210 q 626 1263 625 1240 q 656 1335 631 1308 q 717 1375 681 1363 q 789 1388 753 1388 q 884 1360 854 1388 q 908 1278 914 1332 q 890 1233 906 1250 q 852 1202 874 1215 q 812 1176 831 1189 q 786 1143 793 1163 l 740 1143 z "},"Ȃ":{"ha":838,"x_min":-108,"x_max":951,"o":"m -26 28 l 692 1064 l 535 765 l 31 28 l -26 28 m -108 0 l -108 39 l 172 39 l 172 0 l -108 0 m 361 0 l 361 39 l 769 39 l 769 0 l 361 0 m 217 319 l 217 361 l 590 361 l 590 319 l 217 319 m 468 14 l 536 760 l 531 760 l 686 1064 l 736 1064 l 660 14 l 468 14 m 524 1171 q 606 1313 540 1258 q 771 1367 672 1367 q 903 1328 856 1367 q 951 1224 951 1290 q 944 1171 951 1200 l 894 1171 q 862 1243 900 1222 q 758 1264 824 1264 q 635 1242 685 1264 q 574 1171 586 1219 l 524 1171 z "},"Ā":{"ha":838,"x_min":-108,"x_max":1013,"o":"m -26 28 l 692 1064 l 535 765 l 31 28 l -26 28 m -108 0 l -108 39 l 172 39 l 172 0 l -108 0 m 361 0 l 361 39 l 769 39 l 769 0 l 361 0 m 217 319 l 217 361 l 590 361 l 590 319 l 217 319 m 468 14 l 536 760 l 531 760 l 686 1064 l 736 1064 l 660 14 l 468 14 m 531 1200 l 554 1306 l 1013 1306 l 989 1200 l 531 1200 z "},"Ą":{"ha":838,"x_min":-108,"x_max":769,"o":"m -26 28 l 692 1064 l 535 765 l 31 28 l -26 28 m -108 0 l -108 39 l 172 39 l 172 0 l -108 0 m 361 0 l 361 39 l 769 39 l 769 0 l 361 0 m 217 319 l 217 361 l 590 361 l 590 319 l 217 319 m 468 14 l 536 760 l 531 760 l 686 1064 l 736 1064 l 660 14 l 468 14 m 472 -333 q 388 -309 419 -333 q 357 -244 357 -285 q 424 -119 357 -185 q 619 13 490 -54 l 676 8 q 532 -101 585 -43 q 479 -207 479 -158 q 496 -248 479 -233 q 540 -262 513 -262 q 581 -256 558 -262 q 632 -233 603 -249 l 651 -267 q 572 -314 622 -294 q 472 -333 521 -333 z "},"Å":{"ha":838,"x_min":-108,"x_max":851,"o":"m -26 28 l 692 1064 l 535 765 l 31 28 l -26 28 m -108 0 l -108 39 l 172 39 l 172 0 l -108 0 m 361 0 l 361 39 l 769 39 l 769 0 l 361 0 m 217 319 l 217 361 l 590 361 l 590 319 l 217 319 m 468 14 l 536 760 l 531 760 l 686 1064 l 736 1064 l 660 14 l 468 14 m 753 1161 q 680 1190 708 1161 q 651 1263 651 1218 q 680 1334 651 1307 q 753 1361 708 1361 q 824 1334 796 1361 q 853 1263 853 1307 q 825 1190 853 1218 q 753 1161 797 1161 m 753 1206 q 791 1221 776 1206 q 806 1261 806 1236 q 791 1301 806 1286 q 753 1317 776 1317 q 714 1301 729 1317 q 699 1261 699 1286 q 714 1221 699 1236 q 753 1206 729 1206 z "},"Ǻ":{"ha":838,"x_min":-108,"x_max":1178,"o":"m -26 28 l 692 1064 l 535 765 l 31 28 l -26 28 m -108 0 l -108 39 l 172 39 l 172 0 l -108 0 m 361 0 l 361 39 l 769 39 l 769 0 l 361 0 m 217 319 l 217 361 l 590 361 l 590 319 l 217 319 m 468 14 l 536 760 l 531 760 l 686 1064 l 736 1064 l 660 14 l 468 14 m 722 1039 q 649 1067 678 1039 q 621 1140 621 1096 q 649 1212 621 1185 q 722 1239 678 1239 q 794 1212 765 1239 q 822 1140 822 1185 q 794 1067 822 1096 q 722 1039 767 1039 m 722 1083 q 760 1099 746 1083 q 775 1139 775 1114 q 760 1179 775 1164 q 722 1194 746 1194 q 683 1179 699 1194 q 668 1139 668 1164 q 683 1099 668 1114 q 722 1083 699 1083 m 751 1196 l 993 1343 q 1060 1380 1035 1369 q 1111 1390 1086 1390 q 1160 1373 1143 1390 q 1178 1329 1178 1356 q 1158 1281 1178 1303 q 1093 1250 1138 1258 l 835 1196 l 751 1196 z "},"Ã":{"ha":838,"x_min":-108,"x_max":1032,"o":"m -26 28 l 692 1064 l 535 765 l 31 28 l -26 28 m -108 0 l -108 39 l 172 39 l 172 0 l -108 0 m 361 0 l 361 39 l 769 39 l 769 0 l 361 0 m 217 319 l 217 361 l 590 361 l 590 319 l 217 319 m 468 14 l 536 760 l 531 760 l 686 1064 l 736 1064 l 660 14 l 468 14 m 507 1171 q 548 1260 521 1219 q 613 1326 575 1301 q 697 1350 651 1350 q 767 1334 740 1350 q 818 1302 793 1318 q 876 1286 843 1286 q 944 1309 917 1286 q 985 1353 972 1332 l 1033 1353 q 956 1219 1006 1265 q 840 1172 906 1172 q 769 1188 797 1172 q 717 1220 742 1204 q 658 1236 693 1236 q 594 1217 622 1236 q 553 1171 565 1199 l 507 1171 z "},"Æ":{"ha":1350,"x_min":-149,"x_max":1382,"o":"m -67 28 l 667 1029 l 714 1019 l -10 28 l -67 28 m -149 0 l -149 39 l 132 39 l 132 0 l -149 0 m 190 319 l 190 361 l 592 361 l 592 319 l 190 319 m 376 0 l 376 39 l 929 39 q 1043 62 992 39 q 1143 146 1094 85 q 1244 322 1192 207 l 1293 322 l 1210 0 l 376 0 m 507 0 l 735 1047 l 921 1047 l 688 0 l 507 0 m 992 315 q 978 446 992 401 q 935 506 965 490 q 856 522 906 522 l 735 522 l 735 561 l 878 561 q 967 578 929 561 q 1032 634 1004 594 q 1081 743 1060 674 l 1122 743 l 1036 315 l 992 315 m 1289 765 q 1270 915 1289 863 q 1201 989 1251 968 q 1058 1010 1151 1010 l 510 1010 l 510 1047 l 1382 1047 l 1338 765 l 1289 765 z "},"Ǽ":{"ha":1350,"x_min":-149,"x_max":1382,"o":"m -67 28 l 667 1029 l 714 1019 l -10 28 l -67 28 m -149 0 l -149 39 l 132 39 l 132 0 l -149 0 m 190 319 l 190 361 l 592 361 l 592 319 l 190 319 m 376 0 l 376 39 l 929 39 q 1043 62 992 39 q 1143 146 1094 85 q 1244 322 1192 207 l 1293 322 l 1210 0 l 376 0 m 507 0 l 735 1047 l 921 1047 l 688 0 l 507 0 m 992 315 q 978 446 992 401 q 935 506 965 490 q 856 522 906 522 l 735 522 l 735 561 l 878 561 q 967 578 929 561 q 1032 634 1004 594 q 1081 743 1060 674 l 1122 743 l 1036 315 l 992 315 m 1289 765 q 1270 915 1289 863 q 1201 989 1251 968 q 1058 1010 1151 1010 l 510 1010 l 510 1047 l 1382 1047 l 1338 765 l 1289 765 m 810 1151 l 1051 1299 q 1119 1335 1093 1325 q 1169 1346 1144 1346 q 1219 1328 1201 1346 q 1236 1285 1236 1311 q 1216 1236 1236 1258 q 1151 1206 1196 1214 l 893 1151 l 810 1151 z "},"B":{"ha":950,"x_min":-24,"x_max":947,"o":"m -24 0 l -24 39 l 443 39 q 563 74 510 39 q 646 177 615 110 q 676 342 676 244 q 642 480 676 433 q 526 526 607 526 l 299 526 l 299 565 l 524 565 q 583 558 549 565 q 653 542 618 551 q 783 491 731 526 q 860 405 835 456 q 886 293 886 354 q 840 140 886 206 q 710 37 793 74 q 517 0 626 0 l -24 0 m 90 0 l 318 1047 l 504 1047 l 271 0 l 90 0 m 256 526 l 256 564 l 526 564 q 644 600 596 564 q 719 701 693 636 q 744 850 744 765 q 712 971 744 932 q 585 1010 679 1010 l 176 1010 l 176 1047 l 593 1047 q 860 982 774 1047 q 947 813 947 917 q 890 662 947 726 q 725 562 832 597 q 468 526 618 526 l 256 526 z "},"C":{"ha":954,"x_min":100,"x_max":1000,"o":"m 481 -18 q 273 40 358 -18 q 144 192 188 97 q 100 397 100 288 q 132 589 100 493 q 222 769 164 685 q 354 920 279 854 q 516 1024 429 986 q 693 1063 603 1063 q 801 1043 754 1063 q 894 979 849 1024 l 958 1047 l 1000 1047 l 935 738 l 897 738 q 869 889 897 826 q 792 985 840 951 q 683 1019 743 1019 q 569 983 621 1019 q 478 886 518 947 q 408 748 438 825 q 358 588 378 671 q 328 427 338 506 q 318 283 318 349 q 364 85 318 140 q 494 31 410 31 q 606 51 546 31 q 731 128 667 72 q 857 286 796 183 l 896 286 l 822 0 l 783 0 l 742 58 q 620 3 685 25 q 481 -18 556 -18 z "},"Ć":{"ha":954,"x_min":100,"x_max":1000,"o":"m 481 -18 q 273 40 358 -18 q 144 192 188 97 q 100 397 100 288 q 132 589 100 493 q 222 769 164 685 q 354 920 279 854 q 516 1024 429 986 q 693 1063 603 1063 q 801 1043 754 1063 q 894 979 849 1024 l 958 1047 l 1000 1047 l 935 738 l 897 738 q 869 889 897 826 q 792 985 840 951 q 683 1019 743 1019 q 569 983 621 1019 q 478 886 518 947 q 408 748 438 825 q 358 588 378 671 q 328 427 338 506 q 318 283 318 349 q 364 85 318 140 q 494 31 410 31 q 606 51 546 31 q 731 128 667 72 q 857 286 796 183 l 896 286 l 822 0 l 783 0 l 742 58 q 620 3 685 25 q 481 -18 556 -18 m 529 1172 l 771 1319 q 838 1356 813 1346 q 889 1367 864 1367 q 938 1349 921 1367 q 956 1306 956 1332 q 935 1257 956 1279 q 871 1226 915 1235 l 613 1172 l 529 1172 z "},"Č":{"ha":954,"x_min":100,"x_max":1000,"o":"m 481 -18 q 273 40 358 -18 q 144 192 188 97 q 100 397 100 288 q 132 589 100 493 q 222 769 164 685 q 354 920 279 854 q 516 1024 429 986 q 693 1063 603 1063 q 801 1043 754 1063 q 894 979 849 1024 l 958 1047 l 1000 1047 l 935 738 l 897 738 q 869 889 897 826 q 792 985 840 951 q 683 1019 743 1019 q 569 983 621 1019 q 478 886 518 947 q 408 748 438 825 q 358 588 378 671 q 328 427 338 506 q 318 283 318 349 q 364 85 318 140 q 494 31 410 31 q 606 51 546 31 q 731 128 667 72 q 857 286 796 183 l 896 286 l 822 0 l 783 0 l 742 58 q 620 3 685 25 q 481 -18 556 -18 m 682 1171 l 525 1360 l 588 1360 l 746 1286 l 936 1360 l 999 1360 l 764 1171 l 682 1171 z "},"Ç":{"ha":954,"x_min":100,"x_max":1000,"o":"m 481 -18 q 273 40 358 -18 q 144 192 188 97 q 100 397 100 288 q 132 589 100 493 q 222 769 164 685 q 354 920 279 854 q 516 1024 429 986 q 693 1063 603 1063 q 801 1043 754 1063 q 894 979 849 1024 l 958 1047 l 1000 1047 l 935 738 l 897 738 q 869 889 897 826 q 792 985 840 951 q 683 1019 743 1019 q 569 983 621 1019 q 478 886 518 947 q 408 748 438 825 q 358 588 378 671 q 328 427 338 506 q 318 283 318 349 q 364 85 318 140 q 494 31 410 31 q 606 51 546 31 q 731 128 667 72 q 857 286 796 183 l 896 286 l 822 0 l 783 0 l 742 58 q 620 3 685 25 q 481 -18 556 -18 m 385 -319 q 317 -311 343 -319 q 279 -296 290 -303 l 303 -251 q 333 -262 311 -257 q 378 -267 356 -267 q 450 -248 421 -267 q 479 -193 479 -229 q 459 -149 479 -165 q 388 -132 439 -133 l 474 14 l 528 14 l 468 -92 l 494 -92 q 578 -116 549 -92 q 608 -181 608 -140 q 572 -259 608 -228 q 485 -305 536 -290 q 385 -319 433 -319 z "},"Ĉ":{"ha":954,"x_min":100,"x_max":1000,"o":"m 481 -18 q 273 40 358 -18 q 144 192 188 97 q 100 397 100 288 q 132 589 100 493 q 222 769 164 685 q 354 920 279 854 q 516 1024 429 986 q 693 1063 603 1063 q 801 1043 754 1063 q 894 979 849 1024 l 958 1047 l 1000 1047 l 935 738 l 897 738 q 869 889 897 826 q 792 985 840 951 q 683 1019 743 1019 q 569 983 621 1019 q 478 886 518 947 q 408 748 438 825 q 358 588 378 671 q 328 427 338 506 q 318 283 318 349 q 364 85 318 140 q 494 31 410 31 q 606 51 546 31 q 731 128 667 72 q 857 286 796 183 l 896 286 l 822 0 l 783 0 l 742 58 q 620 3 685 25 q 481 -18 556 -18 m 496 1171 l 731 1360 l 813 1360 l 968 1171 l 906 1171 l 747 1244 l 557 1171 l 496 1171 z "},"Ċ":{"ha":954,"x_min":100,"x_max":1000,"o":"m 481 -18 q 273 40 358 -18 q 144 192 188 97 q 100 397 100 288 q 132 589 100 493 q 222 769 164 685 q 354 920 279 854 q 516 1024 429 986 q 693 1063 603 1063 q 801 1043 754 1063 q 894 979 849 1024 l 958 1047 l 1000 1047 l 935 738 l 897 738 q 869 889 897 826 q 792 985 840 951 q 683 1019 743 1019 q 569 983 621 1019 q 478 886 518 947 q 408 748 438 825 q 358 588 378 671 q 328 427 338 506 q 318 283 318 349 q 364 85 318 140 q 494 31 410 31 q 606 51 546 31 q 731 128 667 72 q 857 286 796 183 l 896 286 l 822 0 l 783 0 l 742 58 q 620 3 685 25 q 481 -18 556 -18 m 719 1153 q 649 1183 679 1153 q 618 1254 618 1213 q 649 1328 618 1297 q 719 1358 679 1358 q 794 1328 764 1358 q 824 1254 824 1297 q 794 1183 824 1213 q 719 1153 764 1153 z "},"D":{"ha":1065,"x_min":-37,"x_max":1038,"o":"m -37 0 l -37 42 l 414 42 q 586 88 508 42 q 720 223 664 135 q 808 433 776 311 q 839 706 839 556 q 827 836 839 779 q 787 931 815 893 q 709 990 758 969 q 588 1010 660 1010 l 165 1010 l 165 1047 l 592 1047 q 835 994 736 1047 q 986 843 935 942 q 1038 608 1038 744 q 994 374 1038 485 q 870 180 950 264 q 681 48 790 96 q 443 0 572 0 l -37 0 m 83 0 l 311 1047 l 497 1047 l 264 0 l 83 0 z "},"Ǳ":{"ha":1981,"x_min":-37,"x_max":2053,"o":"m -37 0 l -37 42 l 414 42 q 586 88 508 42 q 720 223 664 135 q 808 433 776 311 q 839 706 839 556 q 827 836 839 779 q 787 931 815 893 q 709 990 758 969 q 588 1010 660 1010 l 165 1010 l 165 1047 l 592 1047 q 835 994 736 1047 q 986 843 935 942 q 1038 608 1038 744 q 994 374 1038 485 q 870 180 950 264 q 681 48 790 96 q 443 0 572 0 l -37 0 m 83 0 l 311 1047 l 497 1047 l 264 0 l 83 0 m 1071 39 l 1829 1004 l 1829 1010 l 2053 1010 l 1301 44 l 1301 39 l 1071 39 m 1071 0 l 1071 39 l 1553 39 q 1667 62 1615 39 q 1767 146 1718 85 q 1868 322 1815 207 l 1917 322 l 1833 0 l 1071 0 m 1271 747 l 1356 1047 l 2053 1047 l 2053 1010 l 1621 1010 q 1511 985 1564 1010 q 1410 903 1458 960 q 1317 747 1361 846 l 1271 747 z "},"Ǆ":{"ha":1981,"x_min":-37,"x_max":2053,"o":"m -37 0 l -37 42 l 414 42 q 586 88 508 42 q 720 223 664 135 q 808 433 776 311 q 839 706 839 556 q 827 836 839 779 q 787 931 815 893 q 709 990 758 969 q 588 1010 660 1010 l 165 1010 l 165 1047 l 592 1047 q 835 994 736 1047 q 986 843 935 942 q 1038 608 1038 744 q 994 374 1038 485 q 870 180 950 264 q 681 48 790 96 q 443 0 572 0 l -37 0 m 83 0 l 311 1047 l 497 1047 l 264 0 l 83 0 m 1071 39 l 1829 1004 l 1829 1010 l 2053 1010 l 1301 44 l 1301 39 l 1071 39 m 1071 0 l 1071 39 l 1553 39 q 1667 62 1615 39 q 1767 146 1718 85 q 1868 322 1815 207 l 1917 322 l 1833 0 l 1071 0 m 1271 747 l 1356 1047 l 2053 1047 l 2053 1010 l 1621 1010 q 1511 985 1564 1010 q 1410 903 1458 960 q 1317 747 1361 846 l 1271 747 m 1672 1171 l 1515 1360 l 1578 1360 l 1736 1286 l 1926 1360 l 1989 1360 l 1754 1171 l 1672 1171 z "},"Ð":{"ha":1065,"x_min":-37,"x_max":1038,"o":"m -37 0 l -37 42 l 414 42 q 586 88 508 42 q 720 223 664 135 q 808 433 776 311 q 839 706 839 556 q 827 836 839 779 q 787 931 815 893 q 709 990 758 969 q 588 1010 660 1010 l 165 1010 l 165 1047 l 592 1047 q 835 994 736 1047 q 986 843 935 942 q 1038 608 1038 744 q 994 374 1038 485 q 870 180 950 264 q 681 48 790 96 q 443 0 572 0 l -37 0 m 83 0 l 311 1047 l 497 1047 l 264 0 l 83 0 m 38 507 l 38 558 l 544 558 l 544 507 l 38 507 z "},"Ď":{"ha":1065,"x_min":-37,"x_max":1038,"o":"m -37 0 l -37 42 l 414 42 q 586 88 508 42 q 720 223 664 135 q 808 433 776 311 q 839 706 839 556 q 827 836 839 779 q 787 931 815 893 q 709 990 758 969 q 588 1010 660 1010 l 165 1010 l 165 1047 l 592 1047 q 835 994 736 1047 q 986 843 935 942 q 1038 608 1038 744 q 994 374 1038 485 q 870 180 950 264 q 681 48 790 96 q 443 0 572 0 l -37 0 m 83 0 l 311 1047 l 497 1047 l 264 0 l 83 0 m 682 1171 l 525 1360 l 588 1360 l 746 1286 l 936 1360 l 999 1360 l 764 1171 l 682 1171 z "},"Đ":{"ha":1065,"x_min":-37,"x_max":1038,"o":"m -37 0 l -37 42 l 414 42 q 586 88 508 42 q 720 223 664 135 q 808 433 776 311 q 839 706 839 556 q 827 836 839 779 q 787 931 815 893 q 709 990 758 969 q 588 1010 660 1010 l 165 1010 l 165 1047 l 592 1047 q 835 994 736 1047 q 986 843 935 942 q 1038 608 1038 744 q 994 374 1038 485 q 870 180 950 264 q 681 48 790 96 q 443 0 572 0 l -37 0 m 83 0 l 311 1047 l 497 1047 l 264 0 l 83 0 m 38 507 l 38 558 l 544 558 l 544 507 l 38 507 z "},"Ḍ":{"ha":1065,"x_min":-37,"x_max":1038,"o":"m -37 0 l -37 42 l 414 42 q 586 88 508 42 q 720 223 664 135 q 808 433 776 311 q 839 706 839 556 q 827 836 839 779 q 787 931 815 893 q 709 990 758 969 q 588 1010 660 1010 l 165 1010 l 165 1047 l 592 1047 q 835 994 736 1047 q 986 843 935 942 q 1038 608 1038 744 q 994 374 1038 485 q 870 180 950 264 q 681 48 790 96 q 443 0 572 0 l -37 0 m 83 0 l 311 1047 l 497 1047 l 264 0 l 83 0 m 413 -303 q 342 -272 372 -303 q 311 -201 311 -242 q 342 -127 311 -157 q 413 -97 372 -97 q 487 -127 457 -97 q 517 -201 517 -157 q 487 -272 517 -242 q 413 -303 457 -303 z "},"ǲ":{"ha":1738,"x_min":-37,"x_max":1722,"o":"m -37 0 l -37 42 l 414 42 q 586 88 508 42 q 720 223 664 135 q 808 433 776 311 q 839 706 839 556 q 827 836 839 779 q 787 931 815 893 q 709 990 758 969 q 588 1010 660 1010 l 165 1010 l 165 1047 l 592 1047 q 835 994 736 1047 q 986 843 935 942 q 1038 608 1038 744 q 994 374 1038 485 q 870 180 950 264 q 681 48 790 96 q 443 0 572 0 l -37 0 m 83 0 l 311 1047 l 497 1047 l 264 0 l 83 0 m 1125 -14 q 1094 -2 1104 -14 q 1083 28 1083 10 q 1102 75 1083 47 q 1181 156 1121 103 l 1538 478 l 1535 482 q 1433 461 1482 468 q 1347 454 1385 454 q 1288 458 1315 454 q 1229 472 1260 461 l 1179 375 l 1149 388 l 1260 625 l 1288 625 q 1378 601 1336 611 q 1460 586 1419 592 q 1542 578 1500 581 q 1635 576 1585 576 q 1651 586 1647 576 q 1656 608 1654 596 q 1665 629 1658 619 q 1692 639 1672 639 q 1722 613 1722 639 q 1713 587 1722 601 q 1672 543 1704 572 l 1268 182 l 1268 176 q 1378 168 1331 176 q 1462 149 1426 160 q 1524 129 1497 138 q 1572 121 1551 121 q 1613 136 1601 121 q 1625 164 1625 151 q 1612 182 1625 178 q 1582 190 1599 186 q 1552 203 1565 193 q 1539 238 1539 214 q 1558 281 1539 267 q 1597 294 1576 294 q 1648 267 1631 294 q 1665 196 1665 239 q 1637 93 1665 142 q 1560 13 1608 44 q 1451 -18 1513 -18 q 1349 3 1397 -18 q 1258 44 1300 24 q 1181 65 1215 65 q 1160 53 1161 65 q 1162 26 1158 42 q 1160 -2 1165 10 q 1125 -14 1156 -14 z "},"ǅ":{"ha":1738,"x_min":-37,"x_max":1799,"o":"m -37 0 l -37 42 l 414 42 q 586 88 508 42 q 720 223 664 135 q 808 433 776 311 q 839 706 839 556 q 827 836 839 779 q 787 931 815 893 q 709 990 758 969 q 588 1010 660 1010 l 165 1010 l 165 1047 l 592 1047 q 835 994 736 1047 q 986 843 935 942 q 1038 608 1038 744 q 994 374 1038 485 q 870 180 950 264 q 681 48 790 96 q 443 0 572 0 l -37 0 m 83 0 l 311 1047 l 497 1047 l 264 0 l 83 0 m 1125 -14 q 1094 -2 1104 -14 q 1083 28 1083 10 q 1102 75 1083 47 q 1181 156 1121 103 l 1538 478 l 1535 482 q 1433 461 1482 468 q 1347 454 1385 454 q 1288 458 1315 454 q 1229 472 1260 461 l 1179 375 l 1149 388 l 1260 625 l 1288 625 q 1378 601 1336 611 q 1460 586 1419 592 q 1542 578 1500 581 q 1635 576 1585 576 q 1651 586 1647 576 q 1656 608 1654 596 q 1665 629 1658 619 q 1692 639 1672 639 q 1722 613 1722 639 q 1713 587 1722 601 q 1672 543 1704 572 l 1268 182 l 1268 176 q 1378 168 1331 176 q 1462 149 1426 160 q 1524 129 1497 138 q 1572 121 1551 121 q 1613 136 1601 121 q 1625 164 1625 151 q 1612 182 1625 178 q 1582 190 1599 186 q 1552 203 1565 193 q 1539 238 1539 214 q 1558 281 1539 267 q 1597 294 1576 294 q 1648 267 1631 294 q 1665 196 1665 239 q 1637 93 1665 142 q 1560 13 1608 44 q 1451 -18 1513 -18 q 1349 3 1397 -18 q 1258 44 1300 24 q 1181 65 1215 65 q 1160 53 1161 65 q 1162 26 1158 42 q 1160 -2 1165 10 q 1125 -14 1156 -14 m 1457 728 l 1321 1006 l 1381 1006 l 1531 872 l 1739 1006 l 1799 1006 l 1543 728 l 1457 728 z "},"E":{"ha":939,"x_min":-35,"x_max":971,"o":"m 96 0 l 324 1047 l 510 1047 l 276 0 l 96 0 m -35 0 l -35 39 l 518 39 q 632 62 581 39 q 732 146 683 85 q 833 322 781 207 l 882 322 l 799 0 l -35 0 m 581 315 q 567 446 581 401 q 524 506 554 490 q 444 522 494 522 l 324 522 l 324 561 l 467 561 q 556 578 518 561 q 621 634 593 594 q 669 743 649 674 l 711 743 l 625 315 l 581 315 m 878 765 q 859 915 878 863 q 790 989 840 968 q 647 1010 740 1010 l 168 1010 l 168 1047 l 971 1047 l 926 765 l 878 765 z "},"É":{"ha":939,"x_min":-35,"x_max":971,"o":"m 96 0 l 324 1047 l 510 1047 l 276 0 l 96 0 m -35 0 l -35 39 l 518 39 q 632 62 581 39 q 732 146 683 85 q 833 322 781 207 l 882 322 l 799 0 l -35 0 m 581 315 q 567 446 581 401 q 524 506 554 490 q 444 522 494 522 l 324 522 l 324 561 l 467 561 q 556 578 518 561 q 621 634 593 594 q 669 743 649 674 l 711 743 l 625 315 l 581 315 m 878 765 q 859 915 878 863 q 790 989 840 968 q 647 1010 740 1010 l 168 1010 l 168 1047 l 971 1047 l 926 765 l 878 765 m 442 1172 l 683 1319 q 751 1356 725 1346 q 801 1367 776 1367 q 851 1349 833 1367 q 868 1306 868 1332 q 848 1257 868 1279 q 783 1226 828 1235 l 525 1172 l 442 1172 z "},"Ĕ":{"ha":939,"x_min":-35,"x_max":971,"o":"m 96 0 l 324 1047 l 510 1047 l 276 0 l 96 0 m -35 0 l -35 39 l 518 39 q 632 62 581 39 q 732 146 683 85 q 833 322 781 207 l 882 322 l 799 0 l -35 0 m 581 315 q 567 446 581 401 q 524 506 554 490 q 444 522 494 522 l 324 522 l 324 561 l 467 561 q 556 578 518 561 q 621 634 593 594 q 669 743 649 674 l 711 743 l 625 315 l 581 315 m 878 765 q 859 915 878 863 q 790 989 840 968 q 647 1010 740 1010 l 168 1010 l 168 1047 l 971 1047 l 926 765 l 878 765 m 635 1172 q 492 1221 540 1172 q 464 1360 443 1269 l 515 1360 q 528 1308 511 1326 q 578 1282 546 1289 q 650 1275 611 1275 q 735 1283 697 1275 q 801 1309 774 1290 q 835 1360 828 1328 l 886 1360 q 800 1222 868 1272 q 635 1172 732 1172 z "},"Ě":{"ha":939,"x_min":-35,"x_max":971,"o":"m 96 0 l 324 1047 l 510 1047 l 276 0 l 96 0 m -35 0 l -35 39 l 518 39 q 632 62 581 39 q 732 146 683 85 q 833 322 781 207 l 882 322 l 799 0 l -35 0 m 581 315 q 567 446 581 401 q 524 506 554 490 q 444 522 494 522 l 324 522 l 324 561 l 467 561 q 556 578 518 561 q 621 634 593 594 q 669 743 649 674 l 711 743 l 625 315 l 581 315 m 878 765 q 859 915 878 863 q 790 989 840 968 q 647 1010 740 1010 l 168 1010 l 168 1047 l 971 1047 l 926 765 l 878 765 m 594 1171 l 438 1360 l 500 1360 l 658 1286 l 849 1360 l 911 1360 l 676 1171 l 594 1171 z "},"Ê":{"ha":939,"x_min":-35,"x_max":971,"o":"m 96 0 l 324 1047 l 510 1047 l 276 0 l 96 0 m -35 0 l -35 39 l 518 39 q 632 62 581 39 q 732 146 683 85 q 833 322 781 207 l 882 322 l 799 0 l -35 0 m 581 315 q 567 446 581 401 q 524 506 554 490 q 444 522 494 522 l 324 522 l 324 561 l 467 561 q 556 578 518 561 q 621 634 593 594 q 669 743 649 674 l 711 743 l 625 315 l 581 315 m 878 765 q 859 915 878 863 q 790 989 840 968 q 647 1010 740 1010 l 168 1010 l 168 1047 l 971 1047 l 926 765 l 878 765 m 408 1171 l 643 1360 l 725 1360 l 881 1171 l 818 1171 l 660 1244 l 469 1171 l 408 1171 z "},"Ế":{"ha":939,"x_min":-35,"x_max":971,"o":"m 96 0 l 324 1047 l 510 1047 l 276 0 l 96 0 m -35 0 l -35 39 l 518 39 q 632 62 581 39 q 732 146 683 85 q 833 322 781 207 l 882 322 l 799 0 l -35 0 m 581 315 q 567 446 581 401 q 524 506 554 490 q 444 522 494 522 l 324 522 l 324 561 l 467 561 q 556 578 518 561 q 621 634 593 594 q 669 743 649 674 l 711 743 l 625 315 l 581 315 m 878 765 q 859 915 878 863 q 790 989 840 968 q 647 1010 740 1010 l 168 1010 l 168 1047 l 971 1047 l 926 765 l 878 765 m 415 1150 l 614 1297 l 696 1297 l 846 1150 l 783 1150 l 646 1210 l 476 1150 l 415 1150 m 457 1343 l 699 1492 q 767 1528 742 1517 q 818 1539 793 1539 q 867 1522 849 1539 q 885 1478 885 1504 q 865 1429 885 1451 q 800 1397 844 1407 l 542 1343 l 457 1343 z "},"Ệ":{"ha":939,"x_min":-35,"x_max":971,"o":"m 96 0 l 324 1047 l 510 1047 l 276 0 l 96 0 m -35 0 l -35 39 l 518 39 q 632 62 581 39 q 732 146 683 85 q 833 322 781 207 l 882 322 l 799 0 l -35 0 m 581 315 q 567 446 581 401 q 524 506 554 490 q 444 522 494 522 l 324 522 l 324 561 l 467 561 q 556 578 518 561 q 621 634 593 594 q 669 743 649 674 l 711 743 l 625 315 l 581 315 m 878 765 q 859 915 878 863 q 790 989 840 968 q 647 1010 740 1010 l 168 1010 l 168 1047 l 971 1047 l 926 765 l 878 765 m 371 -303 q 300 -272 331 -303 q 269 -201 269 -242 q 300 -127 269 -157 q 371 -97 331 -97 q 445 -127 415 -97 q 475 -201 475 -157 q 445 -272 475 -242 q 371 -303 415 -303 m 394 1178 l 629 1367 l 711 1367 l 867 1178 l 804 1178 l 646 1251 l 456 1178 l 394 1178 z "},"Ề":{"ha":939,"x_min":-35,"x_max":971,"o":"m 96 0 l 324 1047 l 510 1047 l 276 0 l 96 0 m -35 0 l -35 39 l 518 39 q 632 62 581 39 q 732 146 683 85 q 833 322 781 207 l 882 322 l 799 0 l -35 0 m 581 315 q 567 446 581 401 q 524 506 554 490 q 444 522 494 522 l 324 522 l 324 561 l 467 561 q 556 578 518 561 q 621 634 593 594 q 669 743 649 674 l 711 743 l 625 315 l 581 315 m 878 765 q 859 915 878 863 q 790 989 840 968 q 647 1010 740 1010 l 168 1010 l 168 1047 l 971 1047 l 926 765 l 878 765 m 421 1150 l 619 1297 l 701 1297 l 851 1150 l 789 1150 l 651 1210 l 482 1150 l 421 1150 m 815 1347 l 563 1406 q 514 1431 529 1413 q 499 1472 499 1450 q 519 1522 499 1500 q 576 1543 540 1543 q 622 1533 600 1543 q 682 1496 643 1522 l 900 1347 l 815 1347 z "},"Ể":{"ha":939,"x_min":-35,"x_max":975,"o":"m 96 0 l 324 1047 l 510 1047 l 276 0 l 96 0 m -35 0 l -35 39 l 518 39 q 632 62 581 39 q 732 146 683 85 q 833 322 781 207 l 882 322 l 799 0 l -35 0 m 581 315 q 567 446 581 401 q 524 506 554 490 q 444 522 494 522 l 324 522 l 324 561 l 467 561 q 556 578 518 561 q 621 634 593 594 q 669 743 649 674 l 711 743 l 625 315 l 581 315 m 878 765 q 859 915 878 863 q 790 989 840 968 q 647 1010 740 1010 l 168 1010 l 168 1047 l 971 1047 l 926 765 l 878 765 m 414 1150 l 613 1297 l 694 1297 l 844 1150 l 782 1150 l 644 1210 l 475 1150 l 414 1150 m 793 1274 q 820 1331 801 1310 q 858 1365 839 1351 q 879 1396 876 1379 q 872 1446 886 1432 q 832 1460 858 1460 q 789 1448 807 1460 q 768 1421 771 1436 q 771 1404 767 1408 q 780 1394 775 1400 q 782 1374 785 1389 q 763 1349 779 1357 q 726 1340 746 1340 q 688 1356 701 1340 q 681 1399 675 1372 q 740 1490 693 1463 q 842 1518 788 1518 q 943 1488 911 1518 q 961 1390 975 1457 q 940 1349 957 1364 q 903 1325 924 1335 q 864 1304 882 1315 q 839 1274 846 1293 l 793 1274 z "},"Ễ":{"ha":939,"x_min":-35,"x_max":971,"o":"m 96 0 l 324 1047 l 510 1047 l 276 0 l 96 0 m -35 0 l -35 39 l 518 39 q 632 62 581 39 q 732 146 683 85 q 833 322 781 207 l 882 322 l 799 0 l -35 0 m 581 315 q 567 446 581 401 q 524 506 554 490 q 444 522 494 522 l 324 522 l 324 561 l 467 561 q 556 578 518 561 q 621 634 593 594 q 669 743 649 674 l 711 743 l 625 315 l 581 315 m 878 765 q 859 915 878 863 q 790 989 840 968 q 647 1010 740 1010 l 168 1010 l 168 1047 l 971 1047 l 926 765 l 878 765 m 414 1150 l 613 1297 l 694 1297 l 844 1150 l 782 1150 l 644 1210 l 475 1150 l 414 1150 m 438 1329 q 479 1419 453 1379 q 544 1484 506 1460 q 629 1508 582 1508 q 698 1492 671 1508 q 750 1460 725 1476 q 808 1444 775 1444 q 876 1467 849 1444 q 915 1511 904 1490 l 964 1511 q 887 1378 936 1425 q 771 1331 838 1331 q 701 1347 728 1331 q 649 1378 674 1363 q 589 1394 625 1394 q 525 1376 553 1394 q 483 1329 497 1357 l 438 1329 z "},"Ȅ":{"ha":939,"x_min":-35,"x_max":971,"o":"m 96 0 l 324 1047 l 510 1047 l 276 0 l 96 0 m -35 0 l -35 39 l 518 39 q 632 62 581 39 q 732 146 683 85 q 833 322 781 207 l 882 322 l 799 0 l -35 0 m 581 315 q 567 446 581 401 q 524 506 554 490 q 444 522 494 522 l 324 522 l 324 561 l 467 561 q 556 578 518 561 q 621 634 593 594 q 669 743 649 674 l 711 743 l 625 315 l 581 315 m 878 765 q 859 915 878 863 q 790 989 840 968 q 647 1010 740 1010 l 168 1010 l 168 1047 l 971 1047 l 926 765 l 878 765 m 867 1171 l 646 1226 q 600 1252 615 1235 q 585 1290 585 1269 q 604 1338 585 1317 q 658 1358 624 1358 q 702 1349 681 1358 q 760 1314 724 1340 l 947 1171 l 867 1171 m 564 1171 l 344 1226 q 297 1252 313 1235 q 282 1290 282 1269 q 302 1338 282 1317 q 356 1358 322 1358 q 400 1349 379 1358 q 457 1314 421 1340 l 644 1171 l 564 1171 z "},"Ë":{"ha":939,"x_min":-35,"x_max":971,"o":"m 96 0 l 324 1047 l 510 1047 l 276 0 l 96 0 m -35 0 l -35 39 l 518 39 q 632 62 581 39 q 732 146 683 85 q 833 322 781 207 l 882 322 l 799 0 l -35 0 m 581 315 q 567 446 581 401 q 524 506 554 490 q 444 522 494 522 l 324 522 l 324 561 l 467 561 q 556 578 518 561 q 621 634 593 594 q 669 743 649 674 l 711 743 l 625 315 l 581 315 m 878 765 q 859 915 878 863 q 790 989 840 968 q 647 1010 740 1010 l 168 1010 l 168 1047 l 971 1047 l 926 765 l 878 765 m 799 1183 q 733 1210 761 1183 q 704 1276 704 1238 q 733 1342 704 1315 q 799 1369 761 1369 q 866 1342 839 1369 q 893 1276 893 1315 q 866 1210 893 1238 q 799 1183 839 1183 m 503 1183 q 435 1210 463 1183 q 408 1276 408 1238 q 435 1342 408 1315 q 503 1369 463 1369 q 569 1342 542 1369 q 597 1276 597 1315 q 569 1210 597 1238 q 503 1183 542 1183 z "},"Ė":{"ha":939,"x_min":-35,"x_max":971,"o":"m 96 0 l 324 1047 l 510 1047 l 276 0 l 96 0 m -35 0 l -35 39 l 518 39 q 632 62 581 39 q 732 146 683 85 q 833 322 781 207 l 882 322 l 799 0 l -35 0 m 581 315 q 567 446 581 401 q 524 506 554 490 q 444 522 494 522 l 324 522 l 324 561 l 467 561 q 556 578 518 561 q 621 634 593 594 q 669 743 649 674 l 711 743 l 625 315 l 581 315 m 878 765 q 859 915 878 863 q 790 989 840 968 q 647 1010 740 1010 l 168 1010 l 168 1047 l 971 1047 l 926 765 l 878 765 m 632 1153 q 561 1183 592 1153 q 531 1254 531 1213 q 561 1328 531 1297 q 632 1358 592 1358 q 706 1328 676 1358 q 736 1254 736 1297 q 706 1183 736 1213 q 632 1153 676 1153 z "},"Ẹ":{"ha":939,"x_min":-35,"x_max":971,"o":"m 96 0 l 324 1047 l 510 1047 l 276 0 l 96 0 m -35 0 l -35 39 l 518 39 q 632 62 581 39 q 732 146 683 85 q 833 322 781 207 l 882 322 l 799 0 l -35 0 m 581 315 q 567 446 581 401 q 524 506 554 490 q 444 522 494 522 l 324 522 l 324 561 l 467 561 q 556 578 518 561 q 621 634 593 594 q 669 743 649 674 l 711 743 l 625 315 l 581 315 m 878 765 q 859 915 878 863 q 790 989 840 968 q 647 1010 740 1010 l 168 1010 l 168 1047 l 971 1047 l 926 765 l 878 765 m 392 -303 q 321 -272 351 -303 q 290 -201 290 -242 q 321 -127 290 -157 q 392 -97 351 -97 q 466 -127 436 -97 q 496 -201 496 -157 q 466 -272 496 -242 q 392 -303 436 -303 z "},"È":{"ha":939,"x_min":-35,"x_max":971,"o":"m 96 0 l 324 1047 l 510 1047 l 276 0 l 96 0 m -35 0 l -35 39 l 518 39 q 632 62 581 39 q 732 146 683 85 q 833 322 781 207 l 882 322 l 799 0 l -35 0 m 581 315 q 567 446 581 401 q 524 506 554 490 q 444 522 494 522 l 324 522 l 324 561 l 467 561 q 556 578 518 561 q 621 634 593 594 q 669 743 649 674 l 711 743 l 625 315 l 581 315 m 878 765 q 859 915 878 863 q 790 989 840 968 q 647 1010 740 1010 l 168 1010 l 168 1047 l 971 1047 l 926 765 l 878 765 m 757 1171 l 504 1229 q 455 1255 471 1236 q 439 1296 439 1274 q 460 1345 439 1324 q 517 1367 481 1367 q 562 1356 540 1367 q 622 1319 583 1346 l 842 1171 l 757 1171 z "},"Ẻ":{"ha":939,"x_min":-35,"x_max":971,"o":"m 96 0 l 324 1047 l 510 1047 l 276 0 l 96 0 m -35 0 l -35 39 l 518 39 q 632 62 581 39 q 732 146 683 85 q 833 322 781 207 l 882 322 l 799 0 l -35 0 m 581 315 q 567 446 581 401 q 524 506 554 490 q 444 522 494 522 l 324 522 l 324 561 l 467 561 q 556 578 518 561 q 621 634 593 594 q 669 743 649 674 l 711 743 l 625 315 l 581 315 m 878 765 q 859 915 878 863 q 790 989 840 968 q 647 1010 740 1010 l 168 1010 l 168 1047 l 971 1047 l 926 765 l 878 765 m 638 1143 q 656 1188 643 1171 q 684 1219 669 1206 q 710 1245 699 1233 q 722 1272 721 1257 q 714 1317 726 1304 q 675 1329 701 1329 q 632 1317 650 1329 q 611 1290 614 1306 q 615 1274 610 1278 q 624 1264 619 1269 q 625 1243 628 1258 q 607 1218 624 1226 q 569 1210 590 1210 q 534 1225 546 1210 q 524 1263 522 1240 q 553 1335 528 1308 q 614 1375 578 1363 q 686 1388 650 1388 q 781 1360 751 1388 q 806 1278 811 1332 q 787 1233 803 1250 q 749 1202 771 1215 q 709 1176 728 1189 q 683 1143 690 1163 l 638 1143 z "},"Ȇ":{"ha":939,"x_min":-35,"x_max":971,"o":"m 96 0 l 324 1047 l 510 1047 l 276 0 l 96 0 m -35 0 l -35 39 l 518 39 q 632 62 581 39 q 732 146 683 85 q 833 322 781 207 l 882 322 l 799 0 l -35 0 m 581 315 q 567 446 581 401 q 524 506 554 490 q 444 522 494 522 l 324 522 l 324 561 l 467 561 q 556 578 518 561 q 621 634 593 594 q 669 743 649 674 l 711 743 l 625 315 l 581 315 m 878 765 q 859 915 878 863 q 790 989 840 968 q 647 1010 740 1010 l 168 1010 l 168 1047 l 971 1047 l 926 765 l 878 765 m 421 1171 q 503 1313 438 1258 q 668 1367 569 1367 q 801 1328 753 1367 q 849 1224 849 1290 q 842 1171 849 1200 l 792 1171 q 759 1243 797 1222 q 656 1264 721 1264 q 533 1242 582 1264 q 471 1171 483 1219 l 421 1171 z "},"Ē":{"ha":939,"x_min":-35,"x_max":971,"o":"m 96 0 l 324 1047 l 510 1047 l 276 0 l 96 0 m -35 0 l -35 39 l 518 39 q 632 62 581 39 q 732 146 683 85 q 833 322 781 207 l 882 322 l 799 0 l -35 0 m 581 315 q 567 446 581 401 q 524 506 554 490 q 444 522 494 522 l 324 522 l 324 561 l 467 561 q 556 578 518 561 q 621 634 593 594 q 669 743 649 674 l 711 743 l 625 315 l 581 315 m 878 765 q 859 915 878 863 q 790 989 840 968 q 647 1010 740 1010 l 168 1010 l 168 1047 l 971 1047 l 926 765 l 878 765 m 428 1200 l 451 1306 l 910 1306 l 886 1200 l 428 1200 z "},"Ę":{"ha":939,"x_min":-35,"x_max":971,"o":"m 96 0 l 324 1047 l 510 1047 l 276 0 l 96 0 m -35 0 l -35 39 l 518 39 q 632 62 581 39 q 732 146 683 85 q 833 322 781 207 l 882 322 l 799 0 l -35 0 m 581 315 q 567 446 581 401 q 524 506 554 490 q 444 522 494 522 l 324 522 l 324 561 l 467 561 q 556 578 518 561 q 621 634 593 594 q 669 743 649 674 l 711 743 l 625 315 l 581 315 m 878 765 q 859 915 878 863 q 790 989 840 968 q 647 1010 740 1010 l 168 1010 l 168 1047 l 971 1047 l 926 765 l 878 765 m 501 -325 q 417 -301 449 -325 q 386 -236 386 -276 q 453 -111 386 -176 q 649 21 519 -46 l 706 17 q 561 -92 614 -35 q 508 -199 508 -150 q 525 -240 508 -225 q 569 -254 542 -254 q 610 -247 588 -254 q 661 -225 632 -240 l 681 -258 q 601 -306 651 -286 q 501 -325 550 -325 z "},"Ẽ":{"ha":939,"x_min":-35,"x_max":971,"o":"m 96 0 l 324 1047 l 510 1047 l 276 0 l 96 0 m -35 0 l -35 39 l 518 39 q 632 62 581 39 q 732 146 683 85 q 833 322 781 207 l 882 322 l 799 0 l -35 0 m 581 315 q 567 446 581 401 q 524 506 554 490 q 444 522 494 522 l 324 522 l 324 561 l 467 561 q 556 578 518 561 q 621 634 593 594 q 669 743 649 674 l 711 743 l 625 315 l 581 315 m 878 765 q 859 915 878 863 q 790 989 840 968 q 647 1010 740 1010 l 168 1010 l 168 1047 l 971 1047 l 926 765 l 878 765 m 404 1171 q 445 1260 418 1219 q 510 1326 472 1301 q 594 1350 549 1350 q 664 1334 638 1350 q 715 1302 690 1318 q 774 1286 740 1286 q 842 1309 814 1286 q 882 1353 869 1332 l 931 1353 q 853 1219 903 1265 q 738 1172 803 1172 q 667 1188 694 1172 q 615 1220 639 1204 q 556 1236 590 1236 q 491 1217 519 1236 q 450 1171 463 1199 l 404 1171 z "},"Ə":{"ha":1026,"x_min":69,"x_max":1025,"o":"m 413 -17 q 242 17 319 -17 q 117 115 164 51 q 69 264 69 178 q 127 435 69 358 q 292 556 185 511 q 549 601 400 601 q 635 599 589 601 q 724 592 682 596 q 798 583 767 588 q 839 576 829 579 l 832 510 q 744 529 790 525 q 631 533 697 533 q 431 492 507 533 q 322 379 356 450 q 288 221 288 308 q 324 78 288 125 q 432 31 361 31 q 566 74 506 31 q 673 192 626 118 q 752 360 719 267 q 801 551 785 453 q 818 740 818 650 q 799 890 818 835 q 738 967 779 944 q 631 990 697 990 q 478 960 553 990 q 336 868 404 931 q 208 710 268 806 l 156 747 q 371 976 246 892 q 640 1060 496 1060 q 807 1025 735 1060 q 928 931 879 990 q 1001 794 976 871 q 1025 636 1025 718 q 993 444 1025 539 q 903 267 961 350 q 769 120 846 183 q 601 20 692 57 q 413 -17 510 -17 z "},"F":{"ha":899,"x_min":-12,"x_max":990,"o":"m 115 0 l 343 1047 l 529 1047 l 296 0 l 115 0 m -12 0 l -12 39 l 465 39 l 465 0 l -12 0 m 592 314 q 578 444 592 400 q 535 505 565 489 q 456 521 506 521 l 335 521 l 335 560 l 478 560 q 566 576 529 560 q 631 632 603 593 q 679 739 658 671 l 721 739 l 636 314 l 592 314 m 894 749 q 876 910 894 854 q 808 988 857 967 q 667 1010 758 1010 l 188 1010 l 188 1047 l 990 1047 l 943 749 l 894 749 z "},"G":{"ha":1050,"x_min":108,"x_max":1078,"o":"m 514 -18 q 358 8 425 -18 q 243 79 290 35 q 166 181 196 124 q 122 299 136 238 q 108 418 108 360 q 140 602 108 510 q 227 777 171 694 q 358 924 283 860 q 522 1026 433 989 q 707 1063 611 1063 q 818 1044 768 1063 q 917 979 868 1026 l 982 1047 l 1024 1047 l 958 738 l 919 738 q 890 888 919 825 q 811 985 861 951 q 700 1019 761 1019 q 583 984 636 1019 q 490 888 531 949 q 417 751 449 826 q 366 592 386 675 q 336 431 346 510 q 326 286 326 351 q 347 134 326 190 q 408 54 368 78 q 504 31 447 31 q 611 58 565 31 q 690 153 657 85 q 743 347 722 222 l 972 347 q 874 142 936 224 q 722 22 811 61 q 514 -18 632 -18 m 600 340 l 600 379 l 1078 379 l 1078 340 l 600 340 z "},"Ǵ":{"ha":1050,"x_min":108,"x_max":1078,"o":"m 514 -18 q 358 8 425 -18 q 243 79 290 35 q 166 181 196 124 q 122 299 136 238 q 108 418 108 360 q 140 602 108 510 q 227 777 171 694 q 358 924 283 860 q 522 1026 433 989 q 707 1063 611 1063 q 818 1044 768 1063 q 917 979 868 1026 l 982 1047 l 1024 1047 l 958 738 l 919 738 q 890 888 919 825 q 811 985 861 951 q 700 1019 761 1019 q 583 984 636 1019 q 490 888 531 949 q 417 751 449 826 q 366 592 386 675 q 336 431 346 510 q 326 286 326 351 q 347 134 326 190 q 408 54 368 78 q 504 31 447 31 q 611 58 565 31 q 690 153 657 85 q 743 347 722 222 l 972 347 q 874 142 936 224 q 722 22 811 61 q 514 -18 632 -18 m 600 340 l 600 379 l 1078 379 l 1078 340 l 600 340 m 521 1172 l 763 1319 q 830 1356 804 1346 q 881 1367 856 1367 q 930 1349 913 1367 q 947 1306 947 1332 q 927 1257 947 1279 q 863 1226 907 1235 l 604 1172 l 521 1172 z "},"Ğ":{"ha":1050,"x_min":108,"x_max":1078,"o":"m 514 -18 q 358 8 425 -18 q 243 79 290 35 q 166 181 196 124 q 122 299 136 238 q 108 418 108 360 q 140 602 108 510 q 227 777 171 694 q 358 924 283 860 q 522 1026 433 989 q 707 1063 611 1063 q 818 1044 768 1063 q 917 979 868 1026 l 982 1047 l 1024 1047 l 958 738 l 919 738 q 890 888 919 825 q 811 985 861 951 q 700 1019 761 1019 q 583 984 636 1019 q 490 888 531 949 q 417 751 449 826 q 366 592 386 675 q 336 431 346 510 q 326 286 326 351 q 347 134 326 190 q 408 54 368 78 q 504 31 447 31 q 611 58 565 31 q 690 153 657 85 q 743 347 722 222 l 972 347 q 874 142 936 224 q 722 22 811 61 q 514 -18 632 -18 m 600 340 l 600 379 l 1078 379 l 1078 340 l 600 340 m 714 1172 q 571 1221 619 1172 q 543 1360 522 1269 l 594 1360 q 608 1308 590 1326 q 658 1282 625 1289 q 729 1275 690 1275 q 815 1283 776 1275 q 880 1309 853 1290 q 914 1360 907 1328 l 965 1360 q 879 1222 947 1272 q 714 1172 811 1172 z "},"Ĝ":{"ha":1050,"x_min":108,"x_max":1078,"o":"m 514 -18 q 358 8 425 -18 q 243 79 290 35 q 166 181 196 124 q 122 299 136 238 q 108 418 108 360 q 140 602 108 510 q 227 777 171 694 q 358 924 283 860 q 522 1026 433 989 q 707 1063 611 1063 q 818 1044 768 1063 q 917 979 868 1026 l 982 1047 l 1024 1047 l 958 738 l 919 738 q 890 888 919 825 q 811 985 861 951 q 700 1019 761 1019 q 583 984 636 1019 q 490 888 531 949 q 417 751 449 826 q 366 592 386 675 q 336 431 346 510 q 326 286 326 351 q 347 134 326 190 q 408 54 368 78 q 504 31 447 31 q 611 58 565 31 q 690 153 657 85 q 743 347 722 222 l 972 347 q 874 142 936 224 q 722 22 811 61 q 514 -18 632 -18 m 600 340 l 600 379 l 1078 379 l 1078 340 l 600 340 m 488 1171 l 722 1360 l 804 1360 l 960 1171 l 897 1171 l 739 1244 l 549 1171 l 488 1171 z "},"Ģ":{"ha":1050,"x_min":108,"x_max":1078,"o":"m 514 -18 q 358 8 425 -18 q 243 79 290 35 q 166 181 196 124 q 122 299 136 238 q 108 418 108 360 q 140 602 108 510 q 227 777 171 694 q 358 924 283 860 q 522 1026 433 989 q 707 1063 611 1063 q 818 1044 768 1063 q 917 979 868 1026 l 982 1047 l 1024 1047 l 958 738 l 919 738 q 890 888 919 825 q 811 985 861 951 q 700 1019 761 1019 q 583 984 636 1019 q 490 888 531 949 q 417 751 449 826 q 366 592 386 675 q 336 431 346 510 q 326 286 326 351 q 347 134 326 190 q 408 54 368 78 q 504 31 447 31 q 611 58 565 31 q 690 153 657 85 q 743 347 722 222 l 972 347 q 874 142 936 224 q 722 22 811 61 q 514 -18 632 -18 m 600 340 l 600 379 l 1078 379 l 1078 340 l 600 340 m 318 -433 l 299 -397 q 435 -327 390 -362 q 481 -260 481 -292 q 474 -239 481 -246 q 464 -232 468 -232 q 449 -243 457 -232 q 427 -265 440 -254 q 389 -276 414 -276 q 337 -253 354 -276 q 319 -200 319 -231 q 351 -129 319 -154 q 425 -104 383 -104 q 488 -123 464 -104 q 525 -170 513 -142 q 538 -229 538 -199 q 482 -346 538 -294 q 318 -433 426 -397 z "},"Ġ":{"ha":1050,"x_min":108,"x_max":1078,"o":"m 514 -18 q 358 8 425 -18 q 243 79 290 35 q 166 181 196 124 q 122 299 136 238 q 108 418 108 360 q 140 602 108 510 q 227 777 171 694 q 358 924 283 860 q 522 1026 433 989 q 707 1063 611 1063 q 818 1044 768 1063 q 917 979 868 1026 l 982 1047 l 1024 1047 l 958 738 l 919 738 q 890 888 919 825 q 811 985 861 951 q 700 1019 761 1019 q 583 984 636 1019 q 490 888 531 949 q 417 751 449 826 q 366 592 386 675 q 336 431 346 510 q 326 286 326 351 q 347 134 326 190 q 408 54 368 78 q 504 31 447 31 q 611 58 565 31 q 690 153 657 85 q 743 347 722 222 l 972 347 q 874 142 936 224 q 722 22 811 61 q 514 -18 632 -18 m 600 340 l 600 379 l 1078 379 l 1078 340 l 600 340 m 711 1153 q 640 1183 671 1153 q 610 1254 610 1213 q 640 1328 610 1297 q 711 1358 671 1358 q 785 1328 756 1358 q 815 1254 815 1297 q 785 1183 815 1213 q 711 1153 756 1153 z "},"H":{"ha":1107,"x_min":-10,"x_max":1224,"o":"m 692 0 l 919 1047 l 1106 1047 l 872 0 l 692 0 m -10 0 l -10 39 l 433 39 l 433 0 l -10 0 m 575 0 l 575 39 l 1022 39 l 1022 0 l 575 0 m 104 0 l 332 1047 l 518 1047 l 285 0 l 104 0 m 321 515 l 321 556 l 861 556 l 861 515 l 321 515 m 201 1010 l 201 1047 l 638 1047 l 638 1010 l 201 1010 m 783 1010 l 783 1047 l 1224 1047 l 1224 1010 l 783 1010 z "},"Ħ":{"ha":1107,"x_min":-10,"x_max":1224,"o":"m 131 754 l 131 803 l 1199 803 l 1199 754 l 131 754 m 692 0 l 919 1047 l 1106 1047 l 872 0 l 692 0 m -10 0 l -10 39 l 433 39 l 433 0 l -10 0 m 575 0 l 575 39 l 1022 39 l 1022 0 l 575 0 m 104 0 l 332 1047 l 518 1047 l 285 0 l 104 0 m 321 515 l 321 556 l 861 556 l 861 515 l 321 515 m 201 1010 l 201 1047 l 638 1047 l 638 1010 l 201 1010 m 783 1010 l 783 1047 l 1224 1047 l 1224 1010 l 783 1010 z "},"Ĥ":{"ha":1107,"x_min":-10,"x_max":1224,"o":"m 692 0 l 919 1047 l 1106 1047 l 872 0 l 692 0 m -10 0 l -10 39 l 433 39 l 433 0 l -10 0 m 575 0 l 575 39 l 1022 39 l 1022 0 l 575 0 m 104 0 l 332 1047 l 518 1047 l 285 0 l 104 0 m 321 515 l 321 556 l 861 556 l 861 515 l 321 515 m 201 1010 l 201 1047 l 638 1047 l 638 1010 l 201 1010 m 783 1010 l 783 1047 l 1224 1047 l 1224 1010 l 783 1010 m 517 1171 l 751 1360 l 833 1360 l 989 1171 l 926 1171 l 768 1244 l 578 1171 l 517 1171 z "},"Ḥ":{"ha":1107,"x_min":-10,"x_max":1224,"o":"m 692 0 l 919 1047 l 1106 1047 l 872 0 l 692 0 m -10 0 l -10 39 l 433 39 l 433 0 l -10 0 m 575 0 l 575 39 l 1022 39 l 1022 0 l 575 0 m 104 0 l 332 1047 l 518 1047 l 285 0 l 104 0 m 321 515 l 321 556 l 861 556 l 861 515 l 321 515 m 201 1010 l 201 1047 l 638 1047 l 638 1010 l 201 1010 m 783 1010 l 783 1047 l 1224 1047 l 1224 1010 l 783 1010 m 435 -303 q 364 -272 394 -303 q 333 -201 333 -242 q 364 -127 333 -157 q 435 -97 394 -97 q 509 -127 479 -97 q 539 -201 539 -157 q 509 -272 539 -242 q 435 -303 479 -303 z "},"I":{"ha":521,"x_min":-8,"x_max":617,"o":"m 97 0 l 325 1047 l 511 1047 l 278 0 l 97 0 m -8 0 l -8 39 l 421 39 l 421 0 l -8 0 m 201 1010 l 201 1047 l 617 1047 l 617 1010 l 201 1010 z "},"Ĳ":{"ha":1082,"x_min":-8,"x_max":1189,"o":"m 97 0 l 325 1047 l 511 1047 l 278 0 l 97 0 m -8 0 l -8 39 l 421 39 l 421 0 l -8 0 m 201 1010 l 201 1047 l 617 1047 l 617 1010 l 201 1010 m 571 -153 q 471 -132 511 -153 q 409 -78 431 -111 q 388 -7 388 -46 q 414 69 388 38 q 483 100 440 100 q 545 76 521 100 q 569 14 569 51 q 561 -27 569 -11 q 544 -55 553 -43 q 535 -79 535 -67 q 578 -107 535 -107 q 603 -101 590 -107 q 630 -78 617 -96 q 657 -25 643 -61 q 685 74 671 11 l 897 1047 l 1083 1047 l 903 204 q 823 -5 875 74 q 706 -118 771 -83 q 571 -153 640 -153 m 760 1010 l 760 1047 l 1189 1047 l 1189 1010 l 760 1010 z "},"Í":{"ha":521,"x_min":-8,"x_max":682,"o":"m 97 0 l 325 1047 l 511 1047 l 278 0 l 97 0 m -8 0 l -8 39 l 421 39 l 421 0 l -8 0 m 201 1010 l 201 1047 l 617 1047 l 617 1010 l 201 1010 m 256 1172 l 497 1319 q 565 1356 539 1346 q 615 1367 590 1367 q 665 1349 647 1367 q 682 1306 682 1332 q 662 1257 682 1279 q 597 1226 642 1235 l 339 1172 l 256 1172 z "},"Ĭ":{"ha":521,"x_min":-8,"x_max":700,"o":"m 97 0 l 325 1047 l 511 1047 l 278 0 l 97 0 m -8 0 l -8 39 l 421 39 l 421 0 l -8 0 m 201 1010 l 201 1047 l 617 1047 l 617 1010 l 201 1010 m 449 1172 q 306 1221 354 1172 q 278 1360 257 1269 l 329 1360 q 342 1308 325 1326 q 392 1282 360 1289 q 464 1275 425 1275 q 549 1283 511 1275 q 615 1309 588 1290 q 649 1360 642 1328 l 700 1360 q 614 1222 682 1272 q 449 1172 546 1172 z "},"Î":{"ha":521,"x_min":-8,"x_max":696,"o":"m 97 0 l 325 1047 l 511 1047 l 278 0 l 97 0 m -8 0 l -8 39 l 421 39 l 421 0 l -8 0 m 201 1010 l 201 1047 l 617 1047 l 617 1010 l 201 1010 m 224 1171 l 458 1360 l 540 1360 l 696 1171 l 633 1171 l 475 1244 l 285 1171 l 224 1171 z "},"Ȉ":{"ha":521,"x_min":-8,"x_max":761,"o":"m 97 0 l 325 1047 l 511 1047 l 278 0 l 97 0 m -8 0 l -8 39 l 421 39 l 421 0 l -8 0 m 201 1010 l 201 1047 l 617 1047 l 617 1010 l 201 1010 m 681 1171 l 460 1226 q 414 1252 429 1235 q 399 1290 399 1269 q 418 1338 399 1317 q 472 1358 438 1358 q 516 1349 494 1358 q 574 1314 538 1340 l 761 1171 l 681 1171 m 378 1171 l 158 1226 q 111 1252 126 1235 q 96 1290 96 1269 q 116 1338 96 1317 q 169 1358 136 1358 q 214 1349 193 1358 q 271 1314 235 1340 l 458 1171 l 378 1171 z "},"Ï":{"ha":521,"x_min":-8,"x_max":708,"o":"m 97 0 l 325 1047 l 511 1047 l 278 0 l 97 0 m -8 0 l -8 39 l 421 39 l 421 0 l -8 0 m 201 1010 l 201 1047 l 617 1047 l 617 1010 l 201 1010 m 614 1183 q 548 1210 576 1183 q 519 1276 519 1238 q 548 1342 519 1315 q 614 1369 576 1369 q 681 1342 654 1369 q 708 1276 708 1315 q 681 1210 708 1238 q 614 1183 654 1183 m 318 1183 q 251 1210 278 1183 q 224 1276 224 1238 q 251 1342 224 1315 q 318 1369 278 1369 q 385 1342 357 1369 q 413 1276 413 1315 q 385 1210 413 1238 q 318 1183 357 1183 z "},"İ":{"ha":521,"x_min":-8,"x_max":617,"o":"m 97 0 l 325 1047 l 511 1047 l 278 0 l 97 0 m -8 0 l -8 39 l 421 39 l 421 0 l -8 0 m 201 1010 l 201 1047 l 617 1047 l 617 1010 l 201 1010 m 447 1153 q 376 1183 407 1153 q 346 1254 346 1213 q 376 1328 346 1297 q 447 1358 407 1358 q 522 1328 492 1358 q 551 1254 551 1297 q 522 1183 551 1213 q 447 1153 492 1153 z "},"Ị":{"ha":521,"x_min":-8,"x_max":617,"o":"m 97 0 l 325 1047 l 511 1047 l 278 0 l 97 0 m -8 0 l -8 39 l 421 39 l 421 0 l -8 0 m 201 1010 l 201 1047 l 617 1047 l 617 1010 l 201 1010 m 140 -303 q 69 -272 100 -303 q 39 -201 39 -242 q 69 -127 39 -157 q 140 -97 100 -97 q 215 -127 185 -97 q 244 -201 244 -157 q 215 -272 244 -242 q 140 -303 185 -303 z "},"Ì":{"ha":521,"x_min":-8,"x_max":656,"o":"m 97 0 l 325 1047 l 511 1047 l 278 0 l 97 0 m -8 0 l -8 39 l 421 39 l 421 0 l -8 0 m 201 1010 l 201 1047 l 617 1047 l 617 1010 l 201 1010 m 572 1171 l 319 1229 q 270 1255 286 1236 q 254 1296 254 1274 q 275 1345 254 1324 q 332 1367 296 1367 q 377 1356 356 1367 q 438 1319 399 1346 l 657 1171 l 572 1171 z "},"Ỉ":{"ha":521,"x_min":-8,"x_max":625,"o":"m 97 0 l 325 1047 l 511 1047 l 278 0 l 97 0 m -8 0 l -8 39 l 421 39 l 421 0 l -8 0 m 201 1010 l 201 1047 l 617 1047 l 617 1010 l 201 1010 m 451 1143 q 470 1188 457 1171 q 498 1219 483 1206 q 524 1245 513 1233 q 536 1272 535 1257 q 528 1317 540 1304 q 489 1329 515 1329 q 446 1317 464 1329 q 425 1290 428 1306 q 428 1274 424 1278 q 438 1264 433 1269 q 439 1243 442 1258 q 421 1218 438 1226 q 383 1210 404 1210 q 348 1225 360 1210 q 338 1263 336 1240 q 367 1335 342 1308 q 428 1375 392 1363 q 500 1388 464 1388 q 595 1360 565 1388 q 619 1278 625 1332 q 601 1233 617 1250 q 563 1202 585 1215 q 523 1176 542 1189 q 497 1143 504 1163 l 451 1143 z "},"Ȋ":{"ha":521,"x_min":-8,"x_max":663,"o":"m 97 0 l 325 1047 l 511 1047 l 278 0 l 97 0 m -8 0 l -8 39 l 421 39 l 421 0 l -8 0 m 201 1010 l 201 1047 l 617 1047 l 617 1010 l 201 1010 m 235 1171 q 317 1313 251 1258 q 482 1367 383 1367 q 615 1328 567 1367 q 663 1224 663 1290 q 656 1171 663 1200 l 606 1171 q 573 1243 611 1222 q 469 1264 535 1264 q 347 1242 396 1264 q 285 1171 297 1219 l 235 1171 z "},"Ī":{"ha":521,"x_min":-8,"x_max":724,"o":"m 97 0 l 325 1047 l 511 1047 l 278 0 l 97 0 m -8 0 l -8 39 l 421 39 l 421 0 l -8 0 m 201 1010 l 201 1047 l 617 1047 l 617 1010 l 201 1010 m 242 1200 l 265 1306 l 724 1306 l 700 1200 l 242 1200 z "},"Į":{"ha":521,"x_min":-24,"x_max":617,"o":"m 97 0 l 325 1047 l 511 1047 l 278 0 l 97 0 m -8 0 l -8 39 l 421 39 l 421 0 l -8 0 m 201 1010 l 201 1047 l 617 1047 l 617 1010 l 201 1010 m 92 -325 q 8 -301 39 -325 q -24 -236 -24 -276 q 43 -111 -24 -176 q 239 21 110 -46 l 296 17 q 151 -92 204 -35 q 99 -199 99 -150 q 115 -240 99 -225 q 160 -254 132 -254 q 200 -247 178 -254 q 251 -225 222 -240 l 271 -258 q 191 -306 242 -286 q 92 -325 140 -325 z "},"Ĩ":{"ha":521,"x_min":-8,"x_max":744,"o":"m 97 0 l 325 1047 l 511 1047 l 278 0 l 97 0 m -8 0 l -8 39 l 421 39 l 421 0 l -8 0 m 201 1010 l 201 1047 l 617 1047 l 617 1010 l 201 1010 m 218 1171 q 259 1260 232 1219 q 324 1326 286 1301 q 408 1350 363 1350 q 478 1334 451 1350 q 529 1302 504 1318 q 588 1286 554 1286 q 656 1309 628 1286 q 696 1353 683 1332 l 744 1353 q 667 1219 717 1265 q 551 1172 617 1172 q 481 1188 508 1172 q 428 1220 453 1204 q 369 1236 404 1236 q 305 1217 333 1236 q 264 1171 276 1199 l 218 1171 z "},"J":{"ha":561,"x_min":-133,"x_max":668,"o":"m 50 -153 q -50 -132 -10 -153 q -112 -78 -90 -111 q -133 -7 -133 -46 q -107 69 -133 38 q -37 100 -81 100 q 24 76 0 100 q 49 14 49 51 q 40 -27 49 -11 q 23 -55 32 -43 q 14 -79 14 -67 q 57 -107 14 -107 q 83 -101 69 -107 q 109 -78 96 -96 q 136 -25 122 -61 q 164 74 150 11 l 376 1047 l 563 1047 l 382 204 q 302 -5 354 74 q 185 -118 250 -83 q 50 -153 119 -153 m 239 1010 l 239 1047 l 668 1047 l 668 1010 l 239 1010 z "},"Ĵ":{"ha":561,"x_min":-133,"x_max":736,"o":"m 50 -153 q -50 -132 -10 -153 q -112 -78 -90 -111 q -133 -7 -133 -46 q -107 69 -133 38 q -37 100 -81 100 q 24 76 0 100 q 49 14 49 51 q 40 -27 49 -11 q 23 -55 32 -43 q 14 -79 14 -67 q 57 -107 14 -107 q 83 -101 69 -107 q 109 -78 96 -96 q 136 -25 122 -61 q 164 74 150 11 l 376 1047 l 563 1047 l 382 204 q 302 -5 354 74 q 185 -118 250 -83 q 50 -153 119 -153 m 239 1010 l 239 1047 l 668 1047 l 668 1010 l 239 1010 m 264 1171 l 499 1360 l 581 1360 l 736 1171 l 674 1171 l 515 1244 l 325 1171 l 264 1171 z "},"K":{"ha":1017,"x_min":15,"x_max":1146,"o":"m 122 0 l 350 1047 l 536 1047 l 303 0 l 122 0 m 15 0 l 15 39 l 444 39 l 444 0 l 15 0 m 564 0 l 564 39 l 1051 39 l 1051 0 l 564 0 m 721 13 l 451 549 l 610 649 l 936 13 l 721 13 m 218 1010 l 218 1047 l 647 1047 l 647 1010 l 218 1010 m 451 549 l 972 1019 l 1039 1019 l 518 549 l 451 549 m 778 1010 l 778 1047 l 1146 1047 l 1146 1010 l 778 1010 z "},"Ķ":{"ha":1017,"x_min":15,"x_max":1146,"o":"m 122 0 l 350 1047 l 536 1047 l 303 0 l 122 0 m 15 0 l 15 39 l 444 39 l 444 0 l 15 0 m 564 0 l 564 39 l 1051 39 l 1051 0 l 564 0 m 721 13 l 451 549 l 610 649 l 936 13 l 721 13 m 218 1010 l 218 1047 l 647 1047 l 647 1010 l 218 1010 m 451 549 l 972 1019 l 1039 1019 l 518 549 l 451 549 m 778 1010 l 778 1047 l 1146 1047 l 1146 1010 l 778 1010 m 301 -433 l 282 -397 q 419 -327 374 -362 q 464 -260 464 -292 q 458 -239 464 -246 q 447 -232 451 -232 q 432 -243 440 -232 q 410 -265 424 -254 q 372 -276 397 -276 q 320 -253 338 -276 q 303 -200 303 -231 q 335 -129 303 -154 q 408 -104 367 -104 q 472 -123 447 -104 q 508 -170 496 -142 q 521 -229 521 -199 q 465 -346 521 -294 q 301 -433 410 -397 z "},"L":{"ha":850,"x_min":-35,"x_max":846,"o":"m 82 0 l 310 1047 l 496 1047 l 263 0 l 82 0 m -35 0 l -35 39 l 475 39 q 587 63 533 39 q 692 149 640 88 q 797 322 744 211 l 846 322 l 763 0 l -35 0 m 164 1010 l 164 1047 l 628 1047 l 628 1010 l 164 1010 z "},"Ǉ":{"ha":1411,"x_min":-35,"x_max":1518,"o":"m 82 0 l 310 1047 l 496 1047 l 263 0 l 82 0 m -35 0 l -35 39 l 475 39 q 587 63 533 39 q 692 149 640 88 q 797 322 744 211 l 846 322 l 763 0 l -35 0 m 164 1010 l 164 1047 l 628 1047 l 628 1010 l 164 1010 m 900 -153 q 800 -132 840 -153 q 738 -78 760 -111 q 717 -7 717 -46 q 743 69 717 38 q 813 100 769 100 q 874 76 850 100 q 899 14 899 51 q 890 -27 899 -11 q 873 -55 882 -43 q 864 -79 864 -67 q 907 -107 864 -107 q 933 -101 919 -107 q 959 -78 946 -96 q 986 -25 972 -61 q 1014 74 1000 11 l 1226 1047 l 1413 1047 l 1232 204 q 1152 -5 1204 74 q 1035 -118 1100 -83 q 900 -153 969 -153 m 1089 1010 l 1089 1047 l 1518 1047 l 1518 1010 l 1089 1010 z "},"Ĺ":{"ha":850,"x_min":-35,"x_max":847,"o":"m 82 0 l 310 1047 l 496 1047 l 263 0 l 82 0 m -35 0 l -35 39 l 475 39 q 587 63 533 39 q 692 149 640 88 q 797 322 744 211 l 846 322 l 763 0 l -35 0 m 164 1010 l 164 1047 l 628 1047 l 628 1010 l 164 1010 m 421 1172 l 663 1319 q 730 1356 704 1346 q 781 1367 756 1367 q 830 1349 813 1367 q 847 1306 847 1332 q 827 1257 847 1279 q 763 1226 807 1235 l 504 1172 l 421 1172 z "},"Ľ":{"ha":850,"x_min":-35,"x_max":993,"o":"m 82 0 l 310 1047 l 496 1047 l 263 0 l 82 0 m -35 0 l -35 39 l 475 39 q 587 63 533 39 q 692 149 640 88 q 797 322 744 211 l 846 322 l 763 0 l -35 0 m 164 1010 l 164 1047 l 628 1047 l 628 1010 l 164 1010 m 750 689 l 732 721 q 884 825 833 771 q 935 925 935 879 q 927 954 935 946 q 913 963 919 963 q 895 951 903 963 q 874 926 888 939 q 831 914 860 914 q 768 942 789 914 q 747 1004 747 969 q 780 1078 747 1050 q 861 1107 813 1107 q 935 1085 906 1107 q 978 1028 964 1063 q 993 958 993 993 q 928 812 993 883 q 750 689 864 740 z "},"Ļ":{"ha":850,"x_min":-35,"x_max":846,"o":"m 82 0 l 310 1047 l 496 1047 l 263 0 l 82 0 m -35 0 l -35 39 l 475 39 q 587 63 533 39 q 692 149 640 88 q 797 322 744 211 l 846 322 l 763 0 l -35 0 m 164 1010 l 164 1047 l 628 1047 l 628 1010 l 164 1010 m 218 -433 l 199 -397 q 335 -327 290 -362 q 381 -260 381 -292 q 374 -239 381 -246 q 364 -232 368 -232 q 349 -243 357 -232 q 327 -265 340 -254 q 289 -276 314 -276 q 237 -253 254 -276 q 219 -200 219 -231 q 251 -129 219 -154 q 325 -104 283 -104 q 388 -123 364 -104 q 425 -170 413 -142 q 438 -229 438 -199 q 382 -346 438 -294 q 218 -433 326 -397 z "},"Ŀ":{"ha":850,"x_min":-35,"x_max":846,"o":"m 82 0 l 310 1047 l 496 1047 l 263 0 l 82 0 m -35 0 l -35 39 l 475 39 q 587 63 533 39 q 692 149 640 88 q 797 322 744 211 l 846 322 l 763 0 l -35 0 m 164 1010 l 164 1047 l 628 1047 l 628 1010 l 164 1010 m 679 443 q 603 474 635 443 q 572 550 572 506 q 603 626 572 594 q 679 657 635 657 q 756 626 725 657 q 788 550 788 594 q 756 474 788 506 q 679 443 725 443 z "},"ǈ":{"ha":1251,"x_min":-35,"x_max":1281,"o":"m 82 0 l 310 1047 l 496 1047 l 263 0 l 82 0 m -35 0 l -35 39 l 475 39 q 587 63 533 39 q 692 149 640 88 q 797 322 744 211 l 846 322 l 763 0 l -35 0 m 164 1010 l 164 1047 l 628 1047 l 628 1010 l 164 1010 m 751 -450 q 649 -419 694 -450 q 604 -339 604 -389 q 625 -285 604 -304 q 681 -265 646 -265 q 733 -284 714 -265 q 753 -335 753 -303 q 750 -360 753 -347 q 747 -382 747 -372 q 774 -403 747 -403 q 791 -398 781 -403 q 815 -372 801 -393 q 844 -306 828 -351 q 876 -182 860 -261 l 1050 625 l 1219 625 l 1060 -94 q 1004 -261 1039 -193 q 927 -370 969 -329 q 840 -431 885 -411 q 751 -450 794 -450 m 919 588 l 919 625 l 1203 625 l 1203 588 l 919 588 m 1176 815 q 1106 846 1136 815 q 1075 917 1075 876 q 1106 991 1075 961 q 1176 1021 1136 1021 q 1251 991 1221 1021 q 1281 917 1281 961 q 1251 846 1281 876 q 1176 815 1221 815 z "},"Ł":{"ha":850,"x_min":-35,"x_max":846,"o":"m 21 322 l 29 385 l 599 699 l 592 636 l 21 322 m 82 0 l 310 1047 l 496 1047 l 263 0 l 82 0 m -35 0 l -35 39 l 475 39 q 587 63 533 39 q 692 149 640 88 q 797 322 744 211 l 846 322 l 763 0 l -35 0 m 164 1010 l 164 1047 l 628 1047 l 628 1010 l 164 1010 z "},"M":{"ha":1240,"x_min":18,"x_max":1368,"o":"m 510 0 l 651 347 l 1046 1047 l 1107 1047 l 510 0 m 18 0 l 18 39 l 326 39 l 326 0 l 18 0 m 132 0 l 360 1047 l 408 1047 l 181 0 l 132 0 m 704 0 l 704 39 l 1167 39 l 1167 0 l 704 0 m 481 0 l 388 925 l 382 925 l 393 1047 l 575 1047 l 646 347 l 651 347 l 510 0 l 481 0 m 229 1010 l 229 1047 l 575 1047 l 575 1010 l 229 1010 m 825 0 l 1053 1047 l 1239 1047 l 1006 0 l 825 0 m 1074 1010 l 1074 1047 l 1368 1047 l 1368 1010 l 1074 1010 z "},"N":{"ha":1054,"x_min":-14,"x_max":1169,"o":"m 775 -18 l 371 932 l 365 932 l 379 1047 l 544 1047 l 850 344 l 856 344 l 803 -18 l 775 -18 m -14 0 l -14 39 l 319 39 l 319 0 l -14 0 m 114 0 l 342 1047 l 390 1047 l 163 0 l 114 0 m 190 1010 l 190 1047 l 544 1047 l 544 1010 l 190 1010 m 781 -18 l 1000 1047 l 1049 1047 l 817 -18 l 781 -18 m 850 1010 l 850 1047 l 1169 1047 l 1169 1010 l 850 1010 z "},"Ǌ":{"ha":1615,"x_min":-14,"x_max":1722,"o":"m 775 -18 l 371 932 l 365 932 l 379 1047 l 544 1047 l 850 344 l 856 344 l 803 -18 l 775 -18 m -14 0 l -14 39 l 319 39 l 319 0 l -14 0 m 114 0 l 342 1047 l 390 1047 l 163 0 l 114 0 m 190 1010 l 190 1047 l 544 1047 l 544 1010 l 190 1010 m 781 -18 l 1000 1047 l 1049 1047 l 817 -18 l 781 -18 m 850 1010 l 850 1047 l 1169 1047 l 1169 1010 l 850 1010 m 1104 -153 q 1004 -132 1044 -153 q 942 -78 964 -111 q 921 -7 921 -46 q 947 69 921 38 q 1017 100 974 100 q 1078 76 1054 100 q 1103 14 1103 51 q 1094 -27 1103 -11 q 1077 -55 1086 -43 q 1068 -79 1068 -67 q 1111 -107 1068 -107 q 1137 -101 1124 -107 q 1163 -78 1150 -96 q 1190 -25 1176 -61 q 1218 74 1204 11 l 1431 1047 l 1617 1047 l 1436 204 q 1356 -5 1408 74 q 1239 -118 1304 -83 q 1104 -153 1174 -153 m 1293 1010 l 1293 1047 l 1722 1047 l 1722 1010 l 1293 1010 z "},"Ń":{"ha":1054,"x_min":-14,"x_max":1169,"o":"m 775 -18 l 371 932 l 365 932 l 379 1047 l 544 1047 l 850 344 l 856 344 l 803 -18 l 775 -18 m -14 0 l -14 39 l 319 39 l 319 0 l -14 0 m 114 0 l 342 1047 l 390 1047 l 163 0 l 114 0 m 190 1010 l 190 1047 l 544 1047 l 544 1010 l 190 1010 m 781 -18 l 1000 1047 l 1049 1047 l 817 -18 l 781 -18 m 850 1010 l 850 1047 l 1169 1047 l 1169 1010 l 850 1010 m 524 1172 l 765 1319 q 833 1356 807 1346 q 883 1367 858 1367 q 933 1349 915 1367 q 950 1306 950 1332 q 930 1257 950 1279 q 865 1226 910 1235 l 607 1172 l 524 1172 z "},"Ň":{"ha":1054,"x_min":-14,"x_max":1169,"o":"m 775 -18 l 371 932 l 365 932 l 379 1047 l 544 1047 l 850 344 l 856 344 l 803 -18 l 775 -18 m -14 0 l -14 39 l 319 39 l 319 0 l -14 0 m 114 0 l 342 1047 l 390 1047 l 163 0 l 114 0 m 190 1010 l 190 1047 l 544 1047 l 544 1010 l 190 1010 m 781 -18 l 1000 1047 l 1049 1047 l 817 -18 l 781 -18 m 850 1010 l 850 1047 l 1169 1047 l 1169 1010 l 850 1010 m 676 1171 l 519 1360 l 582 1360 l 740 1286 l 931 1360 l 993 1360 l 758 1171 l 676 1171 z "},"Ņ":{"ha":1054,"x_min":-14,"x_max":1169,"o":"m 775 -18 l 371 932 l 365 932 l 379 1047 l 544 1047 l 850 344 l 856 344 l 803 -18 l 775 -18 m -14 0 l -14 39 l 319 39 l 319 0 l -14 0 m 114 0 l 342 1047 l 390 1047 l 163 0 l 114 0 m 190 1010 l 190 1047 l 544 1047 l 544 1010 l 190 1010 m 781 -18 l 1000 1047 l 1049 1047 l 817 -18 l 781 -18 m 850 1010 l 850 1047 l 1169 1047 l 1169 1010 l 850 1010 m 321 -433 l 301 -397 q 438 -327 393 -362 q 483 -260 483 -292 q 477 -239 483 -246 q 467 -232 471 -232 q 451 -243 460 -232 q 430 -265 443 -254 q 392 -276 417 -276 q 340 -253 357 -276 q 322 -200 322 -231 q 354 -129 322 -154 q 428 -104 386 -104 q 491 -123 467 -104 q 528 -170 515 -142 q 540 -229 540 -199 q 485 -346 540 -294 q 321 -433 429 -397 z "},"Ṅ":{"ha":1054,"x_min":-14,"x_max":1169,"o":"m 775 -18 l 371 932 l 365 932 l 379 1047 l 544 1047 l 850 344 l 856 344 l 803 -18 l 775 -18 m -14 0 l -14 39 l 319 39 l 319 0 l -14 0 m 114 0 l 342 1047 l 390 1047 l 163 0 l 114 0 m 190 1010 l 190 1047 l 544 1047 l 544 1010 l 190 1010 m 781 -18 l 1000 1047 l 1049 1047 l 817 -18 l 781 -18 m 850 1010 l 850 1047 l 1169 1047 l 1169 1010 l 850 1010 m 714 1153 q 643 1183 674 1153 q 613 1254 613 1213 q 643 1328 613 1297 q 714 1358 674 1358 q 788 1328 758 1358 q 818 1254 818 1297 q 788 1183 818 1213 q 714 1153 758 1153 z "},"ǋ":{"ha":1456,"x_min":-14,"x_max":1485,"o":"m 775 -18 l 371 932 l 365 932 l 379 1047 l 544 1047 l 850 344 l 856 344 l 803 -18 l 775 -18 m -14 0 l -14 39 l 319 39 l 319 0 l -14 0 m 114 0 l 342 1047 l 390 1047 l 163 0 l 114 0 m 190 1010 l 190 1047 l 544 1047 l 544 1010 l 190 1010 m 781 -18 l 1000 1047 l 1049 1047 l 817 -18 l 781 -18 m 850 1010 l 850 1047 l 1169 1047 l 1169 1010 l 850 1010 m 956 -450 q 853 -419 899 -450 q 808 -339 808 -389 q 829 -285 808 -304 q 885 -265 850 -265 q 938 -284 918 -265 q 957 -335 957 -303 q 954 -360 957 -347 q 951 -382 951 -372 q 978 -403 951 -403 q 995 -398 985 -403 q 1019 -372 1006 -393 q 1048 -306 1032 -351 q 1081 -182 1064 -261 l 1254 625 l 1424 625 l 1264 -94 q 1208 -261 1243 -193 q 1131 -370 1174 -329 q 1044 -431 1089 -411 q 956 -450 999 -450 m 1124 588 l 1124 625 l 1407 625 l 1407 588 l 1124 588 m 1381 815 q 1310 846 1340 815 q 1279 917 1279 876 q 1310 991 1279 961 q 1381 1021 1340 1021 q 1455 991 1425 1021 q 1485 917 1485 961 q 1455 846 1485 876 q 1381 815 1425 815 z "},"Ñ":{"ha":1054,"x_min":-14,"x_max":1169,"o":"m 775 -18 l 371 932 l 365 932 l 379 1047 l 544 1047 l 850 344 l 856 344 l 803 -18 l 775 -18 m -14 0 l -14 39 l 319 39 l 319 0 l -14 0 m 114 0 l 342 1047 l 390 1047 l 163 0 l 114 0 m 190 1010 l 190 1047 l 544 1047 l 544 1010 l 190 1010 m 781 -18 l 1000 1047 l 1049 1047 l 817 -18 l 781 -18 m 850 1010 l 850 1047 l 1169 1047 l 1169 1010 l 850 1010 m 486 1171 q 527 1260 500 1219 q 592 1326 554 1301 q 676 1350 631 1350 q 746 1334 719 1350 q 797 1302 772 1318 q 856 1286 822 1286 q 924 1309 896 1286 q 964 1353 951 1332 l 1013 1353 q 935 1219 985 1265 q 819 1172 885 1172 q 749 1188 776 1172 q 697 1220 721 1204 q 638 1236 672 1236 q 573 1217 601 1236 q 532 1171 544 1199 l 486 1171 z "},"Ŋ":{"ha":1056,"x_min":-14,"x_max":1169,"o":"m 631 -218 q 550 -197 585 -218 q 496 -143 515 -176 q 476 -72 476 -110 q 503 3 476 -29 q 572 35 529 35 q 634 10 610 35 q 658 -51 658 -14 q 648 -90 658 -76 q 627 -112 638 -103 q 617 -140 617 -122 q 626 -160 617 -153 q 656 -168 635 -168 q 694 -156 674 -168 q 736 -106 715 -144 q 775 11 757 -67 l 996 1024 l 1044 1024 l 828 36 q 788 -95 813 -37 q 725 -185 763 -153 q 631 -218 688 -218 m -14 0 l -14 39 l 319 39 l 319 0 l -14 0 m 114 0 l 342 1047 l 390 1047 l 163 0 l 114 0 m 792 60 l 371 932 l 365 932 l 379 1047 l 544 1047 l 861 433 l 867 433 l 819 60 l 792 60 m 190 1010 l 190 1047 l 544 1047 l 544 1010 l 190 1010 m 850 1010 l 850 1047 l 1169 1047 l 1169 1010 l 850 1010 z "},"O":{"ha":1082,"x_min":96,"x_max":1097,"o":"m 490 -15 q 326 19 399 -15 q 201 111 253 53 q 123 245 150 169 q 96 406 96 321 q 129 596 96 501 q 222 774 163 690 q 358 922 281 858 q 526 1023 436 986 q 707 1060 615 1060 q 867 1026 796 1060 q 990 935 939 993 q 1069 803 1042 878 q 1097 646 1097 728 q 1066 465 1097 557 q 980 286 1035 372 q 849 132 925 200 q 683 24 774 64 q 490 -15 592 -15 m 490 28 q 626 65 567 28 q 728 164 685 101 q 802 303 772 226 q 851 464 832 381 q 878 624 869 547 q 886 763 886 701 q 876 872 886 825 q 844 953 865 919 q 790 1003 824 986 q 711 1019 757 1019 q 578 983 638 1019 q 476 885 519 947 q 400 747 432 824 q 349 586 368 669 q 320 424 329 503 q 311 279 311 344 q 352 95 311 163 q 490 28 393 28 z "},"Ó":{"ha":1082,"x_min":96,"x_max":1097,"o":"m 490 -15 q 326 19 399 -15 q 201 111 253 53 q 123 245 150 169 q 96 406 96 321 q 129 596 96 501 q 222 774 163 690 q 358 922 281 858 q 526 1023 436 986 q 707 1060 615 1060 q 867 1026 796 1060 q 990 935 939 993 q 1069 803 1042 878 q 1097 646 1097 728 q 1066 465 1097 557 q 980 286 1035 372 q 849 132 925 200 q 683 24 774 64 q 490 -15 592 -15 m 490 28 q 626 65 567 28 q 728 164 685 101 q 802 303 772 226 q 851 464 832 381 q 878 624 869 547 q 886 763 886 701 q 876 872 886 825 q 844 953 865 919 q 790 1003 824 986 q 711 1019 757 1019 q 578 983 638 1019 q 476 885 519 947 q 400 747 432 824 q 349 586 368 669 q 320 424 329 503 q 311 279 311 344 q 352 95 311 163 q 490 28 393 28 m 556 1172 l 797 1319 q 865 1356 839 1346 q 915 1367 890 1367 q 965 1349 947 1367 q 982 1306 982 1332 q 962 1257 982 1279 q 897 1226 942 1235 l 639 1172 l 556 1172 z "},"Ŏ":{"ha":1082,"x_min":96,"x_max":1097,"o":"m 490 -15 q 326 19 399 -15 q 201 111 253 53 q 123 245 150 169 q 96 406 96 321 q 129 596 96 501 q 222 774 163 690 q 358 922 281 858 q 526 1023 436 986 q 707 1060 615 1060 q 867 1026 796 1060 q 990 935 939 993 q 1069 803 1042 878 q 1097 646 1097 728 q 1066 465 1097 557 q 980 286 1035 372 q 849 132 925 200 q 683 24 774 64 q 490 -15 592 -15 m 490 28 q 626 65 567 28 q 728 164 685 101 q 802 303 772 226 q 851 464 832 381 q 878 624 869 547 q 886 763 886 701 q 876 872 886 825 q 844 953 865 919 q 790 1003 824 986 q 711 1019 757 1019 q 578 983 638 1019 q 476 885 519 947 q 400 747 432 824 q 349 586 368 669 q 320 424 329 503 q 311 279 311 344 q 352 95 311 163 q 490 28 393 28 m 749 1172 q 606 1221 654 1172 q 578 1360 557 1269 l 629 1360 q 642 1308 625 1326 q 692 1282 660 1289 q 764 1275 725 1275 q 849 1283 811 1275 q 915 1309 888 1290 q 949 1360 942 1328 l 1000 1360 q 914 1222 982 1272 q 749 1172 846 1172 z "},"Ô":{"ha":1082,"x_min":96,"x_max":1097,"o":"m 490 -15 q 326 19 399 -15 q 201 111 253 53 q 123 245 150 169 q 96 406 96 321 q 129 596 96 501 q 222 774 163 690 q 358 922 281 858 q 526 1023 436 986 q 707 1060 615 1060 q 867 1026 796 1060 q 990 935 939 993 q 1069 803 1042 878 q 1097 646 1097 728 q 1066 465 1097 557 q 980 286 1035 372 q 849 132 925 200 q 683 24 774 64 q 490 -15 592 -15 m 490 28 q 626 65 567 28 q 728 164 685 101 q 802 303 772 226 q 851 464 832 381 q 878 624 869 547 q 886 763 886 701 q 876 872 886 825 q 844 953 865 919 q 790 1003 824 986 q 711 1019 757 1019 q 578 983 638 1019 q 476 885 519 947 q 400 747 432 824 q 349 586 368 669 q 320 424 329 503 q 311 279 311 344 q 352 95 311 163 q 490 28 393 28 m 522 1171 l 757 1360 l 839 1360 l 994 1171 l 932 1171 l 774 1244 l 583 1171 l 522 1171 z "},"Ố":{"ha":1082,"x_min":96,"x_max":1097,"o":"m 490 -15 q 326 19 399 -15 q 201 111 253 53 q 123 245 150 169 q 96 406 96 321 q 129 596 96 501 q 222 774 163 690 q 358 922 281 858 q 526 1023 436 986 q 707 1060 615 1060 q 867 1026 796 1060 q 990 935 939 993 q 1069 803 1042 878 q 1097 646 1097 728 q 1066 465 1097 557 q 980 286 1035 372 q 849 132 925 200 q 683 24 774 64 q 490 -15 592 -15 m 490 28 q 626 65 567 28 q 728 164 685 101 q 802 303 772 226 q 851 464 832 381 q 878 624 869 547 q 886 763 886 701 q 876 872 886 825 q 844 953 865 919 q 790 1003 824 986 q 711 1019 757 1019 q 578 983 638 1019 q 476 885 519 947 q 400 747 432 824 q 349 586 368 669 q 320 424 329 503 q 311 279 311 344 q 352 95 311 163 q 490 28 393 28 m 529 1150 l 728 1297 l 810 1297 l 960 1150 l 897 1150 l 760 1210 l 590 1150 l 529 1150 m 571 1343 l 813 1492 q 881 1528 856 1517 q 932 1539 907 1539 q 981 1522 963 1539 q 999 1478 999 1504 q 978 1429 999 1451 q 914 1397 958 1407 l 656 1343 l 571 1343 z "},"Ộ":{"ha":1082,"x_min":96,"x_max":1097,"o":"m 490 -15 q 326 19 399 -15 q 201 111 253 53 q 123 245 150 169 q 96 406 96 321 q 129 596 96 501 q 222 774 163 690 q 358 922 281 858 q 526 1023 436 986 q 707 1060 615 1060 q 867 1026 796 1060 q 990 935 939 993 q 1069 803 1042 878 q 1097 646 1097 728 q 1066 465 1097 557 q 980 286 1035 372 q 849 132 925 200 q 683 24 774 64 q 490 -15 592 -15 m 490 28 q 626 65 567 28 q 728 164 685 101 q 802 303 772 226 q 851 464 832 381 q 878 624 869 547 q 886 763 886 701 q 876 872 886 825 q 844 953 865 919 q 790 1003 824 986 q 711 1019 757 1019 q 578 983 638 1019 q 476 885 519 947 q 400 747 432 824 q 349 586 368 669 q 320 424 329 503 q 311 279 311 344 q 352 95 311 163 q 490 28 393 28 m 422 -303 q 351 -272 382 -303 q 321 -201 321 -242 q 351 -127 321 -157 q 422 -97 382 -97 q 497 -127 467 -97 q 526 -201 526 -157 q 497 -272 526 -242 q 422 -303 467 -303 m 522 1171 l 757 1360 l 839 1360 l 994 1171 l 932 1171 l 774 1244 l 583 1171 l 522 1171 z "},"Ồ":{"ha":1082,"x_min":96,"x_max":1097,"o":"m 490 -15 q 326 19 399 -15 q 201 111 253 53 q 123 245 150 169 q 96 406 96 321 q 129 596 96 501 q 222 774 163 690 q 358 922 281 858 q 526 1023 436 986 q 707 1060 615 1060 q 867 1026 796 1060 q 990 935 939 993 q 1069 803 1042 878 q 1097 646 1097 728 q 1066 465 1097 557 q 980 286 1035 372 q 849 132 925 200 q 683 24 774 64 q 490 -15 592 -15 m 490 28 q 626 65 567 28 q 728 164 685 101 q 802 303 772 226 q 851 464 832 381 q 878 624 869 547 q 886 763 886 701 q 876 872 886 825 q 844 953 865 919 q 790 1003 824 986 q 711 1019 757 1019 q 578 983 638 1019 q 476 885 519 947 q 400 747 432 824 q 349 586 368 669 q 320 424 329 503 q 311 279 311 344 q 352 95 311 163 q 490 28 393 28 m 535 1150 l 733 1297 l 815 1297 l 965 1150 l 903 1150 l 765 1210 l 596 1150 l 535 1150 m 929 1347 l 676 1406 q 628 1431 643 1413 q 613 1472 613 1450 q 633 1522 613 1500 q 690 1543 654 1543 q 735 1533 714 1543 q 796 1496 757 1522 l 1014 1347 l 929 1347 z "},"Ổ":{"ha":1082,"x_min":96,"x_max":1097,"o":"m 490 -15 q 326 19 399 -15 q 201 111 253 53 q 123 245 150 169 q 96 406 96 321 q 129 596 96 501 q 222 774 163 690 q 358 922 281 858 q 526 1023 436 986 q 707 1060 615 1060 q 867 1026 796 1060 q 990 935 939 993 q 1069 803 1042 878 q 1097 646 1097 728 q 1066 465 1097 557 q 980 286 1035 372 q 849 132 925 200 q 683 24 774 64 q 490 -15 592 -15 m 490 28 q 626 65 567 28 q 728 164 685 101 q 802 303 772 226 q 851 464 832 381 q 878 624 869 547 q 886 763 886 701 q 876 872 886 825 q 844 953 865 919 q 790 1003 824 986 q 711 1019 757 1019 q 578 983 638 1019 q 476 885 519 947 q 400 747 432 824 q 349 586 368 669 q 320 424 329 503 q 311 279 311 344 q 352 95 311 163 q 490 28 393 28 m 528 1150 l 726 1297 l 808 1297 l 958 1150 l 896 1150 l 758 1210 l 589 1150 l 528 1150 m 907 1274 q 934 1331 915 1310 q 972 1365 953 1351 q 993 1396 990 1379 q 986 1446 1000 1432 q 946 1460 972 1460 q 903 1448 921 1460 q 882 1421 885 1436 q 885 1404 881 1408 q 894 1394 889 1400 q 896 1374 899 1389 q 876 1349 893 1357 q 840 1340 860 1340 q 802 1356 815 1340 q 794 1399 789 1372 q 854 1490 807 1463 q 956 1518 901 1518 q 1057 1488 1025 1518 q 1075 1390 1089 1457 q 1054 1349 1071 1364 q 1017 1325 1038 1335 q 978 1304 996 1315 q 953 1274 960 1293 l 907 1274 z "},"Ỗ":{"ha":1082,"x_min":96,"x_max":1097,"o":"m 490 -15 q 326 19 399 -15 q 201 111 253 53 q 123 245 150 169 q 96 406 96 321 q 129 596 96 501 q 222 774 163 690 q 358 922 281 858 q 526 1023 436 986 q 707 1060 615 1060 q 867 1026 796 1060 q 990 935 939 993 q 1069 803 1042 878 q 1097 646 1097 728 q 1066 465 1097 557 q 980 286 1035 372 q 849 132 925 200 q 683 24 774 64 q 490 -15 592 -15 m 490 28 q 626 65 567 28 q 728 164 685 101 q 802 303 772 226 q 851 464 832 381 q 878 624 869 547 q 886 763 886 701 q 876 872 886 825 q 844 953 865 919 q 790 1003 824 986 q 711 1019 757 1019 q 578 983 638 1019 q 476 885 519 947 q 400 747 432 824 q 349 586 368 669 q 320 424 329 503 q 311 279 311 344 q 352 95 311 163 q 490 28 393 28 m 528 1150 l 726 1297 l 808 1297 l 958 1150 l 896 1150 l 758 1210 l 589 1150 l 528 1150 m 551 1329 q 593 1419 567 1379 q 658 1484 619 1460 q 743 1508 696 1508 q 812 1492 785 1508 q 864 1460 839 1476 q 922 1444 889 1444 q 990 1467 963 1444 q 1029 1511 1018 1490 l 1078 1511 q 1001 1378 1050 1425 q 885 1331 951 1331 q 815 1347 842 1331 q 763 1378 788 1363 q 703 1394 739 1394 q 639 1376 667 1394 q 597 1329 611 1357 l 551 1329 z "},"Ȍ":{"ha":1082,"x_min":96,"x_max":1097,"o":"m 490 -15 q 326 19 399 -15 q 201 111 253 53 q 123 245 150 169 q 96 406 96 321 q 129 596 96 501 q 222 774 163 690 q 358 922 281 858 q 526 1023 436 986 q 707 1060 615 1060 q 867 1026 796 1060 q 990 935 939 993 q 1069 803 1042 878 q 1097 646 1097 728 q 1066 465 1097 557 q 980 286 1035 372 q 849 132 925 200 q 683 24 774 64 q 490 -15 592 -15 m 490 28 q 626 65 567 28 q 728 164 685 101 q 802 303 772 226 q 851 464 832 381 q 878 624 869 547 q 886 763 886 701 q 876 872 886 825 q 844 953 865 919 q 790 1003 824 986 q 711 1019 757 1019 q 578 983 638 1019 q 476 885 519 947 q 400 747 432 824 q 349 586 368 669 q 320 424 329 503 q 311 279 311 344 q 352 95 311 163 q 490 28 393 28 m 981 1171 l 760 1226 q 714 1252 729 1235 q 699 1290 699 1269 q 718 1338 699 1317 q 772 1358 738 1358 q 816 1349 794 1358 q 874 1314 838 1340 l 1061 1171 l 981 1171 m 678 1171 l 458 1226 q 411 1252 426 1235 q 396 1290 396 1269 q 416 1338 396 1317 q 469 1358 436 1358 q 514 1349 493 1358 q 571 1314 535 1340 l 758 1171 l 678 1171 z "},"Ö":{"ha":1082,"x_min":96,"x_max":1097,"o":"m 490 -15 q 326 19 399 -15 q 201 111 253 53 q 123 245 150 169 q 96 406 96 321 q 129 596 96 501 q 222 774 163 690 q 358 922 281 858 q 526 1023 436 986 q 707 1060 615 1060 q 867 1026 796 1060 q 990 935 939 993 q 1069 803 1042 878 q 1097 646 1097 728 q 1066 465 1097 557 q 980 286 1035 372 q 849 132 925 200 q 683 24 774 64 q 490 -15 592 -15 m 490 28 q 626 65 567 28 q 728 164 685 101 q 802 303 772 226 q 851 464 832 381 q 878 624 869 547 q 886 763 886 701 q 876 872 886 825 q 844 953 865 919 q 790 1003 824 986 q 711 1019 757 1019 q 578 983 638 1019 q 476 885 519 947 q 400 747 432 824 q 349 586 368 669 q 320 424 329 503 q 311 279 311 344 q 352 95 311 163 q 490 28 393 28 m 913 1183 q 847 1210 875 1183 q 818 1276 818 1238 q 847 1342 818 1315 q 913 1369 875 1369 q 980 1342 953 1369 q 1007 1276 1007 1315 q 980 1210 1007 1238 q 913 1183 953 1183 m 617 1183 q 549 1210 576 1183 q 522 1276 522 1238 q 549 1342 522 1315 q 617 1369 576 1369 q 683 1342 656 1369 q 711 1276 711 1315 q 683 1210 711 1238 q 617 1183 656 1183 z "},"Ọ":{"ha":1082,"x_min":96,"x_max":1097,"o":"m 490 -15 q 326 19 399 -15 q 201 111 253 53 q 123 245 150 169 q 96 406 96 321 q 129 596 96 501 q 222 774 163 690 q 358 922 281 858 q 526 1023 436 986 q 707 1060 615 1060 q 867 1026 796 1060 q 990 935 939 993 q 1069 803 1042 878 q 1097 646 1097 728 q 1066 465 1097 557 q 980 286 1035 372 q 849 132 925 200 q 683 24 774 64 q 490 -15 592 -15 m 490 28 q 626 65 567 28 q 728 164 685 101 q 802 303 772 226 q 851 464 832 381 q 878 624 869 547 q 886 763 886 701 q 876 872 886 825 q 844 953 865 919 q 790 1003 824 986 q 711 1019 757 1019 q 578 983 638 1019 q 476 885 519 947 q 400 747 432 824 q 349 586 368 669 q 320 424 329 503 q 311 279 311 344 q 352 95 311 163 q 490 28 393 28 m 422 -303 q 351 -272 382 -303 q 321 -201 321 -242 q 351 -127 321 -157 q 422 -97 382 -97 q 497 -127 467 -97 q 526 -201 526 -157 q 497 -272 526 -242 q 422 -303 467 -303 z "},"Ò":{"ha":1082,"x_min":96,"x_max":1097,"o":"m 490 -15 q 326 19 399 -15 q 201 111 253 53 q 123 245 150 169 q 96 406 96 321 q 129 596 96 501 q 222 774 163 690 q 358 922 281 858 q 526 1023 436 986 q 707 1060 615 1060 q 867 1026 796 1060 q 990 935 939 993 q 1069 803 1042 878 q 1097 646 1097 728 q 1066 465 1097 557 q 980 286 1035 372 q 849 132 925 200 q 683 24 774 64 q 490 -15 592 -15 m 490 28 q 626 65 567 28 q 728 164 685 101 q 802 303 772 226 q 851 464 832 381 q 878 624 869 547 q 886 763 886 701 q 876 872 886 825 q 844 953 865 919 q 790 1003 824 986 q 711 1019 757 1019 q 578 983 638 1019 q 476 885 519 947 q 400 747 432 824 q 349 586 368 669 q 320 424 329 503 q 311 279 311 344 q 352 95 311 163 q 490 28 393 28 m 871 1171 l 618 1229 q 569 1255 585 1236 q 553 1296 553 1274 q 574 1345 553 1324 q 631 1367 594 1367 q 676 1356 654 1367 q 736 1319 697 1346 l 956 1171 l 871 1171 z "},"Ỏ":{"ha":1082,"x_min":96,"x_max":1097,"o":"m 490 -15 q 326 19 399 -15 q 201 111 253 53 q 123 245 150 169 q 96 406 96 321 q 129 596 96 501 q 222 774 163 690 q 358 922 281 858 q 526 1023 436 986 q 707 1060 615 1060 q 867 1026 796 1060 q 990 935 939 993 q 1069 803 1042 878 q 1097 646 1097 728 q 1066 465 1097 557 q 980 286 1035 372 q 849 132 925 200 q 683 24 774 64 q 490 -15 592 -15 m 490 28 q 626 65 567 28 q 728 164 685 101 q 802 303 772 226 q 851 464 832 381 q 878 624 869 547 q 886 763 886 701 q 876 872 886 825 q 844 953 865 919 q 790 1003 824 986 q 711 1019 757 1019 q 578 983 638 1019 q 476 885 519 947 q 400 747 432 824 q 349 586 368 669 q 320 424 329 503 q 311 279 311 344 q 352 95 311 163 q 490 28 393 28 m 751 1143 q 770 1188 757 1171 q 798 1219 783 1206 q 824 1245 813 1233 q 836 1272 835 1257 q 828 1317 840 1304 q 789 1329 815 1329 q 746 1317 764 1329 q 725 1290 728 1306 q 728 1274 724 1278 q 738 1264 733 1269 q 739 1243 742 1258 q 721 1218 738 1226 q 683 1210 704 1210 q 648 1225 660 1210 q 638 1263 636 1240 q 667 1335 642 1308 q 728 1375 692 1363 q 800 1388 764 1388 q 895 1360 865 1388 q 919 1278 925 1332 q 901 1233 917 1250 q 863 1202 885 1215 q 823 1176 842 1189 q 797 1143 804 1163 l 751 1143 z "},"Ơ":{"ha":1082,"x_min":96,"x_max":1097,"o":"m 490 -15 q 326 19 399 -15 q 201 111 253 53 q 123 245 150 169 q 96 406 96 321 q 129 596 96 501 q 222 774 163 690 q 358 922 281 858 q 526 1023 436 986 q 707 1060 615 1060 q 867 1026 796 1060 q 990 935 939 993 q 1069 803 1042 878 q 1097 646 1097 728 q 1066 465 1097 557 q 980 286 1035 372 q 849 132 925 200 q 683 24 774 64 q 490 -15 592 -15 m 490 28 q 626 65 567 28 q 728 164 685 101 q 802 303 772 226 q 851 464 832 381 q 878 624 869 547 q 886 763 886 701 q 876 872 886 825 q 844 953 865 919 q 790 1003 824 986 q 711 1019 757 1019 q 578 983 638 1019 q 476 885 519 947 q 400 747 432 824 q 349 586 368 669 q 320 424 329 503 q 311 279 311 344 q 352 95 311 163 q 490 28 393 28 m 822 1004 l 779 1049 q 871 1052 836 1046 q 924 1072 906 1058 q 953 1108 943 1086 q 969 1158 963 1129 l 1067 1158 q 1027 1062 1054 1096 q 951 1016 1000 1028 q 822 1004 901 1004 z "},"Ớ":{"ha":1082,"x_min":96,"x_max":1097,"o":"m 490 -15 q 326 19 399 -15 q 201 111 253 53 q 123 245 150 169 q 96 406 96 321 q 129 596 96 501 q 222 774 163 690 q 358 922 281 858 q 526 1023 436 986 q 707 1060 615 1060 q 867 1026 796 1060 q 990 935 939 993 q 1069 803 1042 878 q 1097 646 1097 728 q 1066 465 1097 557 q 980 286 1035 372 q 849 132 925 200 q 683 24 774 64 q 490 -15 592 -15 m 490 28 q 626 65 567 28 q 728 164 685 101 q 802 303 772 226 q 851 464 832 381 q 878 624 869 547 q 886 763 886 701 q 876 872 886 825 q 844 953 865 919 q 790 1003 824 986 q 711 1019 757 1019 q 578 983 638 1019 q 476 885 519 947 q 400 747 432 824 q 349 586 368 669 q 320 424 329 503 q 311 279 311 344 q 352 95 311 163 q 490 28 393 28 m 822 1004 l 779 1049 q 871 1052 836 1046 q 924 1072 906 1058 q 953 1108 943 1086 q 969 1158 963 1129 l 1067 1158 q 1027 1062 1054 1096 q 951 1016 1000 1028 q 822 1004 901 1004 m 549 1172 l 790 1319 q 858 1356 832 1346 q 908 1367 883 1367 q 958 1349 940 1367 q 975 1306 975 1332 q 955 1257 975 1279 q 890 1226 935 1235 l 632 1172 l 549 1172 z "},"Ợ":{"ha":1082,"x_min":96,"x_max":1097,"o":"m 490 -15 q 326 19 399 -15 q 201 111 253 53 q 123 245 150 169 q 96 406 96 321 q 129 596 96 501 q 222 774 163 690 q 358 922 281 858 q 526 1023 436 986 q 707 1060 615 1060 q 867 1026 796 1060 q 990 935 939 993 q 1069 803 1042 878 q 1097 646 1097 728 q 1066 465 1097 557 q 980 286 1035 372 q 849 132 925 200 q 683 24 774 64 q 490 -15 592 -15 m 490 28 q 626 65 567 28 q 728 164 685 101 q 802 303 772 226 q 851 464 832 381 q 878 624 869 547 q 886 763 886 701 q 876 872 886 825 q 844 953 865 919 q 790 1003 824 986 q 711 1019 757 1019 q 578 983 638 1019 q 476 885 519 947 q 400 747 432 824 q 349 586 368 669 q 320 424 329 503 q 311 279 311 344 q 352 95 311 163 q 490 28 393 28 m 822 1004 l 779 1049 q 871 1052 836 1046 q 924 1072 906 1058 q 953 1108 943 1086 q 969 1158 963 1129 l 1067 1158 q 1027 1062 1054 1096 q 951 1016 1000 1028 q 822 1004 901 1004 m 422 -303 q 351 -272 382 -303 q 321 -201 321 -242 q 351 -127 321 -157 q 422 -97 382 -97 q 497 -127 467 -97 q 526 -201 526 -157 q 497 -272 526 -242 q 422 -303 467 -303 z "},"Ờ":{"ha":1082,"x_min":96,"x_max":1097,"o":"m 490 -15 q 326 19 399 -15 q 201 111 253 53 q 123 245 150 169 q 96 406 96 321 q 129 596 96 501 q 222 774 163 690 q 358 922 281 858 q 526 1023 436 986 q 707 1060 615 1060 q 867 1026 796 1060 q 990 935 939 993 q 1069 803 1042 878 q 1097 646 1097 728 q 1066 465 1097 557 q 980 286 1035 372 q 849 132 925 200 q 683 24 774 64 q 490 -15 592 -15 m 490 28 q 626 65 567 28 q 728 164 685 101 q 802 303 772 226 q 851 464 832 381 q 878 624 869 547 q 886 763 886 701 q 876 872 886 825 q 844 953 865 919 q 790 1003 824 986 q 711 1019 757 1019 q 578 983 638 1019 q 476 885 519 947 q 400 747 432 824 q 349 586 368 669 q 320 424 329 503 q 311 279 311 344 q 352 95 311 163 q 490 28 393 28 m 822 1004 l 779 1049 q 871 1052 836 1046 q 924 1072 906 1058 q 953 1108 943 1086 q 969 1158 963 1129 l 1067 1158 q 1027 1062 1054 1096 q 951 1016 1000 1028 q 822 1004 901 1004 m 864 1171 l 611 1229 q 562 1255 578 1236 q 546 1296 546 1274 q 567 1345 546 1324 q 624 1367 588 1367 q 669 1356 647 1367 q 729 1319 690 1346 l 949 1171 l 864 1171 z "},"Ở":{"ha":1082,"x_min":96,"x_max":1097,"o":"m 490 -15 q 326 19 399 -15 q 201 111 253 53 q 123 245 150 169 q 96 406 96 321 q 129 596 96 501 q 222 774 163 690 q 358 922 281 858 q 526 1023 436 986 q 707 1060 615 1060 q 867 1026 796 1060 q 990 935 939 993 q 1069 803 1042 878 q 1097 646 1097 728 q 1066 465 1097 557 q 980 286 1035 372 q 849 132 925 200 q 683 24 774 64 q 490 -15 592 -15 m 490 28 q 626 65 567 28 q 728 164 685 101 q 802 303 772 226 q 851 464 832 381 q 878 624 869 547 q 886 763 886 701 q 876 872 886 825 q 844 953 865 919 q 790 1003 824 986 q 711 1019 757 1019 q 578 983 638 1019 q 476 885 519 947 q 400 747 432 824 q 349 586 368 669 q 320 424 329 503 q 311 279 311 344 q 352 95 311 163 q 490 28 393 28 m 822 1004 l 779 1049 q 871 1052 836 1046 q 924 1072 906 1058 q 953 1108 943 1086 q 969 1158 963 1129 l 1067 1158 q 1027 1062 1054 1096 q 951 1016 1000 1028 q 822 1004 901 1004 m 744 1143 q 763 1188 750 1171 q 791 1219 776 1206 q 817 1245 806 1233 q 829 1272 828 1257 q 821 1317 833 1304 q 782 1329 808 1329 q 739 1317 757 1329 q 718 1290 721 1306 q 722 1274 717 1278 q 731 1264 726 1269 q 732 1243 735 1258 q 714 1218 731 1226 q 676 1210 697 1210 q 641 1225 653 1210 q 631 1263 629 1240 q 660 1335 635 1308 q 721 1375 685 1363 q 793 1388 757 1388 q 888 1360 858 1388 q 913 1278 918 1332 q 894 1233 910 1250 q 856 1202 878 1215 q 816 1176 835 1189 q 790 1143 797 1163 l 744 1143 z "},"Ỡ":{"ha":1082,"x_min":96,"x_max":1097,"o":"m 490 -15 q 326 19 399 -15 q 201 111 253 53 q 123 245 150 169 q 96 406 96 321 q 129 596 96 501 q 222 774 163 690 q 358 922 281 858 q 526 1023 436 986 q 707 1060 615 1060 q 867 1026 796 1060 q 990 935 939 993 q 1069 803 1042 878 q 1097 646 1097 728 q 1066 465 1097 557 q 980 286 1035 372 q 849 132 925 200 q 683 24 774 64 q 490 -15 592 -15 m 490 28 q 626 65 567 28 q 728 164 685 101 q 802 303 772 226 q 851 464 832 381 q 878 624 869 547 q 886 763 886 701 q 876 872 886 825 q 844 953 865 919 q 790 1003 824 986 q 711 1019 757 1019 q 578 983 638 1019 q 476 885 519 947 q 400 747 432 824 q 349 586 368 669 q 320 424 329 503 q 311 279 311 344 q 352 95 311 163 q 490 28 393 28 m 822 1004 l 779 1049 q 871 1052 836 1046 q 924 1072 906 1058 q 953 1108 943 1086 q 969 1158 963 1129 l 1067 1158 q 1027 1062 1054 1096 q 951 1016 1000 1028 q 822 1004 901 1004 m 511 1171 q 552 1260 525 1219 q 617 1326 579 1301 q 701 1350 656 1350 q 771 1334 744 1350 q 822 1302 797 1318 q 881 1286 847 1286 q 949 1309 921 1286 q 989 1353 976 1332 l 1038 1353 q 960 1219 1010 1265 q 844 1172 910 1172 q 774 1188 801 1172 q 722 1220 746 1204 q 663 1236 697 1236 q 598 1217 626 1236 q 557 1171 569 1199 l 511 1171 z "},"Ő":{"ha":1082,"x_min":96,"x_max":1100,"o":"m 490 -15 q 326 19 399 -15 q 201 111 253 53 q 123 245 150 169 q 96 406 96 321 q 129 596 96 501 q 222 774 163 690 q 358 922 281 858 q 526 1023 436 986 q 707 1060 615 1060 q 867 1026 796 1060 q 990 935 939 993 q 1069 803 1042 878 q 1097 646 1097 728 q 1066 465 1097 557 q 980 286 1035 372 q 849 132 925 200 q 683 24 774 64 q 490 -15 592 -15 m 490 28 q 626 65 567 28 q 728 164 685 101 q 802 303 772 226 q 851 464 832 381 q 878 624 869 547 q 886 763 886 701 q 876 872 886 825 q 844 953 865 919 q 790 1003 824 986 q 711 1019 757 1019 q 578 983 638 1019 q 476 885 519 947 q 400 747 432 824 q 349 586 368 669 q 320 424 329 503 q 311 279 311 344 q 352 95 311 163 q 490 28 393 28 m 713 1171 l 929 1325 q 988 1357 963 1349 q 1038 1365 1014 1365 q 1083 1349 1067 1365 q 1100 1307 1100 1333 q 1080 1262 1100 1282 q 1018 1231 1060 1242 l 792 1171 l 713 1171 m 408 1171 l 625 1325 q 685 1357 660 1349 q 733 1365 710 1365 q 779 1349 763 1365 q 796 1307 796 1333 q 776 1262 796 1282 q 714 1231 757 1242 l 489 1171 l 408 1171 z "},"Ȏ":{"ha":1082,"x_min":96,"x_max":1097,"o":"m 490 -15 q 326 19 399 -15 q 201 111 253 53 q 123 245 150 169 q 96 406 96 321 q 129 596 96 501 q 222 774 163 690 q 358 922 281 858 q 526 1023 436 986 q 707 1060 615 1060 q 867 1026 796 1060 q 990 935 939 993 q 1069 803 1042 878 q 1097 646 1097 728 q 1066 465 1097 557 q 980 286 1035 372 q 849 132 925 200 q 683 24 774 64 q 490 -15 592 -15 m 490 28 q 626 65 567 28 q 728 164 685 101 q 802 303 772 226 q 851 464 832 381 q 878 624 869 547 q 886 763 886 701 q 876 872 886 825 q 844 953 865 919 q 790 1003 824 986 q 711 1019 757 1019 q 578 983 638 1019 q 476 885 519 947 q 400 747 432 824 q 349 586 368 669 q 320 424 329 503 q 311 279 311 344 q 352 95 311 163 q 490 28 393 28 m 535 1171 q 617 1313 551 1258 q 782 1367 683 1367 q 915 1328 867 1367 q 963 1224 963 1290 q 956 1171 963 1200 l 906 1171 q 873 1243 911 1222 q 769 1264 835 1264 q 647 1242 696 1264 q 585 1171 597 1219 l 535 1171 z "},"Ō":{"ha":1082,"x_min":96,"x_max":1097,"o":"m 490 -15 q 326 19 399 -15 q 201 111 253 53 q 123 245 150 169 q 96 406 96 321 q 129 596 96 501 q 222 774 163 690 q 358 922 281 858 q 526 1023 436 986 q 707 1060 615 1060 q 867 1026 796 1060 q 990 935 939 993 q 1069 803 1042 878 q 1097 646 1097 728 q 1066 465 1097 557 q 980 286 1035 372 q 849 132 925 200 q 683 24 774 64 q 490 -15 592 -15 m 490 28 q 626 65 567 28 q 728 164 685 101 q 802 303 772 226 q 851 464 832 381 q 878 624 869 547 q 886 763 886 701 q 876 872 886 825 q 844 953 865 919 q 790 1003 824 986 q 711 1019 757 1019 q 578 983 638 1019 q 476 885 519 947 q 400 747 432 824 q 349 586 368 669 q 320 424 329 503 q 311 279 311 344 q 352 95 311 163 q 490 28 393 28 m 542 1200 l 565 1306 l 1024 1306 l 1000 1200 l 542 1200 z "},"Ǫ":{"ha":1082,"x_min":96,"x_max":1097,"o":"m 490 -15 q 326 19 399 -15 q 201 111 253 53 q 123 245 150 169 q 96 406 96 321 q 129 596 96 501 q 222 774 163 690 q 358 922 281 858 q 526 1023 436 986 q 707 1060 615 1060 q 867 1026 796 1060 q 990 935 939 993 q 1069 803 1042 878 q 1097 646 1097 728 q 1066 465 1097 557 q 980 286 1035 372 q 849 132 925 200 q 683 24 774 64 q 490 -15 592 -15 m 490 28 q 626 65 567 28 q 728 164 685 101 q 802 303 772 226 q 851 464 832 381 q 878 624 869 547 q 886 763 886 701 q 876 872 886 825 q 844 953 865 919 q 790 1003 824 986 q 711 1019 757 1019 q 578 983 638 1019 q 476 885 519 947 q 400 747 432 824 q 349 586 368 669 q 320 424 329 503 q 311 279 311 344 q 352 95 311 163 q 490 28 393 28 m 374 -325 q 290 -301 321 -325 q 258 -236 258 -276 q 325 -111 258 -176 q 521 21 392 -46 l 578 17 q 433 -92 486 -35 q 381 -199 381 -150 q 397 -240 381 -225 q 442 -254 414 -254 q 482 -247 460 -254 q 533 -225 504 -240 l 553 -258 q 473 -306 524 -286 q 374 -325 422 -325 z "},"Ø":{"ha":1082,"x_min":68,"x_max":1160,"o":"m 68 -74 l 214 96 q 126 235 157 154 q 96 406 96 317 q 129 596 96 501 q 222 774 163 690 q 358 922 281 858 q 526 1023 436 986 q 707 1060 615 1060 q 848 1035 783 1060 q 961 965 913 1010 l 1093 1117 l 1160 1117 l 997 928 q 1071 799 1044 872 q 1097 646 1097 725 q 1066 465 1097 557 q 980 286 1035 372 q 849 132 925 200 q 683 24 774 64 q 490 -15 592 -15 q 358 6 418 -15 q 251 64 299 26 l 135 -74 l 68 -74 m 490 28 q 641 78 574 28 q 758 213 708 129 q 838 399 807 297 q 880 605 868 501 q 883 796 892 708 l 328 151 q 384 60 344 92 q 490 28 424 28 m 315 214 l 876 865 q 846 949 867 915 q 792 1001 825 983 q 711 1019 758 1019 q 578 983 638 1019 q 476 885 519 947 q 400 747 432 824 q 349 586 368 669 q 320 424 329 503 q 311 279 311 344 q 313 247 311 267 q 315 214 314 226 z "},"Ǿ":{"ha":1082,"x_min":68,"x_max":1160,"o":"m 68 -74 l 214 96 q 126 235 157 154 q 96 406 96 317 q 129 596 96 501 q 222 774 163 690 q 358 922 281 858 q 526 1023 436 986 q 707 1060 615 1060 q 848 1035 783 1060 q 961 965 913 1010 l 1093 1117 l 1160 1117 l 997 928 q 1071 799 1044 872 q 1097 646 1097 725 q 1066 465 1097 557 q 980 286 1035 372 q 849 132 925 200 q 683 24 774 64 q 490 -15 592 -15 q 358 6 418 -15 q 251 64 299 26 l 135 -74 l 68 -74 m 490 28 q 641 78 574 28 q 758 213 708 129 q 838 399 807 297 q 880 605 868 501 q 883 796 892 708 l 328 151 q 384 60 344 92 q 490 28 424 28 m 315 214 l 876 865 q 846 949 867 915 q 792 1001 825 983 q 711 1019 758 1019 q 578 983 638 1019 q 476 885 519 947 q 400 747 432 824 q 349 586 368 669 q 320 424 329 503 q 311 279 311 344 q 313 247 311 267 q 315 214 314 226 m 538 1172 l 779 1319 q 847 1356 821 1346 q 897 1367 872 1367 q 947 1349 929 1367 q 964 1306 964 1332 q 944 1257 964 1279 q 879 1226 924 1235 l 621 1172 l 538 1172 z "},"Õ":{"ha":1082,"x_min":96,"x_max":1097,"o":"m 490 -15 q 326 19 399 -15 q 201 111 253 53 q 123 245 150 169 q 96 406 96 321 q 129 596 96 501 q 222 774 163 690 q 358 922 281 858 q 526 1023 436 986 q 707 1060 615 1060 q 867 1026 796 1060 q 990 935 939 993 q 1069 803 1042 878 q 1097 646 1097 728 q 1066 465 1097 557 q 980 286 1035 372 q 849 132 925 200 q 683 24 774 64 q 490 -15 592 -15 m 490 28 q 626 65 567 28 q 728 164 685 101 q 802 303 772 226 q 851 464 832 381 q 878 624 869 547 q 886 763 886 701 q 876 872 886 825 q 844 953 865 919 q 790 1003 824 986 q 711 1019 757 1019 q 578 983 638 1019 q 476 885 519 947 q 400 747 432 824 q 349 586 368 669 q 320 424 329 503 q 311 279 311 344 q 352 95 311 163 q 490 28 393 28 m 518 1171 q 559 1260 532 1219 q 624 1326 586 1301 q 708 1350 663 1350 q 778 1334 751 1350 q 829 1302 804 1318 q 888 1286 854 1286 q 956 1309 928 1286 q 996 1353 983 1332 l 1044 1353 q 967 1219 1017 1265 q 851 1172 917 1172 q 781 1188 808 1172 q 728 1220 753 1204 q 669 1236 704 1236 q 605 1217 633 1236 q 564 1171 576 1199 l 518 1171 z "},"Œ":{"ha":1561,"x_min":96,"x_max":1593,"o":"m 472 0 q 314 33 383 0 q 196 121 244 65 q 122 248 147 176 q 96 396 96 319 q 129 585 96 492 q 222 763 163 679 q 358 910 281 846 q 524 1011 436 975 q 701 1047 611 1047 q 836 1015 776 1047 q 938 926 896 982 q 1003 799 981 869 q 1026 651 1026 728 q 998 474 1026 565 q 918 297 969 382 q 798 146 867 213 q 647 40 729 79 q 472 0 564 0 m 464 43 q 595 82 538 43 q 697 185 653 121 q 772 330 742 250 q 823 494 803 410 q 852 657 843 579 q 861 793 861 735 q 844 915 861 868 q 794 985 828 963 q 708 1007 760 1007 q 576 969 635 1007 q 474 866 518 931 q 399 722 431 801 q 347 558 367 642 q 317 396 326 474 q 308 260 308 318 q 350 91 308 139 q 464 43 392 43 m 489 0 l 631 56 l 754 156 l 794 39 l 1140 39 q 1254 62 1203 39 q 1354 146 1306 85 q 1456 322 1403 207 l 1504 322 l 1421 0 l 489 0 m 718 0 l 946 1047 l 1132 1047 l 899 0 l 718 0 m 1203 315 q 1190 446 1203 401 q 1147 506 1176 490 q 1067 522 1117 522 l 946 522 l 946 561 l 1089 561 q 1177 578 1140 561 q 1242 634 1214 594 q 1292 743 1271 674 l 1333 743 l 1247 315 l 1203 315 m 1500 765 q 1481 915 1500 863 q 1411 989 1461 968 q 1269 1010 1361 1010 l 996 1010 l 922 885 l 817 1006 l 706 1047 l 1593 1047 l 1549 765 l 1500 765 z "},"P":{"ha":921,"x_min":-21,"x_max":967,"o":"m 251 483 l 251 518 l 494 518 q 691 597 625 518 q 757 838 757 676 q 743 938 757 900 q 692 992 729 975 q 581 1010 654 1010 l 172 1010 l 172 1047 l 597 1047 q 873 977 779 1047 q 967 792 967 907 q 907 630 967 700 q 738 522 847 560 q 479 483 629 483 l 251 483 m -21 0 l -21 39 l 415 39 l 415 0 l -21 0 m 86 0 l 314 1047 l 500 1047 l 267 0 l 86 0 z "},"Þ":{"ha":878,"x_min":-26,"x_max":910,"o":"m 81 0 l 308 1047 l 494 1047 l 261 0 l 81 0 m -26 0 l -26 39 l 410 39 l 410 0 l -26 0 m 194 246 l 194 281 l 438 281 q 634 360 568 281 q 700 599 700 439 q 686 699 700 661 q 635 754 672 738 q 524 771 597 771 l 303 771 l 303 810 l 540 810 q 816 739 722 810 q 910 554 910 668 q 850 392 910 461 q 681 284 790 322 q 422 246 572 246 l 194 246 m 181 1008 l 181 1047 l 624 1047 l 624 1008 l 181 1008 z "},"Q":{"ha":1082,"x_min":97,"x_max":1106,"o":"m 483 -15 q 319 18 392 -15 q 198 109 247 51 q 123 240 149 167 q 97 393 97 314 q 132 586 97 490 q 228 767 167 682 q 370 919 290 853 q 541 1022 450 985 q 725 1060 632 1060 q 885 1026 814 1060 q 1005 935 956 993 q 1080 805 1054 878 q 1106 654 1106 732 q 1074 472 1106 565 q 984 291 1042 378 q 849 135 926 204 q 678 25 771 65 q 483 -15 585 -15 m 693 -336 q 442 -265 531 -336 q 354 -56 354 -194 q 356 -21 354 -40 q 358 15 357 -1 l 589 17 q 571 -47 576 -14 q 565 -118 565 -79 q 612 -244 565 -204 q 742 -285 658 -285 q 788 -282 763 -285 q 839 -274 813 -279 l 849 -322 q 767 -333 806 -329 q 693 -336 728 -336 m 485 28 q 624 67 563 28 q 731 174 685 107 q 808 322 776 240 q 860 490 840 404 q 890 654 881 576 q 899 790 899 732 q 880 922 899 872 q 824 996 861 972 q 729 1019 786 1019 q 592 981 653 1019 q 484 876 531 942 q 405 729 438 810 q 351 563 372 649 q 319 400 329 478 q 310 263 310 322 q 353 85 310 142 q 485 28 396 28 z "},"R":{"ha":990,"x_min":-1,"x_max":1014,"o":"m 106 0 l 333 1047 l 519 1047 l 286 0 l 106 0 m -1 0 l -1 39 l 435 39 l 435 0 l -1 0 m 865 -14 q 748 8 793 -14 q 678 65 703 29 q 644 144 654 100 q 631 235 633 189 q 626 324 629 282 q 606 438 624 390 q 552 513 589 486 q 451 539 515 539 l 622 544 l 622 539 q 731 488 689 517 q 796 422 772 460 q 830 331 819 383 q 844 208 840 278 q 851 119 847 156 q 870 63 854 82 q 925 43 886 43 q 961 49 946 43 q 992 65 976 54 l 1014 35 q 957 -1 992 13 q 865 -14 922 -14 m 271 539 l 271 578 l 532 578 q 713 651 650 578 q 776 857 776 724 q 763 945 776 911 q 710 994 749 979 q 600 1010 672 1010 l 192 1010 l 192 1047 l 617 1047 q 892 981 799 1047 q 986 808 986 914 q 859 611 986 683 q 499 539 732 539 l 271 539 z "},"Ŕ":{"ha":990,"x_min":-1,"x_max":1014,"o":"m 106 0 l 333 1047 l 519 1047 l 286 0 l 106 0 m -1 0 l -1 39 l 435 39 l 435 0 l -1 0 m 865 -14 q 748 8 793 -14 q 678 65 703 29 q 644 144 654 100 q 631 235 633 189 q 626 324 629 282 q 606 438 624 390 q 552 513 589 486 q 451 539 515 539 l 622 544 l 622 539 q 731 488 689 517 q 796 422 772 460 q 830 331 819 383 q 844 208 840 278 q 851 119 847 156 q 870 63 854 82 q 925 43 886 43 q 961 49 946 43 q 992 65 976 54 l 1014 35 q 957 -1 992 13 q 865 -14 922 -14 m 271 539 l 271 578 l 532 578 q 713 651 650 578 q 776 857 776 724 q 763 945 776 911 q 710 994 749 979 q 600 1010 672 1010 l 192 1010 l 192 1047 l 617 1047 q 892 981 799 1047 q 986 808 986 914 q 859 611 986 683 q 499 539 732 539 l 271 539 m 492 1172 l 733 1319 q 801 1356 775 1346 q 851 1367 826 1367 q 901 1349 883 1367 q 918 1306 918 1332 q 898 1257 918 1279 q 833 1226 878 1235 l 575 1172 l 492 1172 z "},"Ř":{"ha":990,"x_min":-1,"x_max":1014,"o":"m 106 0 l 333 1047 l 519 1047 l 286 0 l 106 0 m -1 0 l -1 39 l 435 39 l 435 0 l -1 0 m 865 -14 q 748 8 793 -14 q 678 65 703 29 q 644 144 654 100 q 631 235 633 189 q 626 324 629 282 q 606 438 624 390 q 552 513 589 486 q 451 539 515 539 l 622 544 l 622 539 q 731 488 689 517 q 796 422 772 460 q 830 331 819 383 q 844 208 840 278 q 851 119 847 156 q 870 63 854 82 q 925 43 886 43 q 961 49 946 43 q 992 65 976 54 l 1014 35 q 957 -1 992 13 q 865 -14 922 -14 m 271 539 l 271 578 l 532 578 q 713 651 650 578 q 776 857 776 724 q 763 945 776 911 q 710 994 749 979 q 600 1010 672 1010 l 192 1010 l 192 1047 l 617 1047 q 892 981 799 1047 q 986 808 986 914 q 859 611 986 683 q 499 539 732 539 l 271 539 m 644 1171 l 488 1360 l 550 1360 l 708 1286 l 899 1360 l 961 1360 l 726 1171 l 644 1171 z "},"Ŗ":{"ha":990,"x_min":-1,"x_max":1014,"o":"m 106 0 l 333 1047 l 519 1047 l 286 0 l 106 0 m -1 0 l -1 39 l 435 39 l 435 0 l -1 0 m 865 -14 q 748 8 793 -14 q 678 65 703 29 q 644 144 654 100 q 631 235 633 189 q 626 324 629 282 q 606 438 624 390 q 552 513 589 486 q 451 539 515 539 l 622 544 l 622 539 q 731 488 689 517 q 796 422 772 460 q 830 331 819 383 q 844 208 840 278 q 851 119 847 156 q 870 63 854 82 q 925 43 886 43 q 961 49 946 43 q 992 65 976 54 l 1014 35 q 957 -1 992 13 q 865 -14 922 -14 m 271 539 l 271 578 l 532 578 q 713 651 650 578 q 776 857 776 724 q 763 945 776 911 q 710 994 749 979 q 600 1010 672 1010 l 192 1010 l 192 1047 l 617 1047 q 892 981 799 1047 q 986 808 986 914 q 859 611 986 683 q 499 539 732 539 l 271 539 m 289 -433 l 269 -397 q 406 -327 361 -362 q 451 -260 451 -292 q 445 -239 451 -246 q 435 -232 439 -232 q 419 -243 428 -232 q 398 -265 411 -254 q 360 -276 385 -276 q 308 -253 325 -276 q 290 -200 290 -231 q 322 -129 290 -154 q 396 -104 354 -104 q 459 -123 435 -104 q 496 -170 483 -142 q 508 -229 508 -199 q 453 -346 508 -294 q 289 -433 397 -397 z "},"Ȑ":{"ha":990,"x_min":-1,"x_max":1014,"o":"m 106 0 l 333 1047 l 519 1047 l 286 0 l 106 0 m -1 0 l -1 39 l 435 39 l 435 0 l -1 0 m 865 -14 q 748 8 793 -14 q 678 65 703 29 q 644 144 654 100 q 631 235 633 189 q 626 324 629 282 q 606 438 624 390 q 552 513 589 486 q 451 539 515 539 l 622 544 l 622 539 q 731 488 689 517 q 796 422 772 460 q 830 331 819 383 q 844 208 840 278 q 851 119 847 156 q 870 63 854 82 q 925 43 886 43 q 961 49 946 43 q 992 65 976 54 l 1014 35 q 957 -1 992 13 q 865 -14 922 -14 m 271 539 l 271 578 l 532 578 q 713 651 650 578 q 776 857 776 724 q 763 945 776 911 q 710 994 749 979 q 600 1010 672 1010 l 192 1010 l 192 1047 l 617 1047 q 892 981 799 1047 q 986 808 986 914 q 859 611 986 683 q 499 539 732 539 l 271 539 m 917 1171 l 696 1226 q 650 1252 665 1235 q 635 1290 635 1269 q 654 1338 635 1317 q 708 1358 674 1358 q 752 1349 731 1358 q 810 1314 774 1340 l 997 1171 l 917 1171 m 614 1171 l 394 1226 q 347 1252 363 1235 q 332 1290 332 1269 q 352 1338 332 1317 q 406 1358 372 1358 q 450 1349 429 1358 q 507 1314 471 1340 l 694 1171 l 614 1171 z "},"Ṛ":{"ha":990,"x_min":-1,"x_max":1014,"o":"m 106 0 l 333 1047 l 519 1047 l 286 0 l 106 0 m -1 0 l -1 39 l 435 39 l 435 0 l -1 0 m 865 -14 q 748 8 793 -14 q 678 65 703 29 q 644 144 654 100 q 631 235 633 189 q 626 324 629 282 q 606 438 624 390 q 552 513 589 486 q 451 539 515 539 l 622 544 l 622 539 q 731 488 689 517 q 796 422 772 460 q 830 331 819 383 q 844 208 840 278 q 851 119 847 156 q 870 63 854 82 q 925 43 886 43 q 961 49 946 43 q 992 65 976 54 l 1014 35 q 957 -1 992 13 q 865 -14 922 -14 m 271 539 l 271 578 l 532 578 q 713 651 650 578 q 776 857 776 724 q 763 945 776 911 q 710 994 749 979 q 600 1010 672 1010 l 192 1010 l 192 1047 l 617 1047 q 892 981 799 1047 q 986 808 986 914 q 859 611 986 683 q 499 539 732 539 l 271 539 m 376 -303 q 306 -272 336 -303 q 275 -201 275 -242 q 306 -127 275 -157 q 376 -97 336 -97 q 451 -127 421 -97 q 481 -201 481 -157 q 451 -272 481 -242 q 376 -303 421 -303 z "},"Ȓ":{"ha":990,"x_min":-1,"x_max":1014,"o":"m 106 0 l 333 1047 l 519 1047 l 286 0 l 106 0 m -1 0 l -1 39 l 435 39 l 435 0 l -1 0 m 865 -14 q 748 8 793 -14 q 678 65 703 29 q 644 144 654 100 q 631 235 633 189 q 626 324 629 282 q 606 438 624 390 q 552 513 589 486 q 451 539 515 539 l 622 544 l 622 539 q 731 488 689 517 q 796 422 772 460 q 830 331 819 383 q 844 208 840 278 q 851 119 847 156 q 870 63 854 82 q 925 43 886 43 q 961 49 946 43 q 992 65 976 54 l 1014 35 q 957 -1 992 13 q 865 -14 922 -14 m 271 539 l 271 578 l 532 578 q 713 651 650 578 q 776 857 776 724 q 763 945 776 911 q 710 994 749 979 q 600 1010 672 1010 l 192 1010 l 192 1047 l 617 1047 q 892 981 799 1047 q 986 808 986 914 q 859 611 986 683 q 499 539 732 539 l 271 539 m 471 1171 q 553 1313 488 1258 q 718 1367 619 1367 q 851 1328 803 1367 q 899 1224 899 1290 q 892 1171 899 1200 l 842 1171 q 809 1243 847 1222 q 706 1264 771 1264 q 583 1242 632 1264 q 521 1171 533 1219 l 471 1171 z "},"S":{"ha":804,"x_min":22,"x_max":821,"o":"m 376 -18 q 240 7 299 -18 q 139 72 181 32 l 64 0 l 22 0 l 79 296 l 118 296 q 382 24 163 24 q 519 56 464 24 q 603 138 575 89 q 632 235 632 186 q 600 329 632 292 q 518 395 568 367 q 411 451 468 424 q 304 513 354 478 q 222 602 254 549 q 190 735 190 656 q 228 894 190 819 q 338 1014 265 968 q 517 1060 411 1060 q 642 1038 588 1060 q 729 983 696 1017 l 786 1047 l 821 1047 l 769 771 l 732 771 q 703 904 732 849 q 624 989 674 960 q 507 1018 574 1018 q 406 998 453 1018 q 330 942 358 978 q 301 858 301 906 q 334 771 301 806 q 417 710 367 736 q 526 656 468 683 q 634 590 583 628 q 717 493 685 551 q 750 347 750 435 q 701 158 750 240 q 567 28 651 75 q 376 -18 483 -18 z "},"Ś":{"ha":804,"x_min":22,"x_max":825,"o":"m 376 -18 q 240 7 299 -18 q 139 72 181 32 l 64 0 l 22 0 l 79 296 l 118 296 q 382 24 163 24 q 519 56 464 24 q 603 138 575 89 q 632 235 632 186 q 600 329 632 292 q 518 395 568 367 q 411 451 468 424 q 304 513 354 478 q 222 602 254 549 q 190 735 190 656 q 228 894 190 819 q 338 1014 265 968 q 517 1060 411 1060 q 642 1038 588 1060 q 729 983 696 1017 l 786 1047 l 821 1047 l 769 771 l 732 771 q 703 904 732 849 q 624 989 674 960 q 507 1018 574 1018 q 406 998 453 1018 q 330 942 358 978 q 301 858 301 906 q 334 771 301 806 q 417 710 367 736 q 526 656 468 683 q 634 590 583 628 q 717 493 685 551 q 750 347 750 435 q 701 158 750 240 q 567 28 651 75 q 376 -18 483 -18 m 399 1172 l 640 1319 q 708 1356 682 1346 q 758 1367 733 1367 q 808 1349 790 1367 q 825 1306 825 1332 q 805 1257 825 1279 q 740 1226 785 1235 l 482 1172 l 399 1172 z "},"Š":{"ha":804,"x_min":22,"x_max":868,"o":"m 376 -18 q 240 7 299 -18 q 139 72 181 32 l 64 0 l 22 0 l 79 296 l 118 296 q 382 24 163 24 q 519 56 464 24 q 603 138 575 89 q 632 235 632 186 q 600 329 632 292 q 518 395 568 367 q 411 451 468 424 q 304 513 354 478 q 222 602 254 549 q 190 735 190 656 q 228 894 190 819 q 338 1014 265 968 q 517 1060 411 1060 q 642 1038 588 1060 q 729 983 696 1017 l 786 1047 l 821 1047 l 769 771 l 732 771 q 703 904 732 849 q 624 989 674 960 q 507 1018 574 1018 q 406 998 453 1018 q 330 942 358 978 q 301 858 301 906 q 334 771 301 806 q 417 710 367 736 q 526 656 468 683 q 634 590 583 628 q 717 493 685 551 q 750 347 750 435 q 701 158 750 240 q 567 28 651 75 q 376 -18 483 -18 m 551 1171 l 394 1360 l 457 1360 l 615 1286 l 806 1360 l 868 1360 l 633 1171 l 551 1171 z "},"Ş":{"ha":804,"x_min":22,"x_max":821,"o":"m 376 -18 q 240 7 299 -18 q 139 72 181 32 l 64 0 l 22 0 l 79 296 l 118 296 q 382 24 163 24 q 519 56 464 24 q 603 138 575 89 q 632 235 632 186 q 600 329 632 292 q 518 395 568 367 q 411 451 468 424 q 304 513 354 478 q 222 602 254 549 q 190 735 190 656 q 228 894 190 819 q 338 1014 265 968 q 517 1060 411 1060 q 642 1038 588 1060 q 729 983 696 1017 l 786 1047 l 821 1047 l 769 771 l 732 771 q 703 904 732 849 q 624 989 674 960 q 507 1018 574 1018 q 406 998 453 1018 q 330 942 358 978 q 301 858 301 906 q 334 771 301 806 q 417 710 367 736 q 526 656 468 683 q 634 590 583 628 q 717 493 685 551 q 750 347 750 435 q 701 158 750 240 q 567 28 651 75 q 376 -18 483 -18 m 269 -325 q 201 -317 228 -325 q 164 -301 175 -308 l 188 -257 q 218 -267 196 -262 q 263 -272 240 -272 q 335 -253 306 -272 q 364 -199 364 -235 q 344 -155 364 -171 q 272 -137 324 -139 l 358 8 l 413 8 l 353 -97 l 379 -97 q 463 -122 433 -97 q 493 -186 493 -146 q 457 -265 493 -233 q 369 -310 421 -296 q 269 -325 318 -325 z "},"Ŝ":{"ha":804,"x_min":22,"x_max":838,"o":"m 376 -18 q 240 7 299 -18 q 139 72 181 32 l 64 0 l 22 0 l 79 296 l 118 296 q 382 24 163 24 q 519 56 464 24 q 603 138 575 89 q 632 235 632 186 q 600 329 632 292 q 518 395 568 367 q 411 451 468 424 q 304 513 354 478 q 222 602 254 549 q 190 735 190 656 q 228 894 190 819 q 338 1014 265 968 q 517 1060 411 1060 q 642 1038 588 1060 q 729 983 696 1017 l 786 1047 l 821 1047 l 769 771 l 732 771 q 703 904 732 849 q 624 989 674 960 q 507 1018 574 1018 q 406 998 453 1018 q 330 942 358 978 q 301 858 301 906 q 334 771 301 806 q 417 710 367 736 q 526 656 468 683 q 634 590 583 628 q 717 493 685 551 q 750 347 750 435 q 701 158 750 240 q 567 28 651 75 q 376 -18 483 -18 m 365 1171 l 600 1360 l 682 1360 l 838 1171 l 775 1171 l 617 1244 l 426 1171 l 365 1171 z "},"Ș":{"ha":804,"x_min":22,"x_max":821,"o":"m 376 -18 q 240 7 299 -18 q 139 72 181 32 l 64 0 l 22 0 l 79 296 l 118 296 q 382 24 163 24 q 519 56 464 24 q 603 138 575 89 q 632 235 632 186 q 600 329 632 292 q 518 395 568 367 q 411 451 468 424 q 304 513 354 478 q 222 602 254 549 q 190 735 190 656 q 228 894 190 819 q 338 1014 265 968 q 517 1060 411 1060 q 642 1038 588 1060 q 729 983 696 1017 l 786 1047 l 821 1047 l 769 771 l 732 771 q 703 904 732 849 q 624 989 674 960 q 507 1018 574 1018 q 406 998 453 1018 q 330 942 358 978 q 301 858 301 906 q 334 771 301 806 q 417 710 367 736 q 526 656 468 683 q 634 590 583 628 q 717 493 685 551 q 750 347 750 435 q 701 158 750 240 q 567 28 651 75 q 376 -18 483 -18 m 239 -439 l 219 -403 q 356 -333 311 -368 q 401 -265 401 -297 q 395 -244 401 -251 q 385 -237 389 -237 q 369 -249 378 -237 q 348 -271 361 -260 q 310 -282 335 -282 q 258 -259 275 -282 q 240 -206 240 -236 q 272 -135 240 -160 q 346 -110 304 -110 q 409 -128 385 -110 q 446 -176 433 -147 q 458 -235 458 -204 q 403 -351 458 -300 q 239 -439 347 -403 z "},"Ṣ":{"ha":804,"x_min":22,"x_max":821,"o":"m 376 -18 q 240 7 299 -18 q 139 72 181 32 l 64 0 l 22 0 l 79 296 l 118 296 q 382 24 163 24 q 519 56 464 24 q 603 138 575 89 q 632 235 632 186 q 600 329 632 292 q 518 395 568 367 q 411 451 468 424 q 304 513 354 478 q 222 602 254 549 q 190 735 190 656 q 228 894 190 819 q 338 1014 265 968 q 517 1060 411 1060 q 642 1038 588 1060 q 729 983 696 1017 l 786 1047 l 821 1047 l 769 771 l 732 771 q 703 904 732 849 q 624 989 674 960 q 507 1018 574 1018 q 406 998 453 1018 q 330 942 358 978 q 301 858 301 906 q 334 771 301 806 q 417 710 367 736 q 526 656 468 683 q 634 590 583 628 q 717 493 685 551 q 750 347 750 435 q 701 158 750 240 q 567 28 651 75 q 376 -18 483 -18 m 326 -308 q 256 -278 286 -308 q 225 -207 225 -247 q 256 -133 225 -162 q 326 -103 286 -103 q 401 -133 371 -103 q 431 -207 431 -162 q 401 -278 431 -247 q 326 -308 371 -308 z "},"T":{"ha":960,"x_min":122,"x_max":1068,"o":"m 326 0 l 554 1047 l 740 1047 l 507 0 l 326 0 m 186 0 l 186 39 l 685 39 l 685 0 l 186 0 m 122 713 l 222 1047 l 1068 1047 l 1022 713 l 978 713 q 963 894 978 831 q 907 984 949 958 q 785 1010 865 1010 l 478 1010 q 313 938 397 1010 q 168 713 228 865 l 122 713 z "},"Ŧ":{"ha":960,"x_min":122,"x_max":1068,"o":"m 326 0 l 554 1047 l 740 1047 l 507 0 l 326 0 m 186 0 l 186 39 l 685 39 l 685 0 l 186 0 m 122 713 l 222 1047 l 1068 1047 l 1022 713 l 978 713 q 963 894 978 831 q 907 984 949 958 q 785 1010 865 1010 l 478 1010 q 313 938 397 1010 q 168 713 228 865 l 122 713 m 275 499 l 275 550 l 782 550 l 782 499 l 275 499 z "},"Ť":{"ha":960,"x_min":122,"x_max":1068,"o":"m 326 0 l 554 1047 l 740 1047 l 507 0 l 326 0 m 186 0 l 186 39 l 685 39 l 685 0 l 186 0 m 122 713 l 222 1047 l 1068 1047 l 1022 713 l 978 713 q 963 894 978 831 q 907 984 949 958 q 785 1010 865 1010 l 478 1010 q 313 938 397 1010 q 168 713 228 865 l 122 713 m 629 1171 l 472 1360 l 535 1360 l 693 1286 l 883 1360 l 946 1360 l 711 1171 l 629 1171 z "},"Ţ":{"ha":960,"x_min":122,"x_max":1068,"o":"m 326 0 l 554 1047 l 740 1047 l 507 0 l 326 0 m 186 0 l 186 39 l 685 39 l 685 0 l 186 0 m 122 713 l 222 1047 l 1068 1047 l 1022 713 l 978 713 q 963 894 978 831 q 907 984 949 958 q 785 1010 865 1010 l 478 1010 q 313 938 397 1010 q 168 713 228 865 l 122 713 m 311 -319 q 243 -311 269 -319 q 206 -296 217 -303 l 229 -251 q 260 -262 238 -257 q 304 -267 282 -267 q 376 -248 347 -267 q 406 -193 406 -229 q 385 -149 406 -165 q 314 -132 365 -133 l 400 14 l 454 14 l 394 -92 l 421 -92 q 505 -116 475 -92 q 535 -181 535 -140 q 499 -259 535 -228 q 411 -305 463 -290 q 311 -319 360 -319 z "},"Ț":{"ha":960,"x_min":122,"x_max":1068,"o":"m 326 0 l 554 1047 l 740 1047 l 507 0 l 326 0 m 186 0 l 186 39 l 685 39 l 685 0 l 186 0 m 122 713 l 222 1047 l 1068 1047 l 1022 713 l 978 713 q 963 894 978 831 q 907 984 949 958 q 785 1010 865 1010 l 478 1010 q 313 938 397 1010 q 168 713 228 865 l 122 713 m 281 -433 l 261 -397 q 398 -327 353 -362 q 443 -260 443 -292 q 437 -239 443 -246 q 426 -232 431 -232 q 411 -243 419 -232 q 390 -265 403 -254 q 351 -276 376 -276 q 299 -253 317 -276 q 282 -200 282 -231 q 314 -129 282 -154 q 388 -104 346 -104 q 451 -123 426 -104 q 488 -170 475 -142 q 500 -229 500 -199 q 444 -346 500 -294 q 281 -433 389 -397 z "},"Ṭ":{"ha":960,"x_min":122,"x_max":1068,"o":"m 326 0 l 554 1047 l 740 1047 l 507 0 l 326 0 m 186 0 l 186 39 l 685 39 l 685 0 l 186 0 m 122 713 l 222 1047 l 1068 1047 l 1022 713 l 978 713 q 963 894 978 831 q 907 984 949 958 q 785 1010 865 1010 l 478 1010 q 313 938 397 1010 q 168 713 228 865 l 122 713 m 368 -303 q 297 -272 328 -303 q 267 -201 267 -242 q 297 -127 267 -157 q 368 -97 328 -97 q 442 -127 413 -97 q 472 -201 472 -157 q 442 -272 472 -242 q 368 -303 413 -303 z "},"U":{"ha":1031,"x_min":167,"x_max":1167,"o":"m 501 -17 q 253 52 339 -17 q 167 240 167 121 q 170 289 167 264 q 179 342 174 314 l 332 1047 l 518 1047 l 360 342 q 349 283 353 311 q 346 233 346 256 q 400 85 346 136 q 546 33 454 33 q 728 100 650 33 q 835 300 807 167 l 996 1047 l 1044 1047 l 888 318 q 822 140 865 215 q 703 24 779 65 q 501 -17 626 -17 m 167 1010 l 167 1047 l 640 1047 l 640 1010 l 167 1010 m 842 1010 l 842 1047 l 1167 1047 l 1167 1010 l 842 1010 z "},"Ú":{"ha":1031,"x_min":167,"x_max":1167,"o":"m 501 -17 q 253 52 339 -17 q 167 240 167 121 q 170 289 167 264 q 179 342 174 314 l 332 1047 l 518 1047 l 360 342 q 349 283 353 311 q 346 233 346 256 q 400 85 346 136 q 546 33 454 33 q 728 100 650 33 q 835 300 807 167 l 996 1047 l 1044 1047 l 888 318 q 822 140 865 215 q 703 24 779 65 q 501 -17 626 -17 m 167 1010 l 167 1047 l 640 1047 l 640 1010 l 167 1010 m 842 1010 l 842 1047 l 1167 1047 l 1167 1010 l 842 1010 m 569 1172 l 811 1319 q 878 1356 853 1346 q 929 1367 904 1367 q 978 1349 961 1367 q 996 1306 996 1332 q 976 1257 996 1279 q 911 1226 956 1235 l 653 1172 l 569 1172 z "},"Ŭ":{"ha":1031,"x_min":167,"x_max":1167,"o":"m 501 -17 q 253 52 339 -17 q 167 240 167 121 q 170 289 167 264 q 179 342 174 314 l 332 1047 l 518 1047 l 360 342 q 349 283 353 311 q 346 233 346 256 q 400 85 346 136 q 546 33 454 33 q 728 100 650 33 q 835 300 807 167 l 996 1047 l 1044 1047 l 888 318 q 822 140 865 215 q 703 24 779 65 q 501 -17 626 -17 m 167 1010 l 167 1047 l 640 1047 l 640 1010 l 167 1010 m 842 1010 l 842 1047 l 1167 1047 l 1167 1010 l 842 1010 m 763 1172 q 619 1221 668 1172 q 592 1360 571 1269 l 643 1360 q 656 1308 639 1326 q 706 1282 674 1289 q 778 1275 739 1275 q 863 1283 825 1275 q 928 1309 901 1290 q 963 1360 956 1328 l 1014 1360 q 928 1222 996 1272 q 763 1172 860 1172 z "},"Û":{"ha":1031,"x_min":167,"x_max":1167,"o":"m 501 -17 q 253 52 339 -17 q 167 240 167 121 q 170 289 167 264 q 179 342 174 314 l 332 1047 l 518 1047 l 360 342 q 349 283 353 311 q 346 233 346 256 q 400 85 346 136 q 546 33 454 33 q 728 100 650 33 q 835 300 807 167 l 996 1047 l 1044 1047 l 888 318 q 822 140 865 215 q 703 24 779 65 q 501 -17 626 -17 m 167 1010 l 167 1047 l 640 1047 l 640 1010 l 167 1010 m 842 1010 l 842 1047 l 1167 1047 l 1167 1010 l 842 1010 m 536 1171 l 771 1360 l 853 1360 l 1008 1171 l 946 1171 l 788 1244 l 597 1171 l 536 1171 z "},"Ȕ":{"ha":1031,"x_min":167,"x_max":1167,"o":"m 501 -17 q 253 52 339 -17 q 167 240 167 121 q 170 289 167 264 q 179 342 174 314 l 332 1047 l 518 1047 l 360 342 q 349 283 353 311 q 346 233 346 256 q 400 85 346 136 q 546 33 454 33 q 728 100 650 33 q 835 300 807 167 l 996 1047 l 1044 1047 l 888 318 q 822 140 865 215 q 703 24 779 65 q 501 -17 626 -17 m 167 1010 l 167 1047 l 640 1047 l 640 1010 l 167 1010 m 842 1010 l 842 1047 l 1167 1047 l 1167 1010 l 842 1010 m 994 1171 l 774 1226 q 728 1252 743 1235 q 713 1290 713 1269 q 732 1338 713 1317 q 786 1358 751 1358 q 830 1349 808 1358 q 888 1314 851 1340 l 1075 1171 l 994 1171 m 692 1171 l 472 1226 q 425 1252 440 1235 q 410 1290 410 1269 q 430 1338 410 1317 q 483 1358 450 1358 q 528 1349 507 1358 q 585 1314 549 1340 l 772 1171 l 692 1171 z "},"Ü":{"ha":1031,"x_min":167,"x_max":1167,"o":"m 501 -17 q 253 52 339 -17 q 167 240 167 121 q 170 289 167 264 q 179 342 174 314 l 332 1047 l 518 1047 l 360 342 q 349 283 353 311 q 346 233 346 256 q 400 85 346 136 q 546 33 454 33 q 728 100 650 33 q 835 300 807 167 l 996 1047 l 1044 1047 l 888 318 q 822 140 865 215 q 703 24 779 65 q 501 -17 626 -17 m 167 1010 l 167 1047 l 640 1047 l 640 1010 l 167 1010 m 842 1010 l 842 1047 l 1167 1047 l 1167 1010 l 842 1010 m 926 1183 q 860 1210 889 1183 q 832 1276 832 1238 q 860 1342 832 1315 q 926 1369 889 1369 q 994 1342 967 1369 q 1021 1276 1021 1315 q 994 1210 1021 1238 q 926 1183 967 1183 m 631 1183 q 563 1210 590 1183 q 536 1276 536 1238 q 563 1342 536 1315 q 631 1369 590 1369 q 697 1342 669 1369 q 725 1276 725 1315 q 697 1210 725 1238 q 631 1183 669 1183 z "},"Ụ":{"ha":1031,"x_min":167,"x_max":1167,"o":"m 501 -17 q 253 52 339 -17 q 167 240 167 121 q 170 289 167 264 q 179 342 174 314 l 332 1047 l 518 1047 l 360 342 q 349 283 353 311 q 346 233 346 256 q 400 85 346 136 q 546 33 454 33 q 728 100 650 33 q 835 300 807 167 l 996 1047 l 1044 1047 l 888 318 q 822 140 865 215 q 703 24 779 65 q 501 -17 626 -17 m 167 1010 l 167 1047 l 640 1047 l 640 1010 l 167 1010 m 842 1010 l 842 1047 l 1167 1047 l 1167 1010 l 842 1010 m 403 -303 q 332 -272 363 -303 q 301 -201 301 -242 q 332 -127 301 -157 q 403 -97 363 -97 q 477 -127 447 -97 q 507 -201 507 -157 q 477 -272 507 -242 q 403 -303 447 -303 z "},"Ù":{"ha":1031,"x_min":167,"x_max":1167,"o":"m 501 -17 q 253 52 339 -17 q 167 240 167 121 q 170 289 167 264 q 179 342 174 314 l 332 1047 l 518 1047 l 360 342 q 349 283 353 311 q 346 233 346 256 q 400 85 346 136 q 546 33 454 33 q 728 100 650 33 q 835 300 807 167 l 996 1047 l 1044 1047 l 888 318 q 822 140 865 215 q 703 24 779 65 q 501 -17 626 -17 m 167 1010 l 167 1047 l 640 1047 l 640 1010 l 167 1010 m 842 1010 l 842 1047 l 1167 1047 l 1167 1010 l 842 1010 m 885 1171 l 632 1229 q 583 1255 599 1236 q 567 1296 567 1274 q 588 1345 567 1324 q 644 1367 608 1367 q 690 1356 668 1367 q 750 1319 711 1346 l 969 1171 l 885 1171 z "},"Ủ":{"ha":1031,"x_min":167,"x_max":1167,"o":"m 501 -17 q 253 52 339 -17 q 167 240 167 121 q 170 289 167 264 q 179 342 174 314 l 332 1047 l 518 1047 l 360 342 q 349 283 353 311 q 346 233 346 256 q 400 85 346 136 q 546 33 454 33 q 728 100 650 33 q 835 300 807 167 l 996 1047 l 1044 1047 l 888 318 q 822 140 865 215 q 703 24 779 65 q 501 -17 626 -17 m 167 1010 l 167 1047 l 640 1047 l 640 1010 l 167 1010 m 842 1010 l 842 1047 l 1167 1047 l 1167 1010 l 842 1010 m 765 1143 q 784 1188 771 1171 q 812 1219 797 1206 q 838 1245 826 1233 q 850 1272 849 1257 q 842 1317 854 1304 q 803 1329 829 1329 q 760 1317 778 1329 q 739 1290 742 1306 q 742 1274 738 1278 q 751 1264 747 1269 q 753 1243 756 1258 q 735 1218 751 1226 q 697 1210 718 1210 q 662 1225 674 1210 q 651 1263 650 1240 q 681 1335 656 1308 q 742 1375 706 1363 q 814 1388 778 1388 q 909 1360 879 1388 q 933 1278 939 1332 q 915 1233 931 1250 q 877 1202 899 1215 q 837 1176 856 1189 q 811 1143 818 1163 l 765 1143 z "},"Ư":{"ha":1031,"x_min":167,"x_max":1264,"o":"m 501 -17 q 253 52 339 -17 q 167 240 167 121 q 170 289 167 264 q 179 342 174 314 l 332 1047 l 518 1047 l 360 342 q 349 283 353 311 q 346 233 346 256 q 400 85 346 136 q 546 33 454 33 q 728 100 650 33 q 835 300 807 167 l 996 1047 l 1044 1047 l 888 318 q 822 140 865 215 q 703 24 779 65 q 501 -17 626 -17 m 167 1010 l 167 1047 l 640 1047 l 640 1010 l 167 1010 m 842 1010 l 842 1047 l 1167 1047 l 1167 1010 l 842 1010 m 1021 1003 l 1026 1047 q 1127 1074 1100 1047 q 1168 1157 1154 1100 l 1265 1157 q 1226 1060 1253 1094 q 1149 1015 1199 1026 q 1021 1003 1100 1003 z "},"Ứ":{"ha":1031,"x_min":167,"x_max":1264,"o":"m 501 -17 q 253 52 339 -17 q 167 240 167 121 q 170 289 167 264 q 179 342 174 314 l 332 1047 l 518 1047 l 360 342 q 349 283 353 311 q 346 233 346 256 q 400 85 346 136 q 546 33 454 33 q 728 100 650 33 q 835 300 807 167 l 996 1047 l 1044 1047 l 888 318 q 822 140 865 215 q 703 24 779 65 q 501 -17 626 -17 m 167 1010 l 167 1047 l 640 1047 l 640 1010 l 167 1010 m 842 1010 l 842 1047 l 1167 1047 l 1167 1010 l 842 1010 m 1021 1003 l 1026 1047 q 1127 1074 1100 1047 q 1168 1157 1154 1100 l 1265 1157 q 1226 1060 1253 1094 q 1149 1015 1199 1026 q 1021 1003 1100 1003 m 511 1151 l 753 1299 q 820 1335 794 1325 q 871 1346 846 1346 q 920 1328 903 1346 q 938 1285 938 1311 q 917 1236 938 1258 q 853 1206 897 1214 l 594 1151 l 511 1151 z "},"Ự":{"ha":1031,"x_min":167,"x_max":1264,"o":"m 501 -17 q 253 52 339 -17 q 167 240 167 121 q 170 289 167 264 q 179 342 174 314 l 332 1047 l 518 1047 l 360 342 q 349 283 353 311 q 346 233 346 256 q 400 85 346 136 q 546 33 454 33 q 728 100 650 33 q 835 300 807 167 l 996 1047 l 1044 1047 l 888 318 q 822 140 865 215 q 703 24 779 65 q 501 -17 626 -17 m 167 1010 l 167 1047 l 640 1047 l 640 1010 l 167 1010 m 842 1010 l 842 1047 l 1167 1047 l 1167 1010 l 842 1010 m 1021 1003 l 1026 1047 q 1127 1074 1100 1047 q 1168 1157 1154 1100 l 1265 1157 q 1226 1060 1253 1094 q 1149 1015 1199 1026 q 1021 1003 1100 1003 m 396 -303 q 325 -272 356 -303 q 294 -201 294 -242 q 325 -127 294 -157 q 396 -97 356 -97 q 470 -127 440 -97 q 500 -201 500 -157 q 470 -272 500 -242 q 396 -303 440 -303 z "},"Ừ":{"ha":1031,"x_min":167,"x_max":1264,"o":"m 501 -17 q 253 52 339 -17 q 167 240 167 121 q 170 289 167 264 q 179 342 174 314 l 332 1047 l 518 1047 l 360 342 q 349 283 353 311 q 346 233 346 256 q 400 85 346 136 q 546 33 454 33 q 728 100 650 33 q 835 300 807 167 l 996 1047 l 1044 1047 l 888 318 q 822 140 865 215 q 703 24 779 65 q 501 -17 626 -17 m 167 1010 l 167 1047 l 640 1047 l 640 1010 l 167 1010 m 842 1010 l 842 1047 l 1167 1047 l 1167 1010 l 842 1010 m 1021 1003 l 1026 1047 q 1127 1074 1100 1047 q 1168 1157 1154 1100 l 1265 1157 q 1226 1060 1253 1094 q 1149 1015 1199 1026 q 1021 1003 1100 1003 m 826 1171 l 574 1229 q 524 1255 540 1236 q 508 1296 508 1274 q 529 1345 508 1324 q 586 1367 550 1367 q 631 1356 610 1367 q 692 1319 653 1346 l 911 1171 l 826 1171 z "},"Ử":{"ha":1031,"x_min":167,"x_max":1264,"o":"m 501 -17 q 253 52 339 -17 q 167 240 167 121 q 170 289 167 264 q 179 342 174 314 l 332 1047 l 518 1047 l 360 342 q 349 283 353 311 q 346 233 346 256 q 400 85 346 136 q 546 33 454 33 q 728 100 650 33 q 835 300 807 167 l 996 1047 l 1044 1047 l 888 318 q 822 140 865 215 q 703 24 779 65 q 501 -17 626 -17 m 167 1010 l 167 1047 l 640 1047 l 640 1010 l 167 1010 m 842 1010 l 842 1047 l 1167 1047 l 1167 1010 l 842 1010 m 1021 1003 l 1026 1047 q 1127 1074 1100 1047 q 1168 1157 1154 1100 l 1265 1157 q 1226 1060 1253 1094 q 1149 1015 1199 1026 q 1021 1003 1100 1003 m 707 1143 q 726 1188 713 1171 q 753 1219 739 1206 q 779 1245 768 1233 q 792 1272 790 1257 q 783 1317 796 1304 q 744 1329 771 1329 q 701 1317 719 1329 q 681 1290 683 1306 q 684 1274 679 1278 q 693 1264 689 1269 q 694 1243 697 1258 q 676 1218 693 1226 q 639 1210 660 1210 q 603 1225 615 1210 q 593 1263 592 1240 q 622 1335 597 1308 q 683 1375 647 1363 q 756 1388 719 1388 q 851 1360 821 1388 q 875 1278 881 1332 q 856 1233 872 1250 q 819 1202 840 1215 q 778 1176 797 1189 q 753 1143 760 1163 l 707 1143 z "},"Ữ":{"ha":1031,"x_min":167,"x_max":1264,"o":"m 501 -17 q 253 52 339 -17 q 167 240 167 121 q 170 289 167 264 q 179 342 174 314 l 332 1047 l 518 1047 l 360 342 q 349 283 353 311 q 346 233 346 256 q 400 85 346 136 q 546 33 454 33 q 728 100 650 33 q 835 300 807 167 l 996 1047 l 1044 1047 l 888 318 q 822 140 865 215 q 703 24 779 65 q 501 -17 626 -17 m 167 1010 l 167 1047 l 640 1047 l 640 1010 l 167 1010 m 842 1010 l 842 1047 l 1167 1047 l 1167 1010 l 842 1010 m 1021 1003 l 1026 1047 q 1127 1074 1100 1047 q 1168 1157 1154 1100 l 1265 1157 q 1226 1060 1253 1094 q 1149 1015 1199 1026 q 1021 1003 1100 1003 m 474 1171 q 515 1260 488 1219 q 580 1326 542 1301 q 664 1350 618 1350 q 733 1334 707 1350 q 785 1302 760 1318 q 843 1286 810 1286 q 911 1309 883 1286 q 951 1353 939 1332 l 1000 1353 q 922 1219 972 1265 q 807 1172 872 1172 q 736 1188 764 1172 q 684 1220 708 1204 q 625 1236 660 1236 q 560 1217 589 1236 q 519 1171 532 1199 l 474 1171 z "},"Ű":{"ha":1031,"x_min":167,"x_max":1167,"o":"m 501 -17 q 253 52 339 -17 q 167 240 167 121 q 170 289 167 264 q 179 342 174 314 l 332 1047 l 518 1047 l 360 342 q 349 283 353 311 q 346 233 346 256 q 400 85 346 136 q 546 33 454 33 q 728 100 650 33 q 835 300 807 167 l 996 1047 l 1044 1047 l 888 318 q 822 140 865 215 q 703 24 779 65 q 501 -17 626 -17 m 167 1010 l 167 1047 l 640 1047 l 640 1010 l 167 1010 m 842 1010 l 842 1047 l 1167 1047 l 1167 1010 l 842 1010 m 726 1171 l 943 1325 q 1002 1357 976 1349 q 1051 1365 1028 1365 q 1097 1349 1081 1365 q 1114 1307 1114 1333 q 1094 1262 1114 1282 q 1032 1231 1074 1242 l 806 1171 l 726 1171 m 422 1171 l 639 1325 q 699 1357 674 1349 q 747 1365 724 1365 q 793 1349 776 1365 q 810 1307 810 1333 q 790 1262 810 1282 q 728 1231 771 1242 l 503 1171 l 422 1171 z "},"Ȗ":{"ha":1031,"x_min":167,"x_max":1167,"o":"m 501 -17 q 253 52 339 -17 q 167 240 167 121 q 170 289 167 264 q 179 342 174 314 l 332 1047 l 518 1047 l 360 342 q 349 283 353 311 q 346 233 346 256 q 400 85 346 136 q 546 33 454 33 q 728 100 650 33 q 835 300 807 167 l 996 1047 l 1044 1047 l 888 318 q 822 140 865 215 q 703 24 779 65 q 501 -17 626 -17 m 167 1010 l 167 1047 l 640 1047 l 640 1010 l 167 1010 m 842 1010 l 842 1047 l 1167 1047 l 1167 1010 l 842 1010 m 549 1171 q 631 1313 565 1258 q 796 1367 697 1367 q 928 1328 881 1367 q 976 1224 976 1290 q 969 1171 976 1200 l 919 1171 q 887 1243 925 1222 q 783 1264 849 1264 q 660 1242 710 1264 q 599 1171 611 1219 l 549 1171 z "},"Ū":{"ha":1031,"x_min":167,"x_max":1167,"o":"m 501 -17 q 253 52 339 -17 q 167 240 167 121 q 170 289 167 264 q 179 342 174 314 l 332 1047 l 518 1047 l 360 342 q 349 283 353 311 q 346 233 346 256 q 400 85 346 136 q 546 33 454 33 q 728 100 650 33 q 835 300 807 167 l 996 1047 l 1044 1047 l 888 318 q 822 140 865 215 q 703 24 779 65 q 501 -17 626 -17 m 167 1010 l 167 1047 l 640 1047 l 640 1010 l 167 1010 m 842 1010 l 842 1047 l 1167 1047 l 1167 1010 l 842 1010 m 556 1200 l 579 1306 l 1038 1306 l 1014 1200 l 556 1200 z "},"Ų":{"ha":1031,"x_min":167,"x_max":1167,"o":"m 501 -17 q 253 52 339 -17 q 167 240 167 121 q 170 289 167 264 q 179 342 174 314 l 332 1047 l 518 1047 l 360 342 q 349 283 353 311 q 346 233 346 256 q 400 85 346 136 q 546 33 454 33 q 728 100 650 33 q 835 300 807 167 l 996 1047 l 1044 1047 l 888 318 q 822 140 865 215 q 703 24 779 65 q 501 -17 626 -17 m 167 1010 l 167 1047 l 640 1047 l 640 1010 l 167 1010 m 842 1010 l 842 1047 l 1167 1047 l 1167 1010 l 842 1010 m 383 -340 q 299 -316 331 -340 q 268 -251 268 -292 q 335 -126 268 -192 q 531 6 401 -61 l 588 1 q 443 -108 496 -50 q 390 -214 390 -165 q 407 -255 390 -240 q 451 -269 424 -269 q 492 -262 469 -269 q 543 -240 514 -256 l 563 -274 q 483 -321 533 -301 q 383 -340 432 -340 z "},"Ů":{"ha":1031,"x_min":167,"x_max":1167,"o":"m 501 -17 q 253 52 339 -17 q 167 240 167 121 q 170 289 167 264 q 179 342 174 314 l 332 1047 l 518 1047 l 360 342 q 349 283 353 311 q 346 233 346 256 q 400 85 346 136 q 546 33 454 33 q 728 100 650 33 q 835 300 807 167 l 996 1047 l 1044 1047 l 888 318 q 822 140 865 215 q 703 24 779 65 q 501 -17 626 -17 m 167 1010 l 167 1047 l 640 1047 l 640 1010 l 167 1010 m 842 1010 l 842 1047 l 1167 1047 l 1167 1010 l 842 1010 m 778 1161 q 705 1190 733 1161 q 676 1263 676 1218 q 705 1334 676 1307 q 778 1361 733 1361 q 849 1334 821 1361 q 878 1263 878 1307 q 850 1190 878 1218 q 778 1161 822 1161 m 778 1206 q 816 1221 801 1206 q 831 1261 831 1236 q 816 1301 831 1286 q 778 1317 801 1317 q 739 1301 754 1317 q 724 1261 724 1286 q 739 1221 724 1236 q 778 1206 754 1206 z "},"Ũ":{"ha":1031,"x_min":167,"x_max":1167,"o":"m 501 -17 q 253 52 339 -17 q 167 240 167 121 q 170 289 167 264 q 179 342 174 314 l 332 1047 l 518 1047 l 360 342 q 349 283 353 311 q 346 233 346 256 q 400 85 346 136 q 546 33 454 33 q 728 100 650 33 q 835 300 807 167 l 996 1047 l 1044 1047 l 888 318 q 822 140 865 215 q 703 24 779 65 q 501 -17 626 -17 m 167 1010 l 167 1047 l 640 1047 l 640 1010 l 167 1010 m 842 1010 l 842 1047 l 1167 1047 l 1167 1010 l 842 1010 m 532 1171 q 573 1260 546 1219 q 638 1326 600 1301 q 722 1350 676 1350 q 792 1334 765 1350 q 843 1302 818 1318 q 901 1286 868 1286 q 969 1309 942 1286 q 1010 1353 997 1332 l 1058 1353 q 981 1219 1031 1265 q 865 1172 931 1172 q 794 1188 822 1172 q 742 1220 767 1204 q 683 1236 718 1236 q 619 1217 647 1236 q 578 1171 590 1199 l 532 1171 z "},"V":{"ha":819,"x_min":144,"x_max":1071,"o":"m 221 -15 l 396 294 l 918 1019 l 971 1019 l 231 -15 l 221 -15 m 192 -15 l 254 1033 l 453 1033 l 394 300 l 400 300 l 228 -15 l 192 -15 m 144 1010 l 144 1047 l 553 1047 l 553 1010 l 144 1010 m 769 1010 l 769 1047 l 1071 1047 l 1071 1010 l 769 1010 z "},"W":{"ha":1244,"x_min":121,"x_max":1483,"o":"m 601 -15 l 776 282 l 1344 1019 l 1394 1019 l 611 -15 l 601 -15 m 199 -15 l 379 281 l 647 613 l 679 588 l 208 -15 l 199 -15 m 171 -15 l 233 1033 l 432 1033 l 378 286 l 383 286 l 207 -15 l 171 -15 m 569 -15 l 632 1033 l 831 1033 l 774 285 l 779 285 l 606 -15 l 569 -15 m 121 1010 l 121 1047 l 1126 1047 l 1126 1010 l 121 1010 m 765 647 l 735 681 l 999 1022 l 1047 1022 l 765 647 m 1182 1010 l 1182 1047 l 1483 1047 l 1483 1010 l 1182 1010 z "},"Ẃ":{"ha":1244,"x_min":121,"x_max":1483,"o":"m 601 -15 l 776 282 l 1344 1019 l 1394 1019 l 611 -15 l 601 -15 m 199 -15 l 379 281 l 647 613 l 679 588 l 208 -15 l 199 -15 m 171 -15 l 233 1033 l 432 1033 l 378 286 l 383 286 l 207 -15 l 171 -15 m 569 -15 l 632 1033 l 831 1033 l 774 285 l 779 285 l 606 -15 l 569 -15 m 121 1010 l 121 1047 l 1126 1047 l 1126 1010 l 121 1010 m 765 647 l 735 681 l 999 1022 l 1047 1022 l 765 647 m 1182 1010 l 1182 1047 l 1483 1047 l 1483 1010 l 1182 1010 m 618 1172 l 860 1319 q 927 1356 901 1346 q 978 1367 953 1367 q 1027 1349 1010 1367 q 1044 1306 1044 1332 q 1024 1257 1044 1279 q 960 1226 1004 1235 l 701 1172 l 618 1172 z "},"Ŵ":{"ha":1244,"x_min":121,"x_max":1483,"o":"m 601 -15 l 776 282 l 1344 1019 l 1394 1019 l 611 -15 l 601 -15 m 199 -15 l 379 281 l 647 613 l 679 588 l 208 -15 l 199 -15 m 171 -15 l 233 1033 l 432 1033 l 378 286 l 383 286 l 207 -15 l 171 -15 m 569 -15 l 632 1033 l 831 1033 l 774 285 l 779 285 l 606 -15 l 569 -15 m 121 1010 l 121 1047 l 1126 1047 l 1126 1010 l 121 1010 m 765 647 l 735 681 l 999 1022 l 1047 1022 l 765 647 m 1182 1010 l 1182 1047 l 1483 1047 l 1483 1010 l 1182 1010 m 585 1171 l 819 1360 l 901 1360 l 1057 1171 l 994 1171 l 836 1244 l 646 1171 l 585 1171 z "},"Ẅ":{"ha":1244,"x_min":121,"x_max":1483,"o":"m 601 -15 l 776 282 l 1344 1019 l 1394 1019 l 611 -15 l 601 -15 m 199 -15 l 379 281 l 647 613 l 679 588 l 208 -15 l 199 -15 m 171 -15 l 233 1033 l 432 1033 l 378 286 l 383 286 l 207 -15 l 171 -15 m 569 -15 l 632 1033 l 831 1033 l 774 285 l 779 285 l 606 -15 l 569 -15 m 121 1010 l 121 1047 l 1126 1047 l 1126 1010 l 121 1010 m 765 647 l 735 681 l 999 1022 l 1047 1022 l 765 647 m 1182 1010 l 1182 1047 l 1483 1047 l 1483 1010 l 1182 1010 m 975 1183 q 909 1210 938 1183 q 881 1276 881 1238 q 909 1342 881 1315 q 975 1369 938 1369 q 1042 1342 1015 1369 q 1069 1276 1069 1315 q 1042 1210 1069 1238 q 975 1183 1015 1183 m 679 1183 q 612 1210 639 1183 q 585 1276 585 1238 q 612 1342 585 1315 q 679 1369 639 1369 q 746 1342 718 1369 q 774 1276 774 1315 q 746 1210 774 1238 q 679 1183 718 1183 z "},"Ẁ":{"ha":1244,"x_min":121,"x_max":1483,"o":"m 601 -15 l 776 282 l 1344 1019 l 1394 1019 l 611 -15 l 601 -15 m 199 -15 l 379 281 l 647 613 l 679 588 l 208 -15 l 199 -15 m 171 -15 l 233 1033 l 432 1033 l 378 286 l 383 286 l 207 -15 l 171 -15 m 569 -15 l 632 1033 l 831 1033 l 774 285 l 779 285 l 606 -15 l 569 -15 m 121 1010 l 121 1047 l 1126 1047 l 1126 1010 l 121 1010 m 765 647 l 735 681 l 999 1022 l 1047 1022 l 765 647 m 1182 1010 l 1182 1047 l 1483 1047 l 1483 1010 l 1182 1010 m 933 1171 l 681 1229 q 631 1255 647 1236 q 615 1296 615 1274 q 636 1345 615 1324 q 693 1367 657 1367 q 738 1356 717 1367 q 799 1319 760 1346 l 1018 1171 l 933 1171 z "},"X":{"ha":860,"x_min":-75,"x_max":1018,"o":"m 592 0 l 194 1047 l 396 1047 l 788 0 l 592 0 m -75 0 l -75 39 l 282 39 l 282 0 l -75 0 m 50 28 l 450 540 l 504 540 l 426 438 l 421 438 l 103 28 l 50 28 m 447 0 l 447 39 l 904 39 l 904 0 l 447 0 m 88 1010 l 88 1047 l 531 1047 l 531 1010 l 88 1010 m 472 558 l 542 654 l 547 654 l 843 1019 l 892 1019 l 522 558 l 472 558 m 678 1010 l 678 1047 l 1018 1047 l 1018 1010 l 678 1010 z "},"Y":{"ha":854,"x_min":76,"x_max":1061,"o":"m 406 436 l 183 1047 l 378 1047 l 582 496 l 406 436 m 501 429 l 569 531 l 575 531 l 900 1019 l 949 1019 l 557 429 l 501 429 m 294 0 l 401 503 l 588 503 l 475 0 l 294 0 m 144 0 l 144 39 l 651 39 l 651 0 l 144 0 m 76 1010 l 76 1047 l 554 1047 l 554 1010 l 76 1010 m 735 1010 l 735 1047 l 1061 1047 l 1061 1010 l 735 1010 z "},"Ý":{"ha":854,"x_min":76,"x_max":1061,"o":"m 406 436 l 183 1047 l 378 1047 l 582 496 l 406 436 m 501 429 l 569 531 l 575 531 l 900 1019 l 949 1019 l 557 429 l 501 429 m 294 0 l 401 503 l 588 503 l 475 0 l 294 0 m 144 0 l 144 39 l 651 39 l 651 0 l 144 0 m 76 1010 l 76 1047 l 554 1047 l 554 1010 l 76 1010 m 735 1010 l 735 1047 l 1061 1047 l 1061 1010 l 735 1010 m 424 1172 l 665 1319 q 733 1356 707 1346 q 783 1367 758 1367 q 833 1349 815 1367 q 850 1306 850 1332 q 830 1257 850 1279 q 765 1226 810 1235 l 507 1172 l 424 1172 z "},"Ŷ":{"ha":854,"x_min":76,"x_max":1061,"o":"m 406 436 l 183 1047 l 378 1047 l 582 496 l 406 436 m 501 429 l 569 531 l 575 531 l 900 1019 l 949 1019 l 557 429 l 501 429 m 294 0 l 401 503 l 588 503 l 475 0 l 294 0 m 144 0 l 144 39 l 651 39 l 651 0 l 144 0 m 76 1010 l 76 1047 l 554 1047 l 554 1010 l 76 1010 m 735 1010 l 735 1047 l 1061 1047 l 1061 1010 l 735 1010 m 390 1171 l 625 1360 l 707 1360 l 863 1171 l 800 1171 l 642 1244 l 451 1171 l 390 1171 z "},"Ÿ":{"ha":854,"x_min":76,"x_max":1061,"o":"m 406 436 l 183 1047 l 378 1047 l 582 496 l 406 436 m 501 429 l 569 531 l 575 531 l 900 1019 l 949 1019 l 557 429 l 501 429 m 294 0 l 401 503 l 588 503 l 475 0 l 294 0 m 144 0 l 144 39 l 651 39 l 651 0 l 144 0 m 76 1010 l 76 1047 l 554 1047 l 554 1010 l 76 1010 m 735 1010 l 735 1047 l 1061 1047 l 1061 1010 l 735 1010 m 781 1183 q 715 1210 743 1183 q 686 1276 686 1238 q 715 1342 686 1315 q 781 1369 743 1369 q 848 1342 821 1369 q 875 1276 875 1315 q 848 1210 875 1238 q 781 1183 821 1183 m 485 1183 q 417 1210 444 1183 q 390 1276 390 1238 q 417 1342 390 1315 q 485 1369 444 1369 q 551 1342 524 1369 q 579 1276 579 1315 q 551 1210 579 1238 q 485 1183 524 1183 z "},"Ỵ":{"ha":854,"x_min":76,"x_max":1061,"o":"m 406 436 l 183 1047 l 378 1047 l 582 496 l 406 436 m 501 429 l 569 531 l 575 531 l 900 1019 l 949 1019 l 557 429 l 501 429 m 294 0 l 401 503 l 588 503 l 475 0 l 294 0 m 144 0 l 144 39 l 651 39 l 651 0 l 144 0 m 76 1010 l 76 1047 l 554 1047 l 554 1010 l 76 1010 m 735 1010 l 735 1047 l 1061 1047 l 1061 1010 l 735 1010 m 308 -303 q 238 -272 268 -303 q 207 -201 207 -242 q 238 -127 207 -157 q 308 -97 268 -97 q 383 -127 353 -97 q 413 -201 413 -157 q 383 -272 413 -242 q 308 -303 353 -303 z "},"Ỳ":{"ha":854,"x_min":76,"x_max":1061,"o":"m 406 436 l 183 1047 l 378 1047 l 582 496 l 406 436 m 501 429 l 569 531 l 575 531 l 900 1019 l 949 1019 l 557 429 l 501 429 m 294 0 l 401 503 l 588 503 l 475 0 l 294 0 m 144 0 l 144 39 l 651 39 l 651 0 l 144 0 m 76 1010 l 76 1047 l 554 1047 l 554 1010 l 76 1010 m 735 1010 l 735 1047 l 1061 1047 l 1061 1010 l 735 1010 m 739 1171 l 486 1229 q 437 1255 453 1236 q 421 1296 421 1274 q 442 1345 421 1324 q 499 1367 463 1367 q 544 1356 522 1367 q 604 1319 565 1346 l 824 1171 l 739 1171 z "},"Ỷ":{"ha":854,"x_min":76,"x_max":1061,"o":"m 406 436 l 183 1047 l 378 1047 l 582 496 l 406 436 m 501 429 l 569 531 l 575 531 l 900 1019 l 949 1019 l 557 429 l 501 429 m 294 0 l 401 503 l 588 503 l 475 0 l 294 0 m 144 0 l 144 39 l 651 39 l 651 0 l 144 0 m 76 1010 l 76 1047 l 554 1047 l 554 1010 l 76 1010 m 735 1010 l 735 1047 l 1061 1047 l 1061 1010 l 735 1010 m 619 1143 q 638 1188 625 1171 q 666 1219 651 1206 q 692 1245 681 1233 q 704 1272 703 1257 q 696 1317 708 1304 q 657 1329 683 1329 q 614 1317 632 1329 q 593 1290 596 1306 q 597 1274 592 1278 q 606 1264 601 1269 q 607 1243 610 1258 q 589 1218 606 1226 q 551 1210 572 1210 q 516 1225 528 1210 q 506 1263 504 1240 q 535 1335 510 1308 q 596 1375 560 1363 q 668 1388 632 1388 q 763 1360 733 1388 q 788 1278 793 1332 q 769 1233 785 1250 q 731 1202 753 1215 q 691 1176 710 1189 q 665 1143 672 1163 l 619 1143 z "},"Ỹ":{"ha":854,"x_min":76,"x_max":1061,"o":"m 406 436 l 183 1047 l 378 1047 l 582 496 l 406 436 m 501 429 l 569 531 l 575 531 l 900 1019 l 949 1019 l 557 429 l 501 429 m 294 0 l 401 503 l 588 503 l 475 0 l 294 0 m 144 0 l 144 39 l 651 39 l 651 0 l 144 0 m 76 1010 l 76 1047 l 554 1047 l 554 1010 l 76 1010 m 735 1010 l 735 1047 l 1061 1047 l 1061 1010 l 735 1010 m 386 1171 q 427 1260 400 1219 q 492 1326 454 1301 q 576 1350 531 1350 q 646 1334 619 1350 q 697 1302 672 1318 q 756 1286 722 1286 q 824 1309 796 1286 q 864 1353 851 1332 l 913 1353 q 835 1219 885 1265 q 719 1172 785 1172 q 649 1188 676 1172 q 597 1220 621 1204 q 538 1236 572 1236 q 473 1217 501 1236 q 432 1171 444 1199 l 386 1171 z "},"Z":{"ha":915,"x_min":6,"x_max":988,"o":"m 6 39 l 764 1004 l 764 1010 l 988 1010 l 236 44 l 236 39 l 6 39 m 6 0 l 6 39 l 488 39 q 601 62 550 39 q 701 146 653 85 q 803 322 750 207 l 851 322 l 768 0 l 6 0 m 206 747 l 290 1047 l 988 1047 l 988 1010 l 556 1010 q 446 985 499 1010 q 344 903 393 960 q 251 747 296 846 l 206 747 z "},"Ź":{"ha":915,"x_min":6,"x_max":988,"o":"m 6 39 l 764 1004 l 764 1010 l 988 1010 l 236 44 l 236 39 l 6 39 m 6 0 l 6 39 l 488 39 q 601 62 550 39 q 701 146 653 85 q 803 322 750 207 l 851 322 l 768 0 l 6 0 m 206 747 l 290 1047 l 988 1047 l 988 1010 l 556 1010 q 446 985 499 1010 q 344 903 393 960 q 251 747 296 846 l 206 747 m 454 1172 l 696 1319 q 763 1356 738 1346 q 814 1367 789 1367 q 863 1349 846 1367 q 881 1306 881 1332 q 860 1257 881 1279 q 796 1226 840 1235 l 538 1172 l 454 1172 z "},"Ž":{"ha":915,"x_min":6,"x_max":988,"o":"m 6 39 l 764 1004 l 764 1010 l 988 1010 l 236 44 l 236 39 l 6 39 m 6 0 l 6 39 l 488 39 q 601 62 550 39 q 701 146 653 85 q 803 322 750 207 l 851 322 l 768 0 l 6 0 m 206 747 l 290 1047 l 988 1047 l 988 1010 l 556 1010 q 446 985 499 1010 q 344 903 393 960 q 251 747 296 846 l 206 747 m 607 1171 l 450 1360 l 513 1360 l 671 1286 l 861 1360 l 924 1360 l 689 1171 l 607 1171 z "},"Ż":{"ha":915,"x_min":6,"x_max":988,"o":"m 6 39 l 764 1004 l 764 1010 l 988 1010 l 236 44 l 236 39 l 6 39 m 6 0 l 6 39 l 488 39 q 601 62 550 39 q 701 146 653 85 q 803 322 750 207 l 851 322 l 768 0 l 6 0 m 206 747 l 290 1047 l 988 1047 l 988 1010 l 556 1010 q 446 985 499 1010 q 344 903 393 960 q 251 747 296 846 l 206 747 m 644 1153 q 574 1183 604 1153 q 543 1254 543 1213 q 574 1328 543 1297 q 644 1358 604 1358 q 719 1328 689 1358 q 749 1254 749 1297 q 719 1183 749 1213 q 644 1153 689 1153 z "},"Ẓ":{"ha":915,"x_min":6,"x_max":988,"o":"m 6 39 l 764 1004 l 764 1010 l 988 1010 l 236 44 l 236 39 l 6 39 m 6 0 l 6 39 l 488 39 q 601 62 550 39 q 701 146 653 85 q 803 322 750 207 l 851 322 l 768 0 l 6 0 m 206 747 l 290 1047 l 988 1047 l 988 1010 l 556 1010 q 446 985 499 1010 q 344 903 393 960 q 251 747 296 846 l 206 747 m 339 -303 q 268 -272 299 -303 q 238 -201 238 -242 q 268 -127 238 -157 q 339 -97 299 -97 q 413 -127 383 -97 q 443 -201 443 -157 q 413 -272 443 -242 q 339 -303 383 -303 z "},"a":{"ha":792,"x_min":50,"x_max":806,"o":"m 271 -17 q 162 14 213 -17 q 81 101 111 44 q 50 236 50 157 q 83 390 50 317 q 168 519 115 463 q 287 609 221 576 q 419 642 353 642 q 508 615 476 642 q 558 542 540 589 l 567 542 l 536 415 q 539 441 538 429 q 540 464 540 453 q 511 558 540 521 q 442 594 482 594 q 372 566 404 594 q 312 490 339 538 q 265 385 285 443 q 236 268 246 328 q 226 156 226 208 q 244 63 226 92 q 299 35 263 35 q 366 56 329 35 q 439 126 403 76 q 500 263 475 176 l 469 97 l 461 97 q 383 17 433 50 q 271 -17 333 -17 m 579 -17 q 524 -4 550 -17 q 483 35 499 8 q 468 106 468 61 q 472 147 468 124 q 486 214 476 171 l 586 625 l 747 625 l 635 163 q 624 111 628 132 q 621 79 621 90 q 642 50 621 50 q 701 89 664 50 q 774 217 738 128 l 806 204 q 753 99 786 150 q 677 16 721 49 q 579 -17 633 -17 z "},"á":{"ha":792,"x_min":50,"x_max":811,"o":"m 271 -17 q 162 14 213 -17 q 81 101 111 44 q 50 236 50 157 q 83 390 50 317 q 168 519 115 463 q 287 609 221 576 q 419 642 353 642 q 508 615 476 642 q 558 542 540 589 l 567 542 l 536 415 q 539 441 538 429 q 540 464 540 453 q 511 558 540 521 q 442 594 482 594 q 372 566 404 594 q 312 490 339 538 q 265 385 285 443 q 236 268 246 328 q 226 156 226 208 q 244 63 226 92 q 299 35 263 35 q 366 56 329 35 q 439 126 403 76 q 500 263 475 176 l 469 97 l 461 97 q 383 17 433 50 q 271 -17 333 -17 m 579 -17 q 524 -4 550 -17 q 483 35 499 8 q 468 106 468 61 q 472 147 468 124 q 486 214 476 171 l 586 625 l 747 625 l 635 163 q 624 111 628 132 q 621 79 621 90 q 642 50 621 50 q 701 89 664 50 q 774 217 738 128 l 806 204 q 753 99 786 150 q 677 16 721 49 q 579 -17 633 -17 m 431 728 l 629 946 q 690 998 665 986 q 738 1010 715 1010 q 794 990 776 1010 q 811 943 811 969 q 797 902 811 921 q 747 864 782 883 l 503 728 l 431 728 z "},"ă":{"ha":792,"x_min":50,"x_max":806,"o":"m 271 -17 q 162 14 213 -17 q 81 101 111 44 q 50 236 50 157 q 83 390 50 317 q 168 519 115 463 q 287 609 221 576 q 419 642 353 642 q 508 615 476 642 q 558 542 540 589 l 567 542 l 536 415 q 539 441 538 429 q 540 464 540 453 q 511 558 540 521 q 442 594 482 594 q 372 566 404 594 q 312 490 339 538 q 265 385 285 443 q 236 268 246 328 q 226 156 226 208 q 244 63 226 92 q 299 35 263 35 q 366 56 329 35 q 439 126 403 76 q 500 263 475 176 l 469 97 l 461 97 q 383 17 433 50 q 271 -17 333 -17 m 579 -17 q 524 -4 550 -17 q 483 35 499 8 q 468 106 468 61 q 472 147 468 124 q 486 214 476 171 l 586 625 l 747 625 l 635 163 q 624 111 628 132 q 621 79 621 90 q 642 50 621 50 q 701 89 664 50 q 774 217 738 128 l 806 204 q 753 99 786 150 q 677 16 721 49 q 579 -17 633 -17 m 478 728 q 341 774 390 728 q 292 899 292 819 q 293 927 292 911 q 299 960 294 943 l 353 960 q 351 950 351 954 q 351 942 351 946 q 394 872 351 893 q 499 850 436 850 q 619 876 568 850 q 690 960 669 901 l 747 960 q 695 842 731 894 q 606 759 660 790 q 478 728 551 728 z "},"ắ":{"ha":792,"x_min":50,"x_max":881,"o":"m 271 -17 q 162 14 213 -17 q 81 101 111 44 q 50 236 50 157 q 83 390 50 317 q 168 519 115 463 q 287 609 221 576 q 419 642 353 642 q 508 615 476 642 q 558 542 540 589 l 567 542 l 536 415 q 539 441 538 429 q 540 464 540 453 q 511 558 540 521 q 442 594 482 594 q 372 566 404 594 q 312 490 339 538 q 265 385 285 443 q 236 268 246 328 q 226 156 226 208 q 244 63 226 92 q 299 35 263 35 q 366 56 329 35 q 439 126 403 76 q 500 263 475 176 l 469 97 l 461 97 q 383 17 433 50 q 271 -17 333 -17 m 579 -17 q 524 -4 550 -17 q 483 35 499 8 q 468 106 468 61 q 472 147 468 124 q 486 214 476 171 l 586 625 l 747 625 l 635 163 q 624 111 628 132 q 621 79 621 90 q 642 50 621 50 q 701 89 664 50 q 774 217 738 128 l 806 204 q 753 99 786 150 q 677 16 721 49 q 579 -17 633 -17 m 494 731 q 361 774 404 731 q 339 904 318 817 l 388 904 q 399 855 383 871 q 444 834 414 839 q 510 829 474 829 q 590 835 554 829 q 649 857 625 840 q 679 904 672 874 l 728 904 q 649 775 711 819 q 494 731 588 731 m 454 944 l 696 1093 q 765 1129 739 1118 q 815 1140 790 1140 q 864 1123 846 1140 q 882 1079 882 1106 q 862 1031 882 1053 q 797 999 842 1008 l 539 944 l 454 944 z "},"ặ":{"ha":792,"x_min":50,"x_max":806,"o":"m 271 -17 q 162 14 213 -17 q 81 101 111 44 q 50 236 50 157 q 83 390 50 317 q 168 519 115 463 q 287 609 221 576 q 419 642 353 642 q 508 615 476 642 q 558 542 540 589 l 567 542 l 536 415 q 539 441 538 429 q 540 464 540 453 q 511 558 540 521 q 442 594 482 594 q 372 566 404 594 q 312 490 339 538 q 265 385 285 443 q 236 268 246 328 q 226 156 226 208 q 244 63 226 92 q 299 35 263 35 q 366 56 329 35 q 439 126 403 76 q 500 263 475 176 l 469 97 l 461 97 q 383 17 433 50 q 271 -17 333 -17 m 579 -17 q 524 -4 550 -17 q 483 35 499 8 q 468 106 468 61 q 472 147 468 124 q 486 214 476 171 l 586 625 l 747 625 l 635 163 q 624 111 628 132 q 621 79 621 90 q 642 50 621 50 q 701 89 664 50 q 774 217 738 128 l 806 204 q 753 99 786 150 q 677 16 721 49 q 579 -17 633 -17 m 276 -303 q 206 -272 236 -303 q 175 -201 175 -242 q 206 -127 175 -157 q 276 -97 236 -97 q 351 -127 321 -97 q 381 -201 381 -157 q 351 -272 381 -242 q 276 -303 321 -303 m 478 728 q 341 774 390 728 q 292 899 292 819 q 293 927 292 911 q 299 960 294 943 l 353 960 q 351 950 351 954 q 351 942 351 946 q 394 872 351 893 q 499 850 436 850 q 619 876 568 850 q 690 960 669 901 l 747 960 q 695 842 731 894 q 606 759 660 790 q 478 728 551 728 z "},"ằ":{"ha":792,"x_min":50,"x_max":806,"o":"m 271 -17 q 162 14 213 -17 q 81 101 111 44 q 50 236 50 157 q 83 390 50 317 q 168 519 115 463 q 287 609 221 576 q 419 642 353 642 q 508 615 476 642 q 558 542 540 589 l 567 542 l 536 415 q 539 441 538 429 q 540 464 540 453 q 511 558 540 521 q 442 594 482 594 q 372 566 404 594 q 312 490 339 538 q 265 385 285 443 q 236 268 246 328 q 226 156 226 208 q 244 63 226 92 q 299 35 263 35 q 366 56 329 35 q 439 126 403 76 q 500 263 475 176 l 469 97 l 461 97 q 383 17 433 50 q 271 -17 333 -17 m 579 -17 q 524 -4 550 -17 q 483 35 499 8 q 468 106 468 61 q 472 147 468 124 q 486 214 476 171 l 586 625 l 747 625 l 635 163 q 624 111 628 132 q 621 79 621 90 q 642 50 621 50 q 701 89 664 50 q 774 217 738 128 l 806 204 q 753 99 786 150 q 677 16 721 49 q 579 -17 633 -17 m 486 731 q 353 774 396 731 q 331 904 310 817 l 379 904 q 390 855 375 871 q 435 834 406 839 q 501 829 465 829 q 581 835 546 829 q 640 857 617 840 q 671 904 664 874 l 719 904 q 641 775 703 819 q 486 731 579 731 m 546 949 l 293 1007 q 244 1033 260 1014 q 229 1074 229 1051 q 250 1123 229 1101 q 307 1144 271 1144 q 352 1134 331 1144 q 413 1097 374 1124 l 631 949 l 546 949 z "},"ẳ":{"ha":792,"x_min":50,"x_max":806,"o":"m 271 -17 q 162 14 213 -17 q 81 101 111 44 q 50 236 50 157 q 83 390 50 317 q 168 519 115 463 q 287 609 221 576 q 419 642 353 642 q 508 615 476 642 q 558 542 540 589 l 567 542 l 536 415 q 539 441 538 429 q 540 464 540 453 q 511 558 540 521 q 442 594 482 594 q 372 566 404 594 q 312 490 339 538 q 265 385 285 443 q 236 268 246 328 q 226 156 226 208 q 244 63 226 92 q 299 35 263 35 q 366 56 329 35 q 439 126 403 76 q 500 263 475 176 l 469 97 l 461 97 q 383 17 433 50 q 271 -17 333 -17 m 579 -17 q 524 -4 550 -17 q 483 35 499 8 q 468 106 468 61 q 472 147 468 124 q 486 214 476 171 l 586 625 l 747 625 l 635 163 q 624 111 628 132 q 621 79 621 90 q 642 50 621 50 q 701 89 664 50 q 774 217 738 128 l 806 204 q 753 99 786 150 q 677 16 721 49 q 579 -17 633 -17 m 497 731 q 364 774 407 731 q 342 904 321 817 l 390 904 q 401 855 386 871 q 447 834 417 839 q 513 829 476 829 q 592 835 557 829 q 651 857 628 840 q 682 904 675 874 l 731 904 q 652 775 714 819 q 497 731 590 731 m 511 910 q 538 967 518 947 q 575 1001 557 988 q 596 1032 593 1015 q 589 1083 603 1069 q 549 1097 575 1097 q 506 1085 524 1097 q 485 1057 488 1072 q 488 1041 483 1044 q 497 1032 493 1038 q 499 1010 501 1026 q 481 985 497 993 q 443 976 464 976 q 406 993 419 976 q 397 1035 393 1010 q 458 1127 410 1100 q 560 1154 506 1154 q 660 1124 629 1154 q 679 1028 692 1094 q 657 987 674 1001 q 619 963 640 972 q 581 942 599 953 q 557 910 564 931 l 511 910 z "},"ẵ":{"ha":792,"x_min":50,"x_max":842,"o":"m 271 -17 q 162 14 213 -17 q 81 101 111 44 q 50 236 50 157 q 83 390 50 317 q 168 519 115 463 q 287 609 221 576 q 419 642 353 642 q 508 615 476 642 q 558 542 540 589 l 567 542 l 536 415 q 539 441 538 429 q 540 464 540 453 q 511 558 540 521 q 442 594 482 594 q 372 566 404 594 q 312 490 339 538 q 265 385 285 443 q 236 268 246 328 q 226 156 226 208 q 244 63 226 92 q 299 35 263 35 q 366 56 329 35 q 439 126 403 76 q 500 263 475 176 l 469 97 l 461 97 q 383 17 433 50 q 271 -17 333 -17 m 579 -17 q 524 -4 550 -17 q 483 35 499 8 q 468 106 468 61 q 472 147 468 124 q 486 214 476 171 l 586 625 l 747 625 l 635 163 q 624 111 628 132 q 621 79 621 90 q 642 50 621 50 q 701 89 664 50 q 774 217 738 128 l 806 204 q 753 99 786 150 q 677 16 721 49 q 579 -17 633 -17 m 492 731 q 358 774 401 731 q 335 904 315 817 l 383 904 q 394 855 379 871 q 440 834 410 839 q 507 829 469 829 q 585 835 550 829 q 644 857 621 840 q 676 904 668 874 l 724 904 q 647 775 708 819 q 492 731 585 731 m 315 949 q 357 1039 331 999 q 422 1103 383 1079 q 507 1128 460 1128 q 576 1112 549 1128 q 628 1080 603 1096 q 686 1064 653 1064 q 754 1087 726 1064 q 793 1131 782 1110 l 842 1131 q 765 997 814 1044 q 649 950 715 950 q 578 966 606 950 q 527 998 551 982 q 467 1014 503 1014 q 403 995 431 1014 q 361 949 375 976 l 315 949 z "},"â":{"ha":792,"x_min":50,"x_max":806,"o":"m 271 -17 q 162 14 213 -17 q 81 101 111 44 q 50 236 50 157 q 83 390 50 317 q 168 519 115 463 q 287 609 221 576 q 419 642 353 642 q 508 615 476 642 q 558 542 540 589 l 567 542 l 536 415 q 539 441 538 429 q 540 464 540 453 q 511 558 540 521 q 442 594 482 594 q 372 566 404 594 q 312 490 339 538 q 265 385 285 443 q 236 268 246 328 q 226 156 226 208 q 244 63 226 92 q 299 35 263 35 q 366 56 329 35 q 439 126 403 76 q 500 263 475 176 l 469 97 l 461 97 q 383 17 433 50 q 271 -17 333 -17 m 579 -17 q 524 -4 550 -17 q 483 35 499 8 q 468 106 468 61 q 472 147 468 124 q 486 214 476 171 l 586 625 l 747 625 l 635 163 q 624 111 628 132 q 621 79 621 90 q 642 50 621 50 q 701 89 664 50 q 774 217 738 128 l 806 204 q 753 99 786 150 q 677 16 721 49 q 579 -17 633 -17 m 268 728 l 522 1006 l 608 1006 l 744 728 l 685 728 l 535 861 l 326 728 l 268 728 z "},"ấ":{"ha":792,"x_min":50,"x_max":806,"o":"m 271 -17 q 162 14 213 -17 q 81 101 111 44 q 50 236 50 157 q 83 390 50 317 q 168 519 115 463 q 287 609 221 576 q 419 642 353 642 q 508 615 476 642 q 558 542 540 589 l 567 542 l 536 415 q 539 441 538 429 q 540 464 540 453 q 511 558 540 521 q 442 594 482 594 q 372 566 404 594 q 312 490 339 538 q 265 385 285 443 q 236 268 246 328 q 226 156 226 208 q 244 63 226 92 q 299 35 263 35 q 366 56 329 35 q 439 126 403 76 q 500 263 475 176 l 469 97 l 461 97 q 383 17 433 50 q 271 -17 333 -17 m 579 -17 q 524 -4 550 -17 q 483 35 499 8 q 468 106 468 61 q 472 147 468 124 q 486 214 476 171 l 586 625 l 747 625 l 635 163 q 624 111 628 132 q 621 79 621 90 q 642 50 621 50 q 701 89 664 50 q 774 217 738 128 l 806 204 q 753 99 786 150 q 677 16 721 49 q 579 -17 633 -17 m 268 728 l 467 875 l 549 875 l 699 728 l 636 728 l 499 788 l 329 728 l 268 728 m 310 921 l 551 1069 q 620 1106 594 1094 q 671 1117 646 1117 q 719 1099 701 1117 q 738 1056 738 1082 q 717 1007 738 1029 q 653 975 697 985 l 394 921 l 310 921 z "},"ậ":{"ha":792,"x_min":50,"x_max":806,"o":"m 271 -17 q 162 14 213 -17 q 81 101 111 44 q 50 236 50 157 q 83 390 50 317 q 168 519 115 463 q 287 609 221 576 q 419 642 353 642 q 508 615 476 642 q 558 542 540 589 l 567 542 l 536 415 q 539 441 538 429 q 540 464 540 453 q 511 558 540 521 q 442 594 482 594 q 372 566 404 594 q 312 490 339 538 q 265 385 285 443 q 236 268 246 328 q 226 156 226 208 q 244 63 226 92 q 299 35 263 35 q 366 56 329 35 q 439 126 403 76 q 500 263 475 176 l 469 97 l 461 97 q 383 17 433 50 q 271 -17 333 -17 m 579 -17 q 524 -4 550 -17 q 483 35 499 8 q 468 106 468 61 q 472 147 468 124 q 486 214 476 171 l 586 625 l 747 625 l 635 163 q 624 111 628 132 q 621 79 621 90 q 642 50 621 50 q 701 89 664 50 q 774 217 738 128 l 806 204 q 753 99 786 150 q 677 16 721 49 q 579 -17 633 -17 m 276 -303 q 206 -272 236 -303 q 175 -201 175 -242 q 206 -127 175 -157 q 276 -97 236 -97 q 351 -127 321 -97 q 381 -201 381 -157 q 351 -272 381 -242 q 276 -303 321 -303 m 268 728 l 522 1006 l 608 1006 l 744 728 l 685 728 l 535 861 l 326 728 l 268 728 z "},"ầ":{"ha":792,"x_min":50,"x_max":806,"o":"m 271 -17 q 162 14 213 -17 q 81 101 111 44 q 50 236 50 157 q 83 390 50 317 q 168 519 115 463 q 287 609 221 576 q 419 642 353 642 q 508 615 476 642 q 558 542 540 589 l 567 542 l 536 415 q 539 441 538 429 q 540 464 540 453 q 511 558 540 521 q 442 594 482 594 q 372 566 404 594 q 312 490 339 538 q 265 385 285 443 q 236 268 246 328 q 226 156 226 208 q 244 63 226 92 q 299 35 263 35 q 366 56 329 35 q 439 126 403 76 q 500 263 475 176 l 469 97 l 461 97 q 383 17 433 50 q 271 -17 333 -17 m 579 -17 q 524 -4 550 -17 q 483 35 499 8 q 468 106 468 61 q 472 147 468 124 q 486 214 476 171 l 586 625 l 747 625 l 635 163 q 624 111 628 132 q 621 79 621 90 q 642 50 621 50 q 701 89 664 50 q 774 217 738 128 l 806 204 q 753 99 786 150 q 677 16 721 49 q 579 -17 633 -17 m 274 728 l 472 875 l 554 875 l 704 728 l 642 728 l 504 788 l 335 728 l 274 728 m 668 925 l 415 983 q 367 1009 382 990 q 351 1050 351 1028 q 372 1099 351 1078 q 429 1121 393 1121 q 474 1110 453 1121 q 535 1074 496 1100 l 753 925 l 668 925 z "},"ẩ":{"ha":792,"x_min":50,"x_max":828,"o":"m 271 -17 q 162 14 213 -17 q 81 101 111 44 q 50 236 50 157 q 83 390 50 317 q 168 519 115 463 q 287 609 221 576 q 419 642 353 642 q 508 615 476 642 q 558 542 540 589 l 567 542 l 536 415 q 539 441 538 429 q 540 464 540 453 q 511 558 540 521 q 442 594 482 594 q 372 566 404 594 q 312 490 339 538 q 265 385 285 443 q 236 268 246 328 q 226 156 226 208 q 244 63 226 92 q 299 35 263 35 q 366 56 329 35 q 439 126 403 76 q 500 263 475 176 l 469 97 l 461 97 q 383 17 433 50 q 271 -17 333 -17 m 579 -17 q 524 -4 550 -17 q 483 35 499 8 q 468 106 468 61 q 472 147 468 124 q 486 214 476 171 l 586 625 l 747 625 l 635 163 q 624 111 628 132 q 621 79 621 90 q 642 50 621 50 q 701 89 664 50 q 774 217 738 128 l 806 204 q 753 99 786 150 q 677 16 721 49 q 579 -17 633 -17 m 267 728 l 465 875 l 547 875 l 697 728 l 635 728 l 497 788 l 328 728 l 267 728 m 646 851 q 673 908 654 888 q 710 943 692 929 q 732 974 729 957 q 725 1024 739 1010 q 685 1038 711 1038 q 642 1026 660 1038 q 621 999 624 1014 q 624 982 619 986 q 633 972 628 978 q 635 951 638 967 q 615 926 632 935 q 579 918 599 918 q 541 934 554 918 q 533 976 528 950 q 593 1068 546 1040 q 694 1096 640 1096 q 796 1065 764 1096 q 814 968 828 1035 q 793 927 810 942 q 756 903 776 913 q 717 882 735 893 q 692 851 699 871 l 646 851 z "},"ẫ":{"ha":792,"x_min":50,"x_max":817,"o":"m 271 -17 q 162 14 213 -17 q 81 101 111 44 q 50 236 50 157 q 83 390 50 317 q 168 519 115 463 q 287 609 221 576 q 419 642 353 642 q 508 615 476 642 q 558 542 540 589 l 567 542 l 536 415 q 539 441 538 429 q 540 464 540 453 q 511 558 540 521 q 442 594 482 594 q 372 566 404 594 q 312 490 339 538 q 265 385 285 443 q 236 268 246 328 q 226 156 226 208 q 244 63 226 92 q 299 35 263 35 q 366 56 329 35 q 439 126 403 76 q 500 263 475 176 l 469 97 l 461 97 q 383 17 433 50 q 271 -17 333 -17 m 579 -17 q 524 -4 550 -17 q 483 35 499 8 q 468 106 468 61 q 472 147 468 124 q 486 214 476 171 l 586 625 l 747 625 l 635 163 q 624 111 628 132 q 621 79 621 90 q 642 50 621 50 q 701 89 664 50 q 774 217 738 128 l 806 204 q 753 99 786 150 q 677 16 721 49 q 579 -17 633 -17 m 267 728 l 465 875 l 547 875 l 697 728 l 635 728 l 497 788 l 328 728 l 267 728 m 290 907 q 332 997 306 957 q 397 1062 358 1038 q 482 1086 435 1086 q 551 1070 524 1086 q 603 1038 578 1054 q 661 1022 628 1022 q 729 1045 701 1022 q 768 1089 757 1068 l 817 1089 q 740 956 789 1003 q 624 908 690 908 q 553 924 581 908 q 502 956 526 940 q 442 972 478 972 q 378 953 406 972 q 336 907 350 935 l 290 907 z "},"ȁ":{"ha":792,"x_min":50,"x_max":806,"o":"m 271 -17 q 162 14 213 -17 q 81 101 111 44 q 50 236 50 157 q 83 390 50 317 q 168 519 115 463 q 287 609 221 576 q 419 642 353 642 q 508 615 476 642 q 558 542 540 589 l 567 542 l 536 415 q 539 441 538 429 q 540 464 540 453 q 511 558 540 521 q 442 594 482 594 q 372 566 404 594 q 312 490 339 538 q 265 385 285 443 q 236 268 246 328 q 226 156 226 208 q 244 63 226 92 q 299 35 263 35 q 366 56 329 35 q 439 126 403 76 q 500 263 475 176 l 469 97 l 461 97 q 383 17 433 50 q 271 -17 333 -17 m 579 -17 q 524 -4 550 -17 q 483 35 499 8 q 468 106 468 61 q 472 147 468 124 q 486 214 476 171 l 586 625 l 747 625 l 635 163 q 624 111 628 132 q 621 79 621 90 q 642 50 621 50 q 701 89 664 50 q 774 217 738 128 l 806 204 q 753 99 786 150 q 677 16 721 49 q 579 -17 633 -17 m 646 728 l 450 860 q 401 906 411 885 q 390 942 390 926 q 412 992 390 975 q 465 1010 433 1010 q 511 998 490 1010 q 556 953 532 986 l 719 728 l 646 728 m 383 728 l 188 860 q 138 906 149 885 q 128 942 128 926 q 149 992 128 975 q 203 1010 171 1010 q 249 998 228 1010 q 293 953 269 986 l 457 728 l 383 728 z "},"ä":{"ha":792,"x_min":50,"x_max":806,"o":"m 271 -17 q 162 14 213 -17 q 81 101 111 44 q 50 236 50 157 q 83 390 50 317 q 168 519 115 463 q 287 609 221 576 q 419 642 353 642 q 508 615 476 642 q 558 542 540 589 l 567 542 l 536 415 q 539 441 538 429 q 540 464 540 453 q 511 558 540 521 q 442 594 482 594 q 372 566 404 594 q 312 490 339 538 q 265 385 285 443 q 236 268 246 328 q 226 156 226 208 q 244 63 226 92 q 299 35 263 35 q 366 56 329 35 q 439 126 403 76 q 500 263 475 176 l 469 97 l 461 97 q 383 17 433 50 q 271 -17 333 -17 m 579 -17 q 524 -4 550 -17 q 483 35 499 8 q 468 106 468 61 q 472 147 468 124 q 486 214 476 171 l 586 625 l 747 625 l 635 163 q 624 111 628 132 q 621 79 621 90 q 642 50 621 50 q 701 89 664 50 q 774 217 738 128 l 806 204 q 753 99 786 150 q 677 16 721 49 q 579 -17 633 -17 m 681 758 q 622 783 647 758 q 597 842 597 808 q 622 901 597 876 q 681 926 647 926 q 740 901 715 926 q 765 842 765 876 q 740 783 765 808 q 681 758 715 758 m 417 758 q 358 783 383 758 q 333 842 333 808 q 358 901 333 876 q 417 926 383 926 q 476 901 451 926 q 501 842 501 876 q 476 783 501 808 q 417 758 451 758 z "},"ạ":{"ha":792,"x_min":50,"x_max":806,"o":"m 271 -17 q 162 14 213 -17 q 81 101 111 44 q 50 236 50 157 q 83 390 50 317 q 168 519 115 463 q 287 609 221 576 q 419 642 353 642 q 508 615 476 642 q 558 542 540 589 l 567 542 l 536 415 q 539 441 538 429 q 540 464 540 453 q 511 558 540 521 q 442 594 482 594 q 372 566 404 594 q 312 490 339 538 q 265 385 285 443 q 236 268 246 328 q 226 156 226 208 q 244 63 226 92 q 299 35 263 35 q 366 56 329 35 q 439 126 403 76 q 500 263 475 176 l 469 97 l 461 97 q 383 17 433 50 q 271 -17 333 -17 m 579 -17 q 524 -4 550 -17 q 483 35 499 8 q 468 106 468 61 q 472 147 468 124 q 486 214 476 171 l 586 625 l 747 625 l 635 163 q 624 111 628 132 q 621 79 621 90 q 642 50 621 50 q 701 89 664 50 q 774 217 738 128 l 806 204 q 753 99 786 150 q 677 16 721 49 q 579 -17 633 -17 m 276 -303 q 206 -272 236 -303 q 175 -201 175 -242 q 206 -127 175 -157 q 276 -97 236 -97 q 351 -127 321 -97 q 381 -201 381 -157 q 351 -272 381 -242 q 276 -303 321 -303 z "},"à":{"ha":792,"x_min":50,"x_max":806,"o":"m 271 -17 q 162 14 213 -17 q 81 101 111 44 q 50 236 50 157 q 83 390 50 317 q 168 519 115 463 q 287 609 221 576 q 419 642 353 642 q 508 615 476 642 q 558 542 540 589 l 567 542 l 536 415 q 539 441 538 429 q 540 464 540 453 q 511 558 540 521 q 442 594 482 594 q 372 566 404 594 q 312 490 339 538 q 265 385 285 443 q 236 268 246 328 q 226 156 226 208 q 244 63 226 92 q 299 35 263 35 q 366 56 329 35 q 439 126 403 76 q 500 263 475 176 l 469 97 l 461 97 q 383 17 433 50 q 271 -17 333 -17 m 579 -17 q 524 -4 550 -17 q 483 35 499 8 q 468 106 468 61 q 472 147 468 124 q 486 214 476 171 l 586 625 l 747 625 l 635 163 q 624 111 628 132 q 621 79 621 90 q 642 50 621 50 q 701 89 664 50 q 774 217 738 128 l 806 204 q 753 99 786 150 q 677 16 721 49 q 579 -17 633 -17 m 560 728 l 364 860 q 316 906 326 885 q 306 942 306 926 q 326 992 306 975 q 381 1010 347 1010 q 426 998 404 1010 q 471 953 447 986 l 633 728 l 560 728 z "},"ả":{"ha":792,"x_min":50,"x_max":806,"o":"m 271 -17 q 162 14 213 -17 q 81 101 111 44 q 50 236 50 157 q 83 390 50 317 q 168 519 115 463 q 287 609 221 576 q 419 642 353 642 q 508 615 476 642 q 558 542 540 589 l 567 542 l 536 415 q 539 441 538 429 q 540 464 540 453 q 511 558 540 521 q 442 594 482 594 q 372 566 404 594 q 312 490 339 538 q 265 385 285 443 q 236 268 246 328 q 226 156 226 208 q 244 63 226 92 q 299 35 263 35 q 366 56 329 35 q 439 126 403 76 q 500 263 475 176 l 469 97 l 461 97 q 383 17 433 50 q 271 -17 333 -17 m 579 -17 q 524 -4 550 -17 q 483 35 499 8 q 468 106 468 61 q 472 147 468 124 q 486 214 476 171 l 586 625 l 747 625 l 635 163 q 624 111 628 132 q 621 79 621 90 q 642 50 621 50 q 701 89 664 50 q 774 217 738 128 l 806 204 q 753 99 786 150 q 677 16 721 49 q 579 -17 633 -17 m 490 721 q 509 766 496 749 q 537 797 522 783 q 563 823 551 811 q 575 850 574 835 q 567 894 579 882 q 528 907 554 907 q 485 895 503 907 q 464 868 467 883 q 467 851 463 856 q 476 842 472 847 q 478 821 481 836 q 460 796 476 804 q 422 788 443 788 q 387 803 399 788 q 376 840 375 818 q 406 913 381 886 q 467 953 431 940 q 539 965 503 965 q 634 938 604 965 q 658 856 664 910 q 640 810 656 828 q 602 780 624 793 q 562 753 581 767 q 536 721 543 740 l 490 721 z "},"ȃ":{"ha":792,"x_min":50,"x_max":806,"o":"m 271 -17 q 162 14 213 -17 q 81 101 111 44 q 50 236 50 157 q 83 390 50 317 q 168 519 115 463 q 287 609 221 576 q 419 642 353 642 q 508 615 476 642 q 558 542 540 589 l 567 542 l 536 415 q 539 441 538 429 q 540 464 540 453 q 511 558 540 521 q 442 594 482 594 q 372 566 404 594 q 312 490 339 538 q 265 385 285 443 q 236 268 246 328 q 226 156 226 208 q 244 63 226 92 q 299 35 263 35 q 366 56 329 35 q 439 126 403 76 q 500 263 475 176 l 469 97 l 461 97 q 383 17 433 50 q 271 -17 333 -17 m 579 -17 q 524 -4 550 -17 q 483 35 499 8 q 468 106 468 61 q 472 147 468 124 q 486 214 476 171 l 586 625 l 747 625 l 635 163 q 624 111 628 132 q 621 79 621 90 q 642 50 621 50 q 701 89 664 50 q 774 217 738 128 l 806 204 q 753 99 786 150 q 677 16 721 49 q 579 -17 633 -17 m 289 728 q 341 845 306 793 q 430 928 376 897 q 557 960 483 960 q 695 914 646 960 q 744 789 744 868 q 742 760 744 776 q 738 728 740 744 l 683 728 q 685 738 685 733 q 685 746 685 742 q 642 816 685 794 q 536 838 600 838 q 417 813 468 838 q 346 728 365 788 l 289 728 z "},"ā":{"ha":792,"x_min":50,"x_max":806,"o":"m 271 -17 q 162 14 213 -17 q 81 101 111 44 q 50 236 50 157 q 83 390 50 317 q 168 519 115 463 q 287 609 221 576 q 419 642 353 642 q 508 615 476 642 q 558 542 540 589 l 567 542 l 536 415 q 539 441 538 429 q 540 464 540 453 q 511 558 540 521 q 442 594 482 594 q 372 566 404 594 q 312 490 339 538 q 265 385 285 443 q 236 268 246 328 q 226 156 226 208 q 244 63 226 92 q 299 35 263 35 q 366 56 329 35 q 439 126 403 76 q 500 263 475 176 l 469 97 l 461 97 q 383 17 433 50 q 271 -17 333 -17 m 579 -17 q 524 -4 550 -17 q 483 35 499 8 q 468 106 468 61 q 472 147 468 124 q 486 214 476 171 l 586 625 l 747 625 l 635 163 q 624 111 628 132 q 621 79 621 90 q 642 50 621 50 q 701 89 664 50 q 774 217 738 128 l 806 204 q 753 99 786 150 q 677 16 721 49 q 579 -17 633 -17 m 290 822 l 314 928 l 772 928 l 749 822 l 290 822 z "},"ą":{"ha":792,"x_min":50,"x_max":806,"o":"m 271 -17 q 162 14 213 -17 q 81 101 111 44 q 50 236 50 157 q 83 390 50 317 q 168 519 115 463 q 287 609 221 576 q 419 642 353 642 q 508 615 476 642 q 558 542 540 589 l 567 542 l 536 415 q 539 441 538 429 q 540 464 540 453 q 511 558 540 521 q 442 594 482 594 q 372 566 404 594 q 312 490 339 538 q 265 385 285 443 q 236 268 246 328 q 226 156 226 208 q 244 63 226 92 q 299 35 263 35 q 366 56 329 35 q 439 126 403 76 q 500 263 475 176 l 469 97 l 461 97 q 383 17 433 50 q 271 -17 333 -17 m 579 -17 q 524 -4 550 -17 q 483 35 499 8 q 468 106 468 61 q 472 147 468 124 q 486 214 476 171 l 586 625 l 747 625 l 635 163 q 624 111 628 132 q 621 79 621 90 q 642 50 621 50 q 701 89 664 50 q 774 217 738 128 l 806 204 q 753 99 786 150 q 677 16 721 49 q 579 -17 633 -17 m 460 -325 q 376 -301 407 -325 q 344 -236 344 -276 q 411 -111 344 -176 q 607 21 478 -46 l 664 17 q 519 -92 572 -35 q 467 -199 467 -150 q 483 -240 467 -225 q 528 -254 500 -254 q 568 -247 546 -254 q 619 -225 590 -240 l 639 -258 q 559 -306 610 -286 q 460 -325 508 -325 z "},"å":{"ha":792,"x_min":50,"x_max":806,"o":"m 271 -17 q 162 14 213 -17 q 81 101 111 44 q 50 236 50 157 q 83 390 50 317 q 168 519 115 463 q 287 609 221 576 q 419 642 353 642 q 508 615 476 642 q 558 542 540 589 l 567 542 l 536 415 q 539 441 538 429 q 540 464 540 453 q 511 558 540 521 q 442 594 482 594 q 372 566 404 594 q 312 490 339 538 q 265 385 285 443 q 236 268 246 328 q 226 156 226 208 q 244 63 226 92 q 299 35 263 35 q 366 56 329 35 q 439 126 403 76 q 500 263 475 176 l 469 97 l 461 97 q 383 17 433 50 q 271 -17 333 -17 m 579 -17 q 524 -4 550 -17 q 483 35 499 8 q 468 106 468 61 q 472 147 468 124 q 486 214 476 171 l 586 625 l 747 625 l 635 163 q 624 111 628 132 q 621 79 621 90 q 642 50 621 50 q 701 89 664 50 q 774 217 738 128 l 806 204 q 753 99 786 150 q 677 16 721 49 q 579 -17 633 -17 m 553 743 q 453 785 496 743 q 411 885 411 826 q 453 983 411 942 q 553 1025 496 1025 q 652 984 610 1025 q 694 885 694 943 q 653 785 694 826 q 553 743 611 743 m 551 814 q 602 835 582 814 q 622 883 622 856 q 601 933 622 913 q 553 953 581 953 q 504 932 525 953 q 483 883 483 911 q 503 835 483 857 q 551 814 524 814 z "},"ǻ":{"ha":792,"x_min":50,"x_max":1006,"o":"m 271 -17 q 162 14 213 -17 q 81 101 111 44 q 50 236 50 157 q 83 390 50 317 q 168 519 115 463 q 287 609 221 576 q 419 642 353 642 q 508 615 476 642 q 558 542 540 589 l 567 542 l 536 415 q 539 441 538 429 q 540 464 540 453 q 511 558 540 521 q 442 594 482 594 q 372 566 404 594 q 312 490 339 538 q 265 385 285 443 q 236 268 246 328 q 226 156 226 208 q 244 63 226 92 q 299 35 263 35 q 366 56 329 35 q 439 126 403 76 q 500 263 475 176 l 469 97 l 461 97 q 383 17 433 50 q 271 -17 333 -17 m 579 -17 q 524 -4 550 -17 q 483 35 499 8 q 468 106 468 61 q 472 147 468 124 q 486 214 476 171 l 586 625 l 747 625 l 635 163 q 624 111 628 132 q 621 79 621 90 q 642 50 621 50 q 701 89 664 50 q 774 217 738 128 l 806 204 q 753 99 786 150 q 677 16 721 49 q 579 -17 633 -17 m 553 743 q 453 785 496 743 q 411 885 411 826 q 453 983 411 942 q 553 1025 496 1025 q 652 984 610 1025 q 694 885 694 943 q 653 785 694 826 q 553 743 611 743 m 551 814 q 602 835 582 814 q 622 883 622 856 q 601 933 622 913 q 553 953 581 953 q 504 932 525 953 q 483 883 483 911 q 503 835 483 857 q 551 814 524 814 m 625 1051 l 824 1269 q 885 1322 860 1310 q 932 1333 910 1333 q 988 1313 971 1333 q 1006 1267 1006 1293 q 991 1226 1006 1244 q 942 1188 976 1207 l 697 1051 l 625 1051 z "},"ã":{"ha":792,"x_min":50,"x_max":806,"o":"m 271 -17 q 162 14 213 -17 q 81 101 111 44 q 50 236 50 157 q 83 390 50 317 q 168 519 115 463 q 287 609 221 576 q 419 642 353 642 q 508 615 476 642 q 558 542 540 589 l 567 542 l 536 415 q 539 441 538 429 q 540 464 540 453 q 511 558 540 521 q 442 594 482 594 q 372 566 404 594 q 312 490 339 538 q 265 385 285 443 q 236 268 246 328 q 226 156 226 208 q 244 63 226 92 q 299 35 263 35 q 366 56 329 35 q 439 126 403 76 q 500 263 475 176 l 469 97 l 461 97 q 383 17 433 50 q 271 -17 333 -17 m 579 -17 q 524 -4 550 -17 q 483 35 499 8 q 468 106 468 61 q 472 147 468 124 q 486 214 476 171 l 586 625 l 747 625 l 635 163 q 624 111 628 132 q 621 79 621 90 q 642 50 621 50 q 701 89 664 50 q 774 217 738 128 l 806 204 q 753 99 786 150 q 677 16 721 49 q 579 -17 633 -17 m 264 749 q 306 839 279 799 q 370 903 332 879 q 456 928 408 928 q 524 912 497 928 q 576 880 551 896 q 635 864 601 864 q 703 887 675 864 q 742 931 731 910 l 790 931 q 713 797 763 844 q 597 750 664 750 q 527 766 554 750 q 476 798 500 782 q 415 814 451 814 q 351 795 379 814 q 310 749 324 776 l 264 749 z "},"æ":{"ha":1128,"x_min":50,"x_max":1106,"o":"m 776 -17 q 628 22 688 -17 q 538 120 568 60 q 507 247 507 181 q 541 390 507 319 q 631 517 575 460 q 756 608 688 574 q 896 642 825 642 q 1003 621 956 642 q 1078 563 1050 600 q 1106 476 1106 525 q 1069 373 1106 419 q 965 299 1032 326 q 804 271 897 271 q 733 274 771 271 q 667 281 696 276 q 629 286 638 285 l 636 328 q 687 317 660 319 q 754 314 714 314 q 877 339 831 314 q 944 406 924 364 q 965 496 965 449 q 943 574 965 547 q 881 600 921 600 q 808 570 840 600 q 751 492 776 540 q 710 384 726 443 q 684 267 693 325 q 675 163 675 210 q 703 63 675 94 q 790 32 732 32 q 925 68 857 32 q 1051 196 993 104 l 1083 172 q 951 33 1029 82 q 776 -17 872 -17 m 271 -17 q 161 13 211 -17 q 81 97 111 42 q 50 229 50 153 q 83 385 50 311 q 169 516 115 458 q 288 608 222 574 q 421 642 354 642 q 510 615 478 642 q 560 543 542 589 l 569 543 l 538 417 q 541 442 540 431 q 542 464 542 454 q 513 558 542 522 q 444 594 483 594 q 372 565 406 594 q 313 488 339 536 q 266 381 286 440 q 236 262 246 322 q 226 150 226 201 q 244 61 226 88 q 299 35 263 35 q 373 57 333 35 q 447 127 413 79 q 499 254 481 175 l 521 207 l 526 146 l 518 146 q 456 64 493 101 q 373 5 419 26 q 271 -17 326 -17 m 479 178 l 588 625 l 749 625 l 635 169 l 479 178 z "},"ǽ":{"ha":1128,"x_min":50,"x_max":1106,"o":"m 776 -17 q 628 22 688 -17 q 538 120 568 60 q 507 247 507 181 q 541 390 507 319 q 631 517 575 460 q 756 608 688 574 q 896 642 825 642 q 1003 621 956 642 q 1078 563 1050 600 q 1106 476 1106 525 q 1069 373 1106 419 q 965 299 1032 326 q 804 271 897 271 q 733 274 771 271 q 667 281 696 276 q 629 286 638 285 l 636 328 q 687 317 660 319 q 754 314 714 314 q 877 339 831 314 q 944 406 924 364 q 965 496 965 449 q 943 574 965 547 q 881 600 921 600 q 808 570 840 600 q 751 492 776 540 q 710 384 726 443 q 684 267 693 325 q 675 163 675 210 q 703 63 675 94 q 790 32 732 32 q 925 68 857 32 q 1051 196 993 104 l 1083 172 q 951 33 1029 82 q 776 -17 872 -17 m 271 -17 q 161 13 211 -17 q 81 97 111 42 q 50 229 50 153 q 83 385 50 311 q 169 516 115 458 q 288 608 222 574 q 421 642 354 642 q 510 615 478 642 q 560 543 542 589 l 569 543 l 538 417 q 541 442 540 431 q 542 464 542 454 q 513 558 542 522 q 444 594 483 594 q 372 565 406 594 q 313 488 339 536 q 266 381 286 440 q 236 262 246 322 q 226 150 226 201 q 244 61 226 88 q 299 35 263 35 q 373 57 333 35 q 447 127 413 79 q 499 254 481 175 l 521 207 l 526 146 l 518 146 q 456 64 493 101 q 373 5 419 26 q 271 -17 326 -17 m 479 178 l 588 625 l 749 625 l 635 169 l 479 178 m 628 728 l 826 946 q 888 998 863 986 q 935 1010 913 1010 q 991 990 974 1010 q 1008 943 1008 969 q 994 902 1008 921 q 944 864 979 883 l 700 728 l 628 728 z "},"b":{"ha":733,"x_min":58,"x_max":686,"o":"m 279 -18 q 115 40 172 -18 q 58 185 58 97 q 61 222 58 199 q 72 283 64 246 l 254 1047 l 417 1047 l 217 199 q 211 165 214 185 q 208 128 208 146 q 231 53 208 78 q 288 29 253 29 q 374 67 333 29 q 445 170 414 106 q 494 315 476 235 q 511 476 511 394 q 497 567 511 540 q 447 594 483 594 q 352 553 400 594 q 267 431 304 513 l 299 560 l 308 560 q 378 618 335 594 q 472 642 421 642 q 574 614 525 642 q 655 531 624 586 q 686 394 686 476 q 653 240 686 314 q 564 108 621 165 q 433 16 507 50 q 279 -18 360 -18 m 115 1010 l 115 1047 l 400 1047 l 400 1010 l 115 1010 z "},"c":{"ha":660,"x_min":46,"x_max":649,"o":"m 317 -17 q 170 23 231 -17 q 78 124 110 63 q 46 256 46 186 q 78 398 46 329 q 167 522 111 467 q 297 609 224 576 q 449 642 369 642 q 553 624 508 642 q 624 575 599 606 q 649 504 649 544 q 626 442 649 468 q 557 415 603 415 q 494 435 517 415 q 471 488 471 456 q 478 522 471 508 q 494 547 486 536 q 503 569 503 558 q 484 593 503 586 q 443 600 465 600 q 375 581 406 600 q 319 524 344 561 q 276 433 294 486 q 243 313 257 381 q 219 167 229 246 q 242 66 215 100 q 332 32 268 32 q 461 68 396 32 q 585 196 526 104 l 615 172 q 488 33 564 83 q 317 -17 411 -17 z "},"ć":{"ha":660,"x_min":46,"x_max":765,"o":"m 317 -17 q 170 23 231 -17 q 78 124 110 63 q 46 256 46 186 q 78 398 46 329 q 167 522 111 467 q 297 609 224 576 q 449 642 369 642 q 553 624 508 642 q 624 575 599 606 q 649 504 649 544 q 626 442 649 468 q 557 415 603 415 q 494 435 517 415 q 471 488 471 456 q 478 522 471 508 q 494 547 486 536 q 503 569 503 558 q 484 593 503 586 q 443 600 465 600 q 375 581 406 600 q 319 524 344 561 q 276 433 294 486 q 243 313 257 381 q 219 167 229 246 q 242 66 215 100 q 332 32 268 32 q 461 68 396 32 q 585 196 526 104 l 615 172 q 488 33 564 83 q 317 -17 411 -17 m 386 728 l 585 946 q 646 998 621 986 q 693 1010 671 1010 q 749 990 732 1010 q 767 943 767 969 q 752 902 767 921 q 703 864 738 883 l 458 728 l 386 728 z "},"č":{"ha":660,"x_min":46,"x_max":747,"o":"m 317 -17 q 170 23 231 -17 q 78 124 110 63 q 46 256 46 186 q 78 398 46 329 q 167 522 111 467 q 297 609 224 576 q 449 642 369 642 q 553 624 508 642 q 624 575 599 606 q 649 504 649 544 q 626 442 649 468 q 557 415 603 415 q 494 435 517 415 q 471 488 471 456 q 478 522 471 508 q 494 547 486 536 q 503 569 503 558 q 484 593 503 586 q 443 600 465 600 q 375 581 406 600 q 319 524 344 561 q 276 433 294 486 q 243 313 257 381 q 219 167 229 246 q 242 66 215 100 q 332 32 268 32 q 461 68 396 32 q 585 196 526 104 l 615 172 q 488 33 564 83 q 317 -17 411 -17 m 406 728 l 269 1006 l 329 1006 l 479 872 l 688 1006 l 747 1006 l 492 728 l 406 728 z "},"ç":{"ha":660,"x_min":46,"x_max":649,"o":"m 317 -17 q 170 23 231 -17 q 78 124 110 63 q 46 256 46 186 q 78 398 46 329 q 167 522 111 467 q 297 609 224 576 q 449 642 369 642 q 553 624 508 642 q 624 575 599 606 q 649 504 649 544 q 626 442 649 468 q 557 415 603 415 q 494 435 517 415 q 471 488 471 456 q 478 522 471 508 q 494 547 486 536 q 503 569 503 558 q 484 593 503 586 q 443 600 465 600 q 375 581 406 600 q 319 524 344 561 q 276 433 294 486 q 243 313 257 381 q 219 167 229 246 q 242 66 215 100 q 332 32 268 32 q 461 68 396 32 q 585 196 526 104 l 615 172 q 488 33 564 83 q 317 -17 411 -17 m 194 -319 q 126 -311 153 -319 q 89 -296 100 -303 l 113 -251 q 143 -262 121 -257 q 188 -267 165 -267 q 260 -248 231 -267 q 289 -193 289 -229 q 269 -149 289 -165 q 197 -132 249 -133 l 283 14 l 338 14 l 278 -92 l 304 -92 q 388 -116 358 -92 q 418 -181 418 -140 q 382 -259 418 -228 q 294 -305 346 -290 q 194 -319 243 -319 z "},"ĉ":{"ha":660,"x_min":46,"x_max":699,"o":"m 317 -17 q 170 23 231 -17 q 78 124 110 63 q 46 256 46 186 q 78 398 46 329 q 167 522 111 467 q 297 609 224 576 q 449 642 369 642 q 553 624 508 642 q 624 575 599 606 q 649 504 649 544 q 626 442 649 468 q 557 415 603 415 q 494 435 517 415 q 471 488 471 456 q 478 522 471 508 q 494 547 486 536 q 503 569 503 558 q 484 593 503 586 q 443 600 465 600 q 375 581 406 600 q 319 524 344 561 q 276 433 294 486 q 243 313 257 381 q 219 167 229 246 q 242 66 215 100 q 332 32 268 32 q 461 68 396 32 q 585 196 526 104 l 615 172 q 488 33 564 83 q 317 -17 411 -17 m 222 728 l 476 1006 l 563 1006 l 699 728 l 639 728 l 489 861 l 281 728 l 222 728 z "},"ċ":{"ha":660,"x_min":46,"x_max":649,"o":"m 317 -17 q 170 23 231 -17 q 78 124 110 63 q 46 256 46 186 q 78 398 46 329 q 167 522 111 467 q 297 609 224 576 q 449 642 369 642 q 553 624 508 642 q 624 575 599 606 q 649 504 649 544 q 626 442 649 468 q 557 415 603 415 q 494 435 517 415 q 471 488 471 456 q 478 522 471 508 q 494 547 486 536 q 503 569 503 558 q 484 593 503 586 q 443 600 465 600 q 375 581 406 600 q 319 524 344 561 q 276 433 294 486 q 243 313 257 381 q 219 167 229 246 q 242 66 215 100 q 332 32 268 32 q 461 68 396 32 q 585 196 526 104 l 615 172 q 488 33 564 83 q 317 -17 411 -17 m 478 758 q 407 789 438 758 q 376 860 376 819 q 407 934 376 904 q 478 964 438 964 q 552 934 522 964 q 582 860 582 904 q 552 789 582 819 q 478 758 522 758 z "},"d":{"ha":813,"x_min":47,"x_max":867,"o":"m 593 -17 q 512 11 543 -17 q 481 100 481 39 q 484 144 481 119 q 499 213 488 168 l 699 1047 l 867 1047 l 644 128 q 639 99 640 110 q 638 82 638 88 q 661 56 638 56 q 728 93 689 56 q 811 228 767 131 l 843 215 q 783 103 818 156 q 701 17 749 50 q 593 -17 654 -17 m 276 -17 q 164 13 217 -17 q 79 99 111 43 q 47 235 47 154 q 81 389 47 315 q 169 519 114 463 q 290 609 224 576 q 422 642 356 642 q 515 615 481 642 q 571 540 550 589 l 581 540 l 549 414 q 552 441 551 429 q 553 464 553 453 q 519 557 553 519 q 442 594 486 594 q 371 566 404 594 q 311 491 338 538 q 265 387 285 444 q 235 269 246 329 q 225 158 225 210 q 245 63 225 90 q 304 35 265 35 q 372 53 333 35 q 448 122 410 72 q 513 263 486 172 l 482 97 l 472 97 q 396 19 446 54 q 276 -17 346 -17 m 547 1010 l 547 1047 l 818 1047 l 818 1010 l 547 1010 z "},"ð":{"ha":785,"x_min":38,"x_max":847,"o":"m 328 -17 q 178 17 244 -17 q 75 111 113 50 q 38 254 38 172 q 70 399 38 331 q 158 522 103 468 q 285 608 214 576 q 433 639 357 639 q 518 627 479 639 q 582 594 557 615 l 588 596 q 594 645 592 624 q 597 692 597 667 q 536 901 597 819 q 351 1007 475 982 l 372 1046 q 535 994 461 1035 q 665 888 610 954 q 750 734 719 821 q 781 544 781 647 q 749 342 781 442 q 657 161 717 242 q 514 32 597 81 q 328 -17 431 -17 m 343 26 q 433 53 396 26 q 497 143 469 81 q 549 308 525 206 q 568 406 560 354 q 578 519 576 458 q 534 570 564 550 q 465 590 504 590 q 367 550 411 590 q 294 447 324 510 q 247 311 264 383 q 231 175 231 239 q 243 87 231 119 q 281 40 256 54 q 343 26 306 26 m 371 776 l 354 826 l 833 986 l 847 936 l 371 776 z "},"ď":{"ha":813,"x_min":47,"x_max":1140,"o":"m 593 -17 q 512 11 543 -17 q 481 100 481 39 q 484 144 481 119 q 499 213 488 168 l 699 1047 l 867 1047 l 644 128 q 639 99 640 110 q 638 82 638 88 q 661 56 638 56 q 728 93 689 56 q 811 228 767 131 l 843 215 q 783 103 818 156 q 701 17 749 50 q 593 -17 654 -17 m 276 -17 q 164 13 217 -17 q 79 99 111 43 q 47 235 47 154 q 81 389 47 315 q 169 519 114 463 q 290 609 224 576 q 422 642 356 642 q 515 615 481 642 q 571 540 550 589 l 581 540 l 549 414 q 552 441 551 429 q 553 464 553 453 q 519 557 553 519 q 442 594 486 594 q 371 566 404 594 q 311 491 338 538 q 265 387 285 444 q 235 269 246 329 q 225 158 225 210 q 245 63 225 90 q 304 35 265 35 q 372 53 333 35 q 448 122 410 72 q 513 263 486 172 l 482 97 l 472 97 q 396 19 446 54 q 276 -17 346 -17 m 547 1010 l 547 1047 l 818 1047 l 818 1010 l 547 1010 m 897 646 l 879 678 q 1031 782 981 728 q 1082 882 1082 836 q 1074 911 1082 903 q 1060 919 1067 919 q 1042 908 1050 919 q 1021 883 1035 896 q 978 871 1007 871 q 915 899 936 871 q 894 961 894 926 q 927 1035 894 1007 q 1008 1064 960 1064 q 1082 1042 1053 1064 q 1126 985 1111 1019 q 1140 915 1140 950 q 1076 769 1140 840 q 897 646 1011 697 z "},"đ":{"ha":813,"x_min":47,"x_max":894,"o":"m 593 -17 q 512 11 543 -17 q 481 100 481 39 q 484 144 481 119 q 499 213 488 168 l 699 1047 l 867 1047 l 644 128 q 639 99 640 110 q 638 82 638 88 q 661 56 638 56 q 728 93 689 56 q 811 228 767 131 l 843 215 q 783 103 818 156 q 701 17 749 50 q 593 -17 654 -17 m 276 -17 q 164 13 217 -17 q 79 99 111 43 q 47 235 47 154 q 81 389 47 315 q 169 519 114 463 q 290 609 224 576 q 422 642 356 642 q 515 615 481 642 q 571 540 550 589 l 581 540 l 549 414 q 552 441 551 429 q 553 464 553 453 q 519 557 553 519 q 442 594 486 594 q 371 566 404 594 q 311 491 338 538 q 265 387 285 444 q 235 269 246 329 q 225 158 225 210 q 245 63 225 90 q 304 35 265 35 q 372 53 333 35 q 448 122 410 72 q 513 263 486 172 l 482 97 l 472 97 q 396 19 446 54 q 276 -17 346 -17 m 547 1010 l 547 1047 l 818 1047 l 818 1010 l 547 1010 m 388 779 l 388 831 l 894 831 l 894 779 l 388 779 z "},"ḍ":{"ha":813,"x_min":47,"x_max":867,"o":"m 593 -17 q 512 11 543 -17 q 481 100 481 39 q 484 144 481 119 q 499 213 488 168 l 699 1047 l 867 1047 l 644 128 q 639 99 640 110 q 638 82 638 88 q 661 56 638 56 q 728 93 689 56 q 811 228 767 131 l 843 215 q 783 103 818 156 q 701 17 749 50 q 593 -17 654 -17 m 276 -17 q 164 13 217 -17 q 79 99 111 43 q 47 235 47 154 q 81 389 47 315 q 169 519 114 463 q 290 609 224 576 q 422 642 356 642 q 515 615 481 642 q 571 540 550 589 l 581 540 l 549 414 q 552 441 551 429 q 553 464 553 453 q 519 557 553 519 q 442 594 486 594 q 371 566 404 594 q 311 491 338 538 q 265 387 285 444 q 235 269 246 329 q 225 158 225 210 q 245 63 225 90 q 304 35 265 35 q 372 53 333 35 q 448 122 410 72 q 513 263 486 172 l 482 97 l 472 97 q 396 19 446 54 q 276 -17 346 -17 m 547 1010 l 547 1047 l 818 1047 l 818 1010 l 547 1010 m 286 -303 q 215 -272 246 -303 q 185 -201 185 -242 q 215 -127 185 -157 q 286 -97 246 -97 q 360 -127 331 -97 q 390 -201 390 -157 q 360 -272 390 -242 q 286 -303 331 -303 z "},"ǳ":{"ha":1485,"x_min":47,"x_max":1468,"o":"m 593 -17 q 512 11 543 -17 q 481 100 481 39 q 484 144 481 119 q 499 213 488 168 l 699 1047 l 867 1047 l 644 128 q 639 99 640 110 q 638 82 638 88 q 661 56 638 56 q 728 93 689 56 q 811 228 767 131 l 843 215 q 783 103 818 156 q 701 17 749 50 q 593 -17 654 -17 m 276 -17 q 164 13 217 -17 q 79 99 111 43 q 47 235 47 154 q 81 389 47 315 q 169 519 114 463 q 290 609 224 576 q 422 642 356 642 q 515 615 481 642 q 571 540 550 589 l 581 540 l 549 414 q 552 441 551 429 q 553 464 553 453 q 519 557 553 519 q 442 594 486 594 q 371 566 404 594 q 311 491 338 538 q 265 387 285 444 q 235 269 246 329 q 225 158 225 210 q 245 63 225 90 q 304 35 265 35 q 372 53 333 35 q 448 122 410 72 q 513 263 486 172 l 482 97 l 472 97 q 396 19 446 54 q 276 -17 346 -17 m 547 1010 l 547 1047 l 818 1047 l 818 1010 l 547 1010 m 872 -14 q 841 -2 851 -14 q 831 28 831 10 q 849 75 831 47 q 928 156 868 103 l 1285 478 l 1282 482 q 1181 461 1229 468 q 1094 454 1132 454 q 1035 458 1063 454 q 976 472 1007 461 l 926 375 l 896 388 l 1007 625 l 1035 625 q 1125 601 1083 611 q 1207 586 1167 592 q 1290 578 1247 581 q 1382 576 1332 576 q 1398 586 1394 576 q 1403 608 1401 596 q 1413 629 1406 619 q 1439 639 1419 639 q 1469 613 1469 639 q 1460 587 1469 601 q 1419 543 1451 572 l 1015 182 l 1015 176 q 1126 168 1078 176 q 1209 149 1174 160 q 1272 129 1244 138 q 1319 121 1299 121 q 1360 136 1349 121 q 1372 164 1372 151 q 1359 182 1372 178 q 1329 190 1346 186 q 1299 203 1313 193 q 1286 238 1286 214 q 1305 281 1286 267 q 1344 294 1324 294 q 1395 267 1378 294 q 1413 196 1413 239 q 1384 93 1413 142 q 1308 13 1356 44 q 1199 -18 1260 -18 q 1096 3 1144 -18 q 1005 44 1047 24 q 928 65 963 65 q 907 53 908 65 q 909 26 906 42 q 908 -2 913 10 q 872 -14 903 -14 z "},"ǆ":{"ha":1485,"x_min":47,"x_max":1544,"o":"m 593 -17 q 512 11 543 -17 q 481 100 481 39 q 484 144 481 119 q 499 213 488 168 l 699 1047 l 867 1047 l 644 128 q 639 99 640 110 q 638 82 638 88 q 661 56 638 56 q 728 93 689 56 q 811 228 767 131 l 843 215 q 783 103 818 156 q 701 17 749 50 q 593 -17 654 -17 m 276 -17 q 164 13 217 -17 q 79 99 111 43 q 47 235 47 154 q 81 389 47 315 q 169 519 114 463 q 290 609 224 576 q 422 642 356 642 q 515 615 481 642 q 571 540 550 589 l 581 540 l 549 414 q 552 441 551 429 q 553 464 553 453 q 519 557 553 519 q 442 594 486 594 q 371 566 404 594 q 311 491 338 538 q 265 387 285 444 q 235 269 246 329 q 225 158 225 210 q 245 63 225 90 q 304 35 265 35 q 372 53 333 35 q 448 122 410 72 q 513 263 486 172 l 482 97 l 472 97 q 396 19 446 54 q 276 -17 346 -17 m 547 1010 l 547 1047 l 818 1047 l 818 1010 l 547 1010 m 872 -14 q 841 -2 851 -14 q 831 28 831 10 q 849 75 831 47 q 928 156 868 103 l 1285 478 l 1282 482 q 1181 461 1229 468 q 1094 454 1132 454 q 1035 458 1063 454 q 976 472 1007 461 l 926 375 l 896 388 l 1007 625 l 1035 625 q 1125 601 1083 611 q 1207 586 1167 592 q 1290 578 1247 581 q 1382 576 1332 576 q 1398 586 1394 576 q 1403 608 1401 596 q 1413 629 1406 619 q 1439 639 1419 639 q 1469 613 1469 639 q 1460 587 1469 601 q 1419 543 1451 572 l 1015 182 l 1015 176 q 1126 168 1078 176 q 1209 149 1174 160 q 1272 129 1244 138 q 1319 121 1299 121 q 1360 136 1349 121 q 1372 164 1372 151 q 1359 182 1372 178 q 1329 190 1346 186 q 1299 203 1313 193 q 1286 238 1286 214 q 1305 281 1286 267 q 1344 294 1324 294 q 1395 267 1378 294 q 1413 196 1413 239 q 1384 93 1413 142 q 1308 13 1356 44 q 1199 -18 1260 -18 q 1096 3 1144 -18 q 1005 44 1047 24 q 928 65 963 65 q 907 53 908 65 q 909 26 906 42 q 908 -2 913 10 q 872 -14 903 -14 m 1203 728 l 1067 1006 l 1126 1006 l 1276 872 l 1485 1006 l 1544 1006 l 1289 728 l 1203 728 z "},"e":{"ha":674,"x_min":42,"x_max":651,"o":"m 325 -17 q 173 22 236 -17 q 76 123 110 61 q 42 256 42 185 q 75 397 42 328 q 165 521 108 465 q 292 609 221 576 q 440 642 364 642 q 549 620 501 642 q 624 560 596 599 q 651 474 651 522 q 615 374 651 418 q 513 303 579 329 q 354 278 446 278 q 283 281 321 278 q 217 288 246 283 q 178 293 188 292 l 185 335 q 235 323 208 325 q 304 321 263 321 q 424 344 378 321 q 490 407 469 368 q 511 493 511 446 q 490 572 511 544 q 429 600 468 600 q 359 572 392 600 q 301 490 326 544 q 256 358 275 436 q 226 176 236 279 q 249 67 221 101 q 343 32 278 32 q 474 67 406 32 q 601 196 542 103 l 632 172 q 505 35 582 88 q 325 -17 428 -17 z "},"é":{"ha":674,"x_min":42,"x_max":751,"o":"m 325 -17 q 173 22 236 -17 q 76 123 110 61 q 42 256 42 185 q 75 397 42 328 q 165 521 108 465 q 292 609 221 576 q 440 642 364 642 q 549 620 501 642 q 624 560 596 599 q 651 474 651 522 q 615 374 651 418 q 513 303 579 329 q 354 278 446 278 q 283 281 321 278 q 217 288 246 283 q 178 293 188 292 l 185 335 q 235 323 208 325 q 304 321 263 321 q 424 344 378 321 q 490 407 469 368 q 511 493 511 446 q 490 572 511 544 q 429 600 468 600 q 359 572 392 600 q 301 490 326 544 q 256 358 275 436 q 226 176 236 279 q 249 67 221 101 q 343 32 278 32 q 474 67 406 32 q 601 196 542 103 l 632 172 q 505 35 582 88 q 325 -17 428 -17 m 372 728 l 571 946 q 632 998 607 986 q 679 1010 657 1010 q 735 990 718 1010 q 753 943 753 969 q 738 902 753 921 q 689 864 724 883 l 444 728 l 372 728 z "},"ĕ":{"ha":674,"x_min":42,"x_max":688,"o":"m 325 -17 q 173 22 236 -17 q 76 123 110 61 q 42 256 42 185 q 75 397 42 328 q 165 521 108 465 q 292 609 221 576 q 440 642 364 642 q 549 620 501 642 q 624 560 596 599 q 651 474 651 522 q 615 374 651 418 q 513 303 579 329 q 354 278 446 278 q 283 281 321 278 q 217 288 246 283 q 178 293 188 292 l 185 335 q 235 323 208 325 q 304 321 263 321 q 424 344 378 321 q 490 407 469 368 q 511 493 511 446 q 490 572 511 544 q 429 600 468 600 q 359 572 392 600 q 301 490 326 544 q 256 358 275 436 q 226 176 236 279 q 249 67 221 101 q 343 32 278 32 q 474 67 406 32 q 601 196 542 103 l 632 172 q 505 35 582 88 q 325 -17 428 -17 m 418 728 q 281 774 331 728 q 232 899 232 819 q 233 927 232 911 q 239 960 235 943 l 293 960 q 292 950 292 954 q 292 942 292 946 q 334 872 292 893 q 439 850 376 850 q 559 876 508 850 q 631 960 610 901 l 688 960 q 635 842 671 894 q 546 759 600 790 q 418 728 492 728 z "},"ě":{"ha":674,"x_min":42,"x_max":733,"o":"m 325 -17 q 173 22 236 -17 q 76 123 110 61 q 42 256 42 185 q 75 397 42 328 q 165 521 108 465 q 292 609 221 576 q 440 642 364 642 q 549 620 501 642 q 624 560 596 599 q 651 474 651 522 q 615 374 651 418 q 513 303 579 329 q 354 278 446 278 q 283 281 321 278 q 217 288 246 283 q 178 293 188 292 l 185 335 q 235 323 208 325 q 304 321 263 321 q 424 344 378 321 q 490 407 469 368 q 511 493 511 446 q 490 572 511 544 q 429 600 468 600 q 359 572 392 600 q 301 490 326 544 q 256 358 275 436 q 226 176 236 279 q 249 67 221 101 q 343 32 278 32 q 474 67 406 32 q 601 196 542 103 l 632 172 q 505 35 582 88 q 325 -17 428 -17 m 392 728 l 256 1006 l 315 1006 l 465 872 l 674 1006 l 733 1006 l 478 728 l 392 728 z "},"ê":{"ha":674,"x_min":42,"x_max":685,"o":"m 325 -17 q 173 22 236 -17 q 76 123 110 61 q 42 256 42 185 q 75 397 42 328 q 165 521 108 465 q 292 609 221 576 q 440 642 364 642 q 549 620 501 642 q 624 560 596 599 q 651 474 651 522 q 615 374 651 418 q 513 303 579 329 q 354 278 446 278 q 283 281 321 278 q 217 288 246 283 q 178 293 188 292 l 185 335 q 235 323 208 325 q 304 321 263 321 q 424 344 378 321 q 490 407 469 368 q 511 493 511 446 q 490 572 511 544 q 429 600 468 600 q 359 572 392 600 q 301 490 326 544 q 256 358 275 436 q 226 176 236 279 q 249 67 221 101 q 343 32 278 32 q 474 67 406 32 q 601 196 542 103 l 632 172 q 505 35 582 88 q 325 -17 428 -17 m 208 728 l 463 1006 l 549 1006 l 685 728 l 625 728 l 475 861 l 267 728 l 208 728 z "},"ế":{"ha":674,"x_min":42,"x_max":678,"o":"m 325 -17 q 173 22 236 -17 q 76 123 110 61 q 42 256 42 185 q 75 397 42 328 q 165 521 108 465 q 292 609 221 576 q 440 642 364 642 q 549 620 501 642 q 624 560 596 599 q 651 474 651 522 q 615 374 651 418 q 513 303 579 329 q 354 278 446 278 q 283 281 321 278 q 217 288 246 283 q 178 293 188 292 l 185 335 q 235 323 208 325 q 304 321 263 321 q 424 344 378 321 q 490 407 469 368 q 511 493 511 446 q 490 572 511 544 q 429 600 468 600 q 359 572 392 600 q 301 490 326 544 q 256 358 275 436 q 226 176 236 279 q 249 67 221 101 q 343 32 278 32 q 474 67 406 32 q 601 196 542 103 l 632 172 q 505 35 582 88 q 325 -17 428 -17 m 208 728 l 407 875 l 489 875 l 639 728 l 576 728 l 439 788 l 269 728 l 208 728 m 250 921 l 492 1069 q 560 1106 535 1094 q 611 1117 586 1117 q 660 1099 642 1117 q 678 1056 678 1082 q 658 1007 678 1029 q 593 975 638 985 l 335 921 l 250 921 z "},"ệ":{"ha":674,"x_min":42,"x_max":685,"o":"m 325 -17 q 173 22 236 -17 q 76 123 110 61 q 42 256 42 185 q 75 397 42 328 q 165 521 108 465 q 292 609 221 576 q 440 642 364 642 q 549 620 501 642 q 624 560 596 599 q 651 474 651 522 q 615 374 651 418 q 513 303 579 329 q 354 278 446 278 q 283 281 321 278 q 217 288 246 283 q 178 293 188 292 l 185 335 q 235 323 208 325 q 304 321 263 321 q 424 344 378 321 q 490 407 469 368 q 511 493 511 446 q 490 572 511 544 q 429 600 468 600 q 359 572 392 600 q 301 490 326 544 q 256 358 275 436 q 226 176 236 279 q 249 67 221 101 q 343 32 278 32 q 474 67 406 32 q 601 196 542 103 l 632 172 q 505 35 582 88 q 325 -17 428 -17 m 217 -303 q 146 -272 176 -303 q 115 -201 115 -242 q 146 -127 115 -157 q 217 -97 176 -97 q 291 -127 261 -97 q 321 -201 321 -157 q 291 -272 321 -242 q 217 -303 261 -303 m 208 728 l 463 1006 l 549 1006 l 685 728 l 625 728 l 475 861 l 267 728 l 208 728 z "},"ề":{"ha":674,"x_min":42,"x_max":693,"o":"m 325 -17 q 173 22 236 -17 q 76 123 110 61 q 42 256 42 185 q 75 397 42 328 q 165 521 108 465 q 292 609 221 576 q 440 642 364 642 q 549 620 501 642 q 624 560 596 599 q 651 474 651 522 q 615 374 651 418 q 513 303 579 329 q 354 278 446 278 q 283 281 321 278 q 217 288 246 283 q 178 293 188 292 l 185 335 q 235 323 208 325 q 304 321 263 321 q 424 344 378 321 q 490 407 469 368 q 511 493 511 446 q 490 572 511 544 q 429 600 468 600 q 359 572 392 600 q 301 490 326 544 q 256 358 275 436 q 226 176 236 279 q 249 67 221 101 q 343 32 278 32 q 474 67 406 32 q 601 196 542 103 l 632 172 q 505 35 582 88 q 325 -17 428 -17 m 214 728 l 413 875 l 494 875 l 644 728 l 582 728 l 444 788 l 275 728 l 214 728 m 608 925 l 356 983 q 307 1009 322 990 q 292 1050 292 1028 q 313 1099 292 1078 q 369 1121 333 1121 q 415 1110 393 1121 q 475 1074 436 1100 l 693 925 l 608 925 z "}}}
